solid OBJECT
  facet normal 1 -0 0
    outer loop
      vertex -0.00044500001240521669 0.00044500001240521669 0.019999999552965164
      vertex -0.00044500001240521669 -0.00044500001240521669 0.019999999552965164
      vertex -0.00044500001240521669 -0.00044500001240521669 -0.019999999552965164
    endloop
  endfacet
  facet normal 1 0 0
    outer loop
      vertex -0.00044500001240521669 0.00044500001240521669 0.019999999552965164
      vertex -0.00044500001240521669 -0.00044500001240521669 -0.019999999552965164
      vertex -0.00044500001240521669 0.00044500001240521669 -0.019999999552965164
    endloop
  endfacet
  facet normal 0 1 0
    outer loop
      vertex -0.00044500001240521669 -0.00044500001240521669 0.019999999552965164
      vertex 0.00044500001240521669 -0.00044500001240521669 0.019999999552965164
      vertex 0.00044500001240521669 -0.00044500001240521669 -0.019999999552965164
    endloop
  endfacet
  facet normal -0 1 0
    outer loop
      vertex -0.00044500001240521669 -0.00044500001240521669 0.019999999552965164
      vertex 0.00044500001240521669 -0.00044500001240521669 -0.019999999552965164
      vertex -0.00044500001240521669 -0.00044500001240521669 -0.019999999552965164
    endloop
  endfacet
  facet normal -1 -0 -0
    outer loop
      vertex 0.00044500001240521669 -0.00044500001240521669 0.019999999552965164
      vertex 0.00044500001240521669 0.00044500001240521669 0.019999999552965164
      vertex 0.00044500001240521669 0.00044500001240521669 -0.019999999552965164
    endloop
  endfacet
  facet normal -1 0 0
    outer loop
      vertex 0.00044500001240521669 -0.00044500001240521669 0.019999999552965164
      vertex 0.00044500001240521669 0.00044500001240521669 -0.019999999552965164
      vertex 0.00044500001240521669 -0.00044500001240521669 -0.019999999552965164
    endloop
  endfacet
  facet normal 0 -1 -0
    outer loop
      vertex 0.00044500001240521669 0.00044500001240521669 0.019999999552965164
      vertex -0.00044500001240521669 0.00044500001240521669 0.019999999552965164
      vertex -0.00044500001240521669 0.00044500001240521669 -0.019999999552965164
    endloop
  endfacet
  facet normal -0 -1 0
    outer loop
      vertex 0.00044500001240521669 0.00044500001240521669 0.019999999552965164
      vertex -0.00044500001240521669 0.00044500001240521669 -0.019999999552965164
      vertex 0.00044500001240521669 0.00044500001240521669 -0.019999999552965164
    endloop
  endfacet
  facet normal 1 -0 0
    outer loop
      vertex 0.00095000001601874828 0.00095000001601874828 0.019999999552965164
      vertex 0.00095000001601874828 -0.00095000001601874828 0.019999999552965164
      vertex 0.00095000001601874828 -0.00095000001601874828 -0.019999999552965164
    endloop
  endfacet
  facet normal 1 0 0
    outer loop
      vertex 0.00095000001601874828 0.00095000001601874828 0.019999999552965164
      vertex 0.00095000001601874828 -0.00095000001601874828 -0.019999999552965164
      vertex 0.00095000001601874828 0.00095000001601874828 -0.019999999552965164
    endloop
  endfacet
  facet normal 0 -1 -0
    outer loop
      vertex 0.00095000001601874828 -0.00095000001601874828 0.019999999552965164
      vertex -0.00095000001601874828 -0.00095000001601874828 0.019999999552965164
      vertex -0.00095000001601874828 -0.00095000001601874828 -0.019999999552965164
    endloop
  endfacet
  facet normal -0 -1 0
    outer loop
      vertex 0.00095000001601874828 -0.00095000001601874828 0.019999999552965164
      vertex -0.00095000001601874828 -0.00095000001601874828 -0.019999999552965164
      vertex 0.00095000001601874828 -0.00095000001601874828 -0.019999999552965164
    endloop
  endfacet
  facet normal -1 -0 -0
    outer loop
      vertex -0.00095000001601874828 -0.00095000001601874828 0.019999999552965164
      vertex -0.00095000001601874828 0.00095000001601874828 0.019999999552965164
      vertex -0.00095000001601874828 0.00095000001601874828 -0.019999999552965164
    endloop
  endfacet
  facet normal -1 0 0
    outer loop
      vertex -0.00095000001601874828 -0.00095000001601874828 0.019999999552965164
      vertex -0.00095000001601874828 0.00095000001601874828 -0.019999999552965164
      vertex -0.00095000001601874828 -0.00095000001601874828 -0.019999999552965164
    endloop
  endfacet
  facet normal 0 1 0
    outer loop
      vertex -0.00095000001601874828 0.00095000001601874828 0.019999999552965164
      vertex 0.00095000001601874828 0.00095000001601874828 0.019999999552965164
      vertex 0.00095000001601874828 0.00095000001601874828 -0.019999999552965164
    endloop
  endfacet
  facet normal -0 1 0
    outer loop
      vertex -0.00095000001601874828 0.00095000001601874828 0.019999999552965164
      vertex 0.00095000001601874828 0.00095000001601874828 -0.019999999552965164
      vertex -0.00095000001601874828 0.00095000001601874828 -0.019999999552965164
    endloop
  endfacet
  facet normal -0 0 1
    outer loop
      vertex -0.00044500001240521669 -0.00044500001240521669 0.019999999552965164
      vertex -0.00044500001240521669 0.00044500001240521669 0.019999999552965164
      vertex -0.00095000001601874828 0.00095000001601874828 0.019999999552965164
    endloop
  endfacet
  facet normal 0 -0 1
    outer loop
      vertex -0.00095000001601874828 0.00095000001601874828 0.019999999552965164
      vertex -0.00044500001240521669 0.00044500001240521669 0.019999999552965164
      vertex 0.00044500001240521669 0.00044500001240521669 0.019999999552965164
    endloop
  endfacet
  facet normal 0 0 1
    outer loop
      vertex -0.00095000001601874828 0.00095000001601874828 0.019999999552965164
      vertex 0.00044500001240521669 0.00044500001240521669 0.019999999552965164
      vertex 0.00095000001601874828 0.00095000001601874828 0.019999999552965164
    endloop
  endfacet
  facet normal 0 0 1
    outer loop
      vertex 0.00095000001601874828 -0.00095000001601874828 0.019999999552965164
      vertex 0.00044500001240521669 -0.00044500001240521669 0.019999999552965164
      vertex -0.00044500001240521669 -0.00044500001240521669 0.019999999552965164
    endloop
  endfacet
  facet normal -0 -0 1
    outer loop
      vertex 0.00095000001601874828 -0.00095000001601874828 0.019999999552965164
      vertex -0.00044500001240521669 -0.00044500001240521669 0.019999999552965164
      vertex -0.00095000001601874828 -0.00095000001601874828 0.019999999552965164
    endloop
  endfacet
  facet normal 0 0 1
    outer loop
      vertex -0.00095000001601874828 0.00095000001601874828 0.019999999552965164
      vertex -0.00095000001601874828 -0.00095000001601874828 0.019999999552965164
      vertex -0.00044500001240521669 -0.00044500001240521669 0.019999999552965164
    endloop
  endfacet
  facet normal -0 0 1
    outer loop
      vertex 0.00044500001240521669 -0.00044500001240521669 0.019999999552965164
      vertex 0.00095000001601874828 0.00095000001601874828 0.019999999552965164
      vertex 0.00044500001240521669 0.00044500001240521669 0.019999999552965164
    endloop
  endfacet
  facet normal 0 -0 1
    outer loop
      vertex 0.00095000001601874828 0.00095000001601874828 0.019999999552965164
      vertex 0.00044500001240521669 -0.00044500001240521669 0.019999999552965164
      vertex 0.00095000001601874828 -0.00095000001601874828 0.019999999552965164
    endloop
  endfacet
endsolid OBJECT
