solid stl file generated from AC3D
 facet normal 0.000000 -1.000000 0.000000
  outer loop
   vertex 0.499500 -0.000500 -0.000500
   vertex 1.000500 -0.000500 0.500500
   vertex 0.499500 -0.000500 0.500500
  endloop
 endfacet
 facet normal 0.000000 -1.000000 0.000000
  outer loop
   vertex 1.000500 -0.000500 0.500500
   vertex 0.499500 -0.000500 -0.000500
   vertex 1.000500 -0.000500 -0.000500
  endloop
 endfacet
 facet normal 0.000000 1.000000 0.000000
  outer loop
   vertex 1.000500 1.000500 -0.000500
   vertex 0.499500 1.000500 0.500500
   vertex 1.000500 1.000500 0.500500
  endloop
 endfacet
 facet normal 0.000000 1.000000 0.000000
  outer loop
   vertex 0.499500 1.000500 0.500500
   vertex 1.000500 1.000500 -0.000500
   vertex 0.499500 1.000500 -0.000500
  endloop
 endfacet
 facet normal 0.000000 0.000000 1.000000
  outer loop
   vertex 0.499500 1.000500 0.500500
   vertex 1.000500 -0.000500 0.500500
   vertex 1.000500 1.000500 0.500500
  endloop
 endfacet
 facet normal 0.000000 0.000000 1.000000
  outer loop
   vertex 1.000500 -0.000500 0.500500
   vertex 0.499500 1.000500 0.500500
   vertex 0.499500 -0.000500 0.500500
  endloop
 endfacet
 facet normal 0.000000 0.000000 -1.000000
  outer loop
   vertex 0.499500 -0.000500 -0.000500
   vertex 1.000500 1.000500 -0.000500
   vertex 1.000500 -0.000500 -0.000500
  endloop
 endfacet
 facet normal 0.000000 0.000000 -1.000000
  outer loop
   vertex 1.000500 1.000500 -0.000500
   vertex 0.499500 -0.000500 -0.000500
   vertex 0.499500 1.000500 -0.000500
  endloop
 endfacet
 facet normal -1.000000 0.000000 0.000000
  outer loop
   vertex 0.499500 -0.000500 -0.000500
   vertex 0.499500 1.000500 0.500500
   vertex 0.499500 1.000500 -0.000500
  endloop
 endfacet
 facet normal -1.000000 0.000000 0.000000
  outer loop
   vertex 0.499500 1.000500 0.500500
   vertex 0.499500 -0.000500 -0.000500
   vertex 0.499500 -0.000500 0.500500
  endloop
 endfacet
 facet normal 1.000000 0.000000 0.000000
  outer loop
   vertex 1.000500 -0.000500 0.500500
   vertex 1.000500 1.000500 -0.000500
   vertex 1.000500 1.000500 0.500500
  endloop
 endfacet
 facet normal 1.000000 0.000000 0.000000
  outer loop
   vertex 1.000500 1.000500 -0.000500
   vertex 1.000500 -0.000500 0.500500
   vertex 1.000500 -0.000500 -0.000500
  endloop
 endfacet
endsolid
