solid stl file generated from AC3D
 facet normal 0.000000 -0.997289 0.073589
  outer loop
   vertex -1.500000 -0.497592 0.049009
   vertex 1.500000 -0.499398 0.024534
   vertex 1.500000 -0.497592 0.049009
  endloop
 endfacet
 facet normal 0.000000 -0.997289 0.073589
  outer loop
   vertex 1.500000 -0.499398 0.024534
   vertex -1.500000 -0.497592 0.049009
   vertex -1.500000 -0.499398 0.024534
  endloop
 endfacet
 facet normal 0.000000 -0.992480 0.122410
  outer loop
   vertex -1.500000 -0.494588 0.073365
   vertex 1.500000 -0.497592 0.049009
   vertex 1.500000 -0.494588 0.073365
  endloop
 endfacet
 facet normal 0.000000 -0.992480 0.122410
  outer loop
   vertex 1.500000 -0.497592 0.049009
   vertex -1.500000 -0.494588 0.073365
   vertex -1.500000 -0.497592 0.049009
  endloop
 endfacet
 facet normal 0.000000 -0.985282 0.170936
  outer loop
   vertex -1.500000 -0.490393 0.097545
   vertex 1.500000 -0.494588 0.073365
   vertex 1.500000 -0.490393 0.097545
  endloop
 endfacet
 facet normal 0.000000 -0.985282 0.170936
  outer loop
   vertex 1.500000 -0.494588 0.073365
   vertex -1.500000 -0.490393 0.097545
   vertex -1.500000 -0.494588 0.073365
  endloop
 endfacet
 facet normal 0.000000 -0.975702 0.219101
  outer loop
   vertex -1.500000 -0.485016 0.121490
   vertex 1.500000 -0.490393 0.097545
   vertex 1.500000 -0.485016 0.121490
  endloop
 endfacet
 facet normal 0.000000 -0.975702 0.219101
  outer loop
   vertex 1.500000 -0.490393 0.097545
   vertex -1.500000 -0.485016 0.121490
   vertex -1.500000 -0.490393 0.097545
  endloop
 endfacet
 facet normal 0.000000 -0.963770 0.266735
  outer loop
   vertex -1.500000 -0.478470 0.145142
   vertex 1.500000 -0.485016 0.121490
   vertex 1.500000 -0.478470 0.145142
  endloop
 endfacet
 facet normal 0.000000 -0.963770 0.266735
  outer loop
   vertex 1.500000 -0.485016 0.121490
   vertex -1.500000 -0.478470 0.145142
   vertex -1.500000 -0.485016 0.121490
  endloop
 endfacet
 facet normal 0.000000 -0.949531 0.313672
  outer loop
   vertex -1.500000 -0.470772 0.168445
   vertex 1.500000 -0.478470 0.145142
   vertex 1.500000 -0.470772 0.168445
  endloop
 endfacet
 facet normal 0.000000 -0.949531 0.313672
  outer loop
   vertex 1.500000 -0.478470 0.145142
   vertex -1.500000 -0.470772 0.168445
   vertex -1.500000 -0.478470 0.145142
  endloop
 endfacet
 facet normal 0.000000 -0.932997 0.359883
  outer loop
   vertex -1.500000 -0.461940 0.191342
   vertex 1.500000 -0.470772 0.168445
   vertex 1.500000 -0.461940 0.191342
  endloop
 endfacet
 facet normal 0.000000 -0.932997 0.359883
  outer loop
   vertex 1.500000 -0.470772 0.168445
   vertex -1.500000 -0.461940 0.191342
   vertex -1.500000 -0.470772 0.168445
  endloop
 endfacet
 facet normal 0.000000 -0.914213 0.405235
  outer loop
   vertex -1.500000 -0.451995 0.213778
   vertex 1.500000 -0.461940 0.191342
   vertex 1.500000 -0.451995 0.213778
  endloop
 endfacet
 facet normal 0.000000 -0.914213 0.405235
  outer loop
   vertex 1.500000 -0.461940 0.191342
   vertex -1.500000 -0.451995 0.213778
   vertex -1.500000 -0.461940 0.191342
  endloop
 endfacet
 facet normal 0.000000 -0.893218 0.449624
  outer loop
   vertex -1.500000 -0.440961 0.235698
   vertex 1.500000 -0.451995 0.213778
   vertex 1.500000 -0.440961 0.235698
  endloop
 endfacet
 facet normal 0.000000 -0.893218 0.449624
  outer loop
   vertex 1.500000 -0.451995 0.213778
   vertex -1.500000 -0.440961 0.235698
   vertex -1.500000 -0.451995 0.213778
  endloop
 endfacet
 facet normal 0.000000 -0.870075 0.492919
  outer loop
   vertex -1.500000 -0.428864 0.257051
   vertex 1.500000 -0.440961 0.235698
   vertex 1.500000 -0.428864 0.257051
  endloop
 endfacet
 facet normal 0.000000 -0.870075 0.492919
  outer loop
   vertex 1.500000 -0.440961 0.235698
   vertex -1.500000 -0.428864 0.257051
   vertex -1.500000 -0.440961 0.235698
  endloop
 endfacet
 facet normal 0.000000 -0.844866 0.534978
  outer loop
   vertex -1.500000 -0.415735 0.277785
   vertex 1.500000 -0.428864 0.257051
   vertex 1.500000 -0.415735 0.277785
  endloop
 endfacet
 facet normal 0.000000 -0.844866 0.534978
  outer loop
   vertex 1.500000 -0.428864 0.257051
   vertex -1.500000 -0.415735 0.277785
   vertex -1.500000 -0.428864 0.257051
  endloop
 endfacet
 facet normal 0.000000 -0.817592 0.575798
  outer loop
   vertex -1.500000 -0.401604 0.297850
   vertex 1.500000 -0.415735 0.277785
   vertex 1.500000 -0.401604 0.297850
  endloop
 endfacet
 facet normal 0.000000 -0.817592 0.575798
  outer loop
   vertex 1.500000 -0.415735 0.277785
   vertex -1.500000 -0.401604 0.297850
   vertex -1.500000 -0.415735 0.277785
  endloop
 endfacet
 facet normal 0.000000 -0.788338 0.615242
  outer loop
   vertex -1.500000 -0.386505 0.317197
   vertex 1.500000 -0.401604 0.297850
   vertex 1.500000 -0.386505 0.317197
  endloop
 endfacet
 facet normal 0.000000 -0.788337 0.615243
  outer loop
   vertex 1.500000 -0.401604 0.297850
   vertex -1.500000 -0.386505 0.317197
   vertex -1.500000 -0.401604 0.297850
  endloop
 endfacet
 facet normal 0.000000 -0.757208 0.653174
  outer loop
   vertex -1.500000 -0.370476 0.335779
   vertex 1.500000 -0.386505 0.317197
   vertex 1.500000 -0.370476 0.335779
  endloop
 endfacet
 facet normal 0.000000 -0.757208 0.653174
  outer loop
   vertex 1.500000 -0.386505 0.317197
   vertex -1.500000 -0.370476 0.335779
   vertex -1.500000 -0.386505 0.317197
  endloop
 endfacet
 facet normal 0.000000 -0.724231 0.689557
  outer loop
   vertex -1.500000 -0.353553 0.353553
   vertex 1.500000 -0.370476 0.335779
   vertex 1.500000 -0.353553 0.353553
  endloop
 endfacet
 facet normal 0.000000 -0.724231 0.689557
  outer loop
   vertex 1.500000 -0.370476 0.335779
   vertex -1.500000 -0.353553 0.353553
   vertex -1.500000 -0.370476 0.335779
  endloop
 endfacet
 facet normal 0.000000 -0.689557 0.724231
  outer loop
   vertex 1.500000 -0.335779 0.370476
   vertex -1.500000 -0.353553 0.353553
   vertex 1.500000 -0.353553 0.353553
  endloop
 endfacet
 facet normal 0.000000 -0.689557 0.724231
  outer loop
   vertex -1.500000 -0.353553 0.353553
   vertex 1.500000 -0.335779 0.370476
   vertex -1.500000 -0.335779 0.370476
  endloop
 endfacet
 facet normal 0.000000 -0.653174 0.757208
  outer loop
   vertex 1.500000 -0.317197 0.386505
   vertex -1.500000 -0.335779 0.370476
   vertex 1.500000 -0.335779 0.370476
  endloop
 endfacet
 facet normal 0.000000 -0.653174 0.757208
  outer loop
   vertex -1.500000 -0.335779 0.370476
   vertex 1.500000 -0.317197 0.386505
   vertex -1.500000 -0.317197 0.386505
  endloop
 endfacet
 facet normal 0.000000 -0.615243 0.788337
  outer loop
   vertex 1.500000 -0.297850 0.401604
   vertex -1.500000 -0.317197 0.386505
   vertex 1.500000 -0.317197 0.386505
  endloop
 endfacet
 facet normal 0.000000 -0.615243 0.788337
  outer loop
   vertex -1.500000 -0.317197 0.386505
   vertex 1.500000 -0.297850 0.401604
   vertex -1.500000 -0.297850 0.401604
  endloop
 endfacet
 facet normal 0.000000 -0.575798 0.817592
  outer loop
   vertex 1.500000 -0.277785 0.415735
   vertex -1.500000 -0.297850 0.401604
   vertex 1.500000 -0.297850 0.401604
  endloop
 endfacet
 facet normal 0.000000 -0.575798 0.817592
  outer loop
   vertex -1.500000 -0.297850 0.401604
   vertex 1.500000 -0.277785 0.415735
   vertex -1.500000 -0.277785 0.415735
  endloop
 endfacet
 facet normal 0.000000 -0.534978 0.844866
  outer loop
   vertex 1.500000 -0.257051 0.428864
   vertex -1.500000 -0.277785 0.415735
   vertex 1.500000 -0.277785 0.415735
  endloop
 endfacet
 facet normal 0.000000 -0.534978 0.844866
  outer loop
   vertex -1.500000 -0.277785 0.415735
   vertex 1.500000 -0.257051 0.428864
   vertex -1.500000 -0.257051 0.428864
  endloop
 endfacet
 facet normal 0.000000 -0.492919 0.870075
  outer loop
   vertex 1.500000 -0.235698 0.440961
   vertex -1.500000 -0.257051 0.428864
   vertex 1.500000 -0.257051 0.428864
  endloop
 endfacet
 facet normal 0.000000 -0.492919 0.870075
  outer loop
   vertex -1.500000 -0.257051 0.428864
   vertex 1.500000 -0.235698 0.440961
   vertex -1.500000 -0.235698 0.440961
  endloop
 endfacet
 facet normal 0.000000 -0.449607 0.893226
  outer loop
   vertex 1.500000 -0.213777 0.451995
   vertex -1.500000 -0.235698 0.440961
   vertex 1.500000 -0.235698 0.440961
  endloop
 endfacet
 facet normal 0.000000 -0.449607 0.893226
  outer loop
   vertex -1.500000 -0.235698 0.440961
   vertex 1.500000 -0.213777 0.451995
   vertex -1.500000 -0.213777 0.451995
  endloop
 endfacet
 facet normal 0.000000 -0.405250 0.914206
  outer loop
   vertex 1.500000 -0.191342 0.461940
   vertex -1.500000 -0.213777 0.451995
   vertex 1.500000 -0.213777 0.451995
  endloop
 endfacet
 facet normal 0.000000 -0.405250 0.914206
  outer loop
   vertex -1.500000 -0.213777 0.451995
   vertex 1.500000 -0.191342 0.461940
   vertex -1.500000 -0.191342 0.461940
  endloop
 endfacet
 facet normal 0.000000 -0.359883 0.932997
  outer loop
   vertex 1.500000 -0.168445 0.470772
   vertex -1.500000 -0.191342 0.461940
   vertex 1.500000 -0.191342 0.461940
  endloop
 endfacet
 facet normal 0.000000 -0.359883 0.932997
  outer loop
   vertex -1.500000 -0.191342 0.461940
   vertex 1.500000 -0.168445 0.470772
   vertex -1.500000 -0.168445 0.470772
  endloop
 endfacet
 facet normal 0.000000 -0.313672 0.949531
  outer loop
   vertex 1.500000 -0.145142 0.478470
   vertex -1.500000 -0.168445 0.470772
   vertex 1.500000 -0.168445 0.470772
  endloop
 endfacet
 facet normal 0.000000 -0.313672 0.949531
  outer loop
   vertex -1.500000 -0.168445 0.470772
   vertex 1.500000 -0.145142 0.478470
   vertex -1.500000 -0.145142 0.478470
  endloop
 endfacet
 facet normal 0.000000 -0.266735 0.963770
  outer loop
   vertex 1.500000 -0.121490 0.485016
   vertex -1.500000 -0.145142 0.478470
   vertex 1.500000 -0.145142 0.478470
  endloop
 endfacet
 facet normal 0.000000 -0.266735 0.963770
  outer loop
   vertex -1.500000 -0.145142 0.478470
   vertex 1.500000 -0.121490 0.485016
   vertex -1.500000 -0.121490 0.485016
  endloop
 endfacet
 facet normal 0.000000 -0.219101 0.975702
  outer loop
   vertex 1.500000 -0.097545 0.490393
   vertex -1.500000 -0.121490 0.485016
   vertex 1.500000 -0.121490 0.485016
  endloop
 endfacet
 facet normal 0.000000 -0.219101 0.975702
  outer loop
   vertex -1.500000 -0.121490 0.485016
   vertex 1.500000 -0.097545 0.490393
   vertex -1.500000 -0.097545 0.490393
  endloop
 endfacet
 facet normal 0.000000 -0.170936 0.985282
  outer loop
   vertex 1.500000 -0.073365 0.494588
   vertex -1.500000 -0.097545 0.490393
   vertex 1.500000 -0.097545 0.490393
  endloop
 endfacet
 facet normal 0.000000 -0.170936 0.985282
  outer loop
   vertex -1.500000 -0.097545 0.490393
   vertex 1.500000 -0.073365 0.494588
   vertex -1.500000 -0.073365 0.494588
  endloop
 endfacet
 facet normal 0.000000 -0.122405 0.992480
  outer loop
   vertex 1.500000 -0.049008 0.497592
   vertex -1.500000 -0.073365 0.494588
   vertex 1.500000 -0.073365 0.494588
  endloop
 endfacet
 facet normal 0.000000 -0.122405 0.992480
  outer loop
   vertex -1.500000 -0.073365 0.494588
   vertex 1.500000 -0.049008 0.497592
   vertex -1.500000 -0.049008 0.497592
  endloop
 endfacet
 facet normal 0.000000 -0.073592 0.997288
  outer loop
   vertex 1.500000 -0.024534 0.499398
   vertex -1.500000 -0.049008 0.497592
   vertex 1.500000 -0.049008 0.497592
  endloop
 endfacet
 facet normal 0.000000 -0.073592 0.997288
  outer loop
   vertex -1.500000 -0.049008 0.497592
   vertex 1.500000 -0.024534 0.499398
   vertex -1.500000 -0.024534 0.499398
  endloop
 endfacet
 facet normal 0.000000 -0.024530 0.999699
  outer loop
   vertex 1.500000 0.000000 0.500000
   vertex -1.500000 -0.024534 0.499398
   vertex 1.500000 -0.024534 0.499398
  endloop
 endfacet
 facet normal 0.000000 -0.024530 0.999699
  outer loop
   vertex -1.500000 -0.024534 0.499398
   vertex 1.500000 0.000000 0.500000
   vertex -1.500000 -0.000000 0.500000
  endloop
 endfacet
 facet normal -0.000000 0.024530 0.999699
  outer loop
   vertex 1.500000 0.024534 0.499398
   vertex -1.500000 -0.000000 0.500000
   vertex 1.500000 0.000000 0.500000
  endloop
 endfacet
 facet normal -0.000000 0.024530 0.999699
  outer loop
   vertex -1.500000 -0.000000 0.500000
   vertex 1.500000 0.024534 0.499398
   vertex -1.500000 0.024534 0.499398
  endloop
 endfacet
 facet normal -0.000000 0.073589 0.997289
  outer loop
   vertex 1.500000 0.049009 0.497592
   vertex -1.500000 0.024534 0.499398
   vertex 1.500000 0.024534 0.499398
  endloop
 endfacet
 facet normal -0.000000 0.073589 0.997289
  outer loop
   vertex -1.500000 0.024534 0.499398
   vertex 1.500000 0.049009 0.497592
   vertex -1.500000 0.049009 0.497592
  endloop
 endfacet
 facet normal -0.000000 0.122405 0.992480
  outer loop
   vertex 1.500000 0.073366 0.494588
   vertex -1.500000 0.049009 0.497592
   vertex 1.500000 0.049009 0.497592
  endloop
 endfacet
 facet normal -0.000000 0.122405 0.992480
  outer loop
   vertex -1.500000 0.049009 0.497592
   vertex 1.500000 0.073366 0.494588
   vertex -1.500000 0.073366 0.494588
  endloop
 endfacet
 facet normal -0.000000 0.170943 0.985281
  outer loop
   vertex 1.500000 0.097545 0.490393
   vertex -1.500000 0.073366 0.494588
   vertex 1.500000 0.073366 0.494588
  endloop
 endfacet
 facet normal -0.000000 0.170943 0.985281
  outer loop
   vertex -1.500000 0.073366 0.494588
   vertex 1.500000 0.097545 0.490393
   vertex -1.500000 0.097545 0.490393
  endloop
 endfacet
 facet normal -0.000000 0.219101 0.975702
  outer loop
   vertex 1.500000 0.121490 0.485016
   vertex -1.500000 0.097545 0.490393
   vertex 1.500000 0.097545 0.490393
  endloop
 endfacet
 facet normal -0.000000 0.219101 0.975702
  outer loop
   vertex -1.500000 0.097545 0.490393
   vertex 1.500000 0.121490 0.485016
   vertex -1.500000 0.121490 0.485016
  endloop
 endfacet
 facet normal -0.000000 0.266725 0.963773
  outer loop
   vertex 1.500000 0.145143 0.478470
   vertex -1.500000 0.121490 0.485016
   vertex 1.500000 0.121490 0.485016
  endloop
 endfacet
 facet normal -0.000000 0.266725 0.963773
  outer loop
   vertex -1.500000 0.121490 0.485016
   vertex 1.500000 0.145143 0.478470
   vertex -1.500000 0.145143 0.478470
  endloop
 endfacet
 facet normal -0.000000 0.313684 0.949527
  outer loop
   vertex 1.500000 0.168445 0.470772
   vertex -1.500000 0.145143 0.478470
   vertex 1.500000 0.145143 0.478470
  endloop
 endfacet
 facet normal -0.000000 0.313684 0.949527
  outer loop
   vertex -1.500000 0.145143 0.478470
   vertex 1.500000 0.168445 0.470772
   vertex -1.500000 0.168445 0.470772
  endloop
 endfacet
 facet normal -0.000000 0.359883 0.932997
  outer loop
   vertex 1.500000 0.191342 0.461940
   vertex -1.500000 0.168445 0.470772
   vertex 1.500000 0.168445 0.470772
  endloop
 endfacet
 facet normal -0.000000 0.359883 0.932997
  outer loop
   vertex -1.500000 0.168445 0.470772
   vertex 1.500000 0.191342 0.461940
   vertex -1.500000 0.191342 0.461940
  endloop
 endfacet
 facet normal -0.000000 0.405235 0.914213
  outer loop
   vertex 1.500000 0.213778 0.451995
   vertex -1.500000 0.191342 0.461940
   vertex 1.500000 0.191342 0.461940
  endloop
 endfacet
 facet normal -0.000000 0.405235 0.914213
  outer loop
   vertex -1.500000 0.191342 0.461940
   vertex 1.500000 0.213778 0.451995
   vertex -1.500000 0.213778 0.451995
  endloop
 endfacet
 facet normal -0.000000 0.449607 0.893226
  outer loop
   vertex 1.500000 0.235699 0.440961
   vertex -1.500000 0.213778 0.451995
   vertex 1.500000 0.213778 0.451995
  endloop
 endfacet
 facet normal -0.000000 0.449607 0.893226
  outer loop
   vertex -1.500000 0.213778 0.451995
   vertex 1.500000 0.235699 0.440961
   vertex -1.500000 0.235699 0.440961
  endloop
 endfacet
 facet normal -0.000000 0.492919 0.870075
  outer loop
   vertex 1.500000 0.257052 0.428864
   vertex -1.500000 0.235699 0.440961
   vertex 1.500000 0.235699 0.440961
  endloop
 endfacet
 facet normal -0.000000 0.492919 0.870075
  outer loop
   vertex -1.500000 0.235699 0.440961
   vertex 1.500000 0.257052 0.428864
   vertex -1.500000 0.257052 0.428864
  endloop
 endfacet
 facet normal -0.000000 0.534997 0.844854
  outer loop
   vertex 1.500000 0.277785 0.415735
   vertex -1.500000 0.257052 0.428864
   vertex 1.500000 0.257052 0.428864
  endloop
 endfacet
 facet normal -0.000000 0.534997 0.844854
  outer loop
   vertex -1.500000 0.257052 0.428864
   vertex 1.500000 0.277785 0.415735
   vertex -1.500000 0.277785 0.415735
  endloop
 endfacet
 facet normal -0.000000 0.575798 0.817592
  outer loop
   vertex 1.500000 0.297850 0.401604
   vertex -1.500000 0.277785 0.415735
   vertex 1.500000 0.277785 0.415735
  endloop
 endfacet
 facet normal -0.000000 0.575798 0.817592
  outer loop
   vertex -1.500000 0.277785 0.415735
   vertex 1.500000 0.297850 0.401604
   vertex -1.500000 0.297850 0.401604
  endloop
 endfacet
 facet normal -0.000000 0.615243 0.788337
  outer loop
   vertex 1.500000 0.317197 0.386505
   vertex -1.500000 0.297850 0.401604
   vertex 1.500000 0.297850 0.401604
  endloop
 endfacet
 facet normal -0.000000 0.615243 0.788337
  outer loop
   vertex -1.500000 0.297850 0.401604
   vertex 1.500000 0.317197 0.386505
   vertex -1.500000 0.317197 0.386505
  endloop
 endfacet
 facet normal -0.000000 0.653154 0.757225
  outer loop
   vertex 1.500000 0.335780 0.370476
   vertex -1.500000 0.317197 0.386505
   vertex 1.500000 0.317197 0.386505
  endloop
 endfacet
 facet normal -0.000000 0.653154 0.757225
  outer loop
   vertex -1.500000 0.317197 0.386505
   vertex 1.500000 0.335780 0.370476
   vertex -1.500000 0.335780 0.370476
  endloop
 endfacet
 facet normal -0.000000 0.689577 0.724212
  outer loop
   vertex 1.500000 0.353553 0.353553
   vertex -1.500000 0.335780 0.370476
   vertex 1.500000 0.335780 0.370476
  endloop
 endfacet
 facet normal -0.000000 0.689577 0.724212
  outer loop
   vertex -1.500000 0.335780 0.370476
   vertex 1.500000 0.353553 0.353553
   vertex -1.500000 0.353553 0.353553
  endloop
 endfacet
 facet normal -0.000000 0.724212 0.689577
  outer loop
   vertex -1.500000 0.370476 0.335780
   vertex 1.500000 0.353553 0.353553
   vertex 1.500000 0.370476 0.335780
  endloop
 endfacet
 facet normal -0.000000 0.724212 0.689577
  outer loop
   vertex 1.500000 0.353553 0.353553
   vertex -1.500000 0.370476 0.335780
   vertex -1.500000 0.353553 0.353553
  endloop
 endfacet
 facet normal -0.000000 0.757225 0.653154
  outer loop
   vertex -1.500000 0.386505 0.317197
   vertex 1.500000 0.370476 0.335780
   vertex 1.500000 0.386505 0.317197
  endloop
 endfacet
 facet normal -0.000000 0.757225 0.653154
  outer loop
   vertex 1.500000 0.370476 0.335780
   vertex -1.500000 0.386505 0.317197
   vertex -1.500000 0.370476 0.335780
  endloop
 endfacet
 facet normal -0.000000 0.788337 0.615243
  outer loop
   vertex -1.500000 0.401604 0.297850
   vertex 1.500000 0.386505 0.317197
   vertex 1.500000 0.401604 0.297850
  endloop
 endfacet
 facet normal -0.000000 0.788338 0.615242
  outer loop
   vertex 1.500000 0.386505 0.317197
   vertex -1.500000 0.401604 0.297850
   vertex -1.500000 0.386505 0.317197
  endloop
 endfacet
 facet normal -0.000000 0.817592 0.575798
  outer loop
   vertex -1.500000 0.415735 0.277785
   vertex 1.500000 0.401604 0.297850
   vertex 1.500000 0.415735 0.277785
  endloop
 endfacet
 facet normal -0.000000 0.817592 0.575798
  outer loop
   vertex 1.500000 0.401604 0.297850
   vertex -1.500000 0.415735 0.277785
   vertex -1.500000 0.401604 0.297850
  endloop
 endfacet
 facet normal -0.000000 0.844854 0.534997
  outer loop
   vertex -1.500000 0.428864 0.257052
   vertex 1.500000 0.415735 0.277785
   vertex 1.500000 0.428864 0.257052
  endloop
 endfacet
 facet normal -0.000000 0.844854 0.534997
  outer loop
   vertex 1.500000 0.415735 0.277785
   vertex -1.500000 0.428864 0.257052
   vertex -1.500000 0.415735 0.277785
  endloop
 endfacet
 facet normal -0.000000 0.870075 0.492919
  outer loop
   vertex -1.500000 0.440961 0.235699
   vertex 1.500000 0.428864 0.257052
   vertex 1.500000 0.440961 0.235699
  endloop
 endfacet
 facet normal -0.000000 0.870075 0.492919
  outer loop
   vertex 1.500000 0.428864 0.257052
   vertex -1.500000 0.440961 0.235699
   vertex -1.500000 0.428864 0.257052
  endloop
 endfacet
 facet normal -0.000000 0.893226 0.449607
  outer loop
   vertex -1.500000 0.451995 0.213778
   vertex 1.500000 0.440961 0.235699
   vertex 1.500000 0.451995 0.213778
  endloop
 endfacet
 facet normal -0.000000 0.893226 0.449607
  outer loop
   vertex 1.500000 0.440961 0.235699
   vertex -1.500000 0.451995 0.213778
   vertex -1.500000 0.440961 0.235699
  endloop
 endfacet
 facet normal -0.000000 0.914213 0.405235
  outer loop
   vertex -1.500000 0.461940 0.191342
   vertex 1.500000 0.451995 0.213778
   vertex 1.500000 0.461940 0.191342
  endloop
 endfacet
 facet normal -0.000000 0.914213 0.405235
  outer loop
   vertex 1.500000 0.451995 0.213778
   vertex -1.500000 0.461940 0.191342
   vertex -1.500000 0.451995 0.213778
  endloop
 endfacet
 facet normal -0.000000 0.932997 0.359883
  outer loop
   vertex -1.500000 0.470772 0.168445
   vertex 1.500000 0.461940 0.191342
   vertex 1.500000 0.470772 0.168445
  endloop
 endfacet
 facet normal -0.000000 0.932997 0.359883
  outer loop
   vertex 1.500000 0.461940 0.191342
   vertex -1.500000 0.470772 0.168445
   vertex -1.500000 0.461940 0.191342
  endloop
 endfacet
 facet normal -0.000000 0.949528 0.313684
  outer loop
   vertex -1.500000 0.478470 0.145143
   vertex 1.500000 0.470772 0.168445
   vertex 1.500000 0.478470 0.145143
  endloop
 endfacet
 facet normal -0.000000 0.949528 0.313684
  outer loop
   vertex 1.500000 0.470772 0.168445
   vertex -1.500000 0.478470 0.145143
   vertex -1.500000 0.470772 0.168445
  endloop
 endfacet
 facet normal -0.000000 0.963770 0.266735
  outer loop
   vertex -1.500000 0.485016 0.121491
   vertex 1.500000 0.478470 0.145143
   vertex 1.500000 0.485016 0.121491
  endloop
 endfacet
 facet normal -0.000000 0.963770 0.266735
  outer loop
   vertex 1.500000 0.478470 0.145143
   vertex -1.500000 0.485016 0.121491
   vertex -1.500000 0.478470 0.145143
  endloop
 endfacet
 facet normal -0.000000 0.975702 0.219101
  outer loop
   vertex -1.500000 0.490393 0.097546
   vertex 1.500000 0.485016 0.121491
   vertex 1.500000 0.490393 0.097546
  endloop
 endfacet
 facet normal -0.000000 0.975702 0.219101
  outer loop
   vertex 1.500000 0.485016 0.121491
   vertex -1.500000 0.490393 0.097546
   vertex -1.500000 0.485016 0.121491
  endloop
 endfacet
 facet normal -0.000000 0.985282 0.170936
  outer loop
   vertex -1.500000 0.494588 0.073366
   vertex 1.500000 0.490393 0.097546
   vertex 1.500000 0.494588 0.073366
  endloop
 endfacet
 facet normal -0.000000 0.985282 0.170936
  outer loop
   vertex 1.500000 0.490393 0.097546
   vertex -1.500000 0.494588 0.073366
   vertex -1.500000 0.490393 0.097546
  endloop
 endfacet
 facet normal -0.000000 0.992480 0.122405
  outer loop
   vertex -1.500000 0.497592 0.049009
   vertex 1.500000 0.494588 0.073366
   vertex 1.500000 0.497592 0.049009
  endloop
 endfacet
 facet normal -0.000000 0.992480 0.122405
  outer loop
   vertex 1.500000 0.494588 0.073366
   vertex -1.500000 0.497592 0.049009
   vertex -1.500000 0.494588 0.073366
  endloop
 endfacet
 facet normal -0.000000 0.997288 0.073592
  outer loop
   vertex -1.500000 0.499398 0.024535
   vertex 1.500000 0.497592 0.049009
   vertex 1.500000 0.499398 0.024535
  endloop
 endfacet
 facet normal -0.000000 0.997288 0.073592
  outer loop
   vertex 1.500000 0.497592 0.049009
   vertex -1.500000 0.499398 0.024535
   vertex -1.500000 0.497592 0.049009
  endloop
 endfacet
 facet normal -0.000000 0.999699 0.024529
  outer loop
   vertex -1.500000 0.500000 0.000001
   vertex 1.500000 0.499398 0.024535
   vertex 1.500000 0.500000 0.000001
  endloop
 endfacet
 facet normal -0.000000 0.999699 0.024530
  outer loop
   vertex 1.500000 0.499398 0.024535
   vertex -1.500000 0.500000 0.000001
   vertex -1.500000 0.499398 0.024535
  endloop
 endfacet
 facet normal -0.000000 0.999699 -0.024529
  outer loop
   vertex -1.500000 0.499398 -0.024533
   vertex 1.500000 0.500000 0.000001
   vertex 1.500000 0.499398 -0.024533
  endloop
 endfacet
 facet normal -0.000000 0.999699 -0.024530
  outer loop
   vertex 1.500000 0.500000 0.000001
   vertex -1.500000 0.499398 -0.024533
   vertex -1.500000 0.500000 0.000001
  endloop
 endfacet
 facet normal -0.000000 0.997292 -0.073549
  outer loop
   vertex -1.500000 0.497593 -0.049008
   vertex 1.500000 0.499398 -0.024533
   vertex 1.500000 0.497593 -0.049008
  endloop
 endfacet
 facet normal -0.000000 0.997292 -0.073549
  outer loop
   vertex 1.500000 0.499398 -0.024533
   vertex -1.500000 0.497593 -0.049008
   vertex -1.500000 0.499398 -0.024533
  endloop
 endfacet
 facet normal -0.000000 0.992480 -0.122409
  outer loop
   vertex -1.500000 0.494589 -0.073364
   vertex 1.500000 0.497593 -0.049008
   vertex 1.500000 0.494589 -0.073364
  endloop
 endfacet
 facet normal -0.000000 0.992480 -0.122409
  outer loop
   vertex 1.500000 0.497593 -0.049008
   vertex -1.500000 0.494589 -0.073364
   vertex -1.500000 0.497593 -0.049008
  endloop
 endfacet
 facet normal -0.000000 0.985275 -0.170976
  outer loop
   vertex -1.500000 0.490393 -0.097544
   vertex 1.500000 0.494589 -0.073364
   vertex 1.500000 0.490393 -0.097544
  endloop
 endfacet
 facet normal -0.000000 0.985275 -0.170976
  outer loop
   vertex 1.500000 0.494589 -0.073364
   vertex -1.500000 0.490393 -0.097544
   vertex -1.500000 0.494589 -0.073364
  endloop
 endfacet
 facet normal -0.000000 0.975702 -0.219101
  outer loop
   vertex -1.500000 0.485016 -0.121489
   vertex 1.500000 0.490393 -0.097544
   vertex 1.500000 0.485016 -0.121489
  endloop
 endfacet
 facet normal -0.000000 0.975702 -0.219101
  outer loop
   vertex 1.500000 0.490393 -0.097544
   vertex -1.500000 0.485016 -0.121489
   vertex -1.500000 0.490393 -0.097544
  endloop
 endfacet
 facet normal -0.000000 0.963780 -0.266697
  outer loop
   vertex -1.500000 0.478471 -0.145141
   vertex 1.500000 0.485016 -0.121489
   vertex 1.500000 0.478471 -0.145141
  endloop
 endfacet
 facet normal -0.000000 0.963780 -0.266697
  outer loop
   vertex 1.500000 0.485016 -0.121489
   vertex -1.500000 0.478471 -0.145141
   vertex -1.500000 0.485016 -0.121489
  endloop
 endfacet
 facet normal -0.000000 0.949531 -0.313672
  outer loop
   vertex -1.500000 0.470773 -0.168444
   vertex 1.500000 0.478471 -0.145141
   vertex 1.500000 0.470773 -0.168444
  endloop
 endfacet
 facet normal -0.000000 0.949531 -0.313672
  outer loop
   vertex 1.500000 0.478471 -0.145141
   vertex -1.500000 0.470773 -0.168444
   vertex -1.500000 0.478471 -0.145141
  endloop
 endfacet
 facet normal -0.000000 0.932984 -0.359919
  outer loop
   vertex -1.500000 0.461940 -0.191341
   vertex 1.500000 0.470773 -0.168444
   vertex 1.500000 0.461940 -0.191341
  endloop
 endfacet
 facet normal -0.000000 0.932984 -0.359919
  outer loop
   vertex 1.500000 0.470773 -0.168444
   vertex -1.500000 0.461940 -0.191341
   vertex -1.500000 0.470773 -0.168444
  endloop
 endfacet
 facet normal -0.000000 0.914206 -0.405250
  outer loop
   vertex -1.500000 0.451995 -0.213776
   vertex 1.500000 0.461940 -0.191341
   vertex 1.500000 0.451995 -0.213776
  endloop
 endfacet
 facet normal -0.000000 0.914206 -0.405250
  outer loop
   vertex 1.500000 0.461940 -0.191341
   vertex -1.500000 0.451995 -0.213776
   vertex -1.500000 0.461940 -0.191341
  endloop
 endfacet
 facet normal -0.000000 0.893226 -0.449607
  outer loop
   vertex -1.500000 0.440961 -0.235697
   vertex 1.500000 0.451995 -0.213776
   vertex 1.500000 0.440961 -0.235697
  endloop
 endfacet
 facet normal -0.000000 0.893226 -0.449607
  outer loop
   vertex 1.500000 0.451995 -0.213776
   vertex -1.500000 0.440961 -0.235697
   vertex -1.500000 0.451995 -0.213776
  endloop
 endfacet
 facet normal -0.000000 0.870092 -0.492889
  outer loop
   vertex -1.500000 0.428865 -0.257050
   vertex 1.500000 0.440961 -0.235697
   vertex 1.500000 0.428865 -0.257050
  endloop
 endfacet
 facet normal -0.000000 0.870092 -0.492889
  outer loop
   vertex 1.500000 0.440961 -0.235697
   vertex -1.500000 0.428865 -0.257050
   vertex -1.500000 0.440961 -0.235697
  endloop
 endfacet
 facet normal -0.000000 0.844866 -0.534979
  outer loop
   vertex -1.500000 0.415736 -0.277784
   vertex 1.500000 0.428865 -0.257050
   vertex 1.500000 0.415736 -0.277784
  endloop
 endfacet
 facet normal -0.000000 0.844866 -0.534979
  outer loop
   vertex 1.500000 0.428865 -0.257050
   vertex -1.500000 0.415736 -0.277784
   vertex -1.500000 0.428865 -0.257050
  endloop
 endfacet
 facet normal -0.000000 0.817579 -0.575817
  outer loop
   vertex -1.500000 0.401605 -0.297848
   vertex 1.500000 0.415736 -0.277784
   vertex 1.500000 0.401605 -0.297848
  endloop
 endfacet
 facet normal -0.000000 0.817579 -0.575817
  outer loop
   vertex 1.500000 0.415736 -0.277784
   vertex -1.500000 0.401605 -0.297848
   vertex -1.500000 0.415736 -0.277784
  endloop
 endfacet
 facet normal -0.000000 0.788337 -0.615243
  outer loop
   vertex -1.500000 0.386506 -0.317195
   vertex 1.500000 0.401605 -0.297848
   vertex 1.500000 0.386506 -0.317195
  endloop
 endfacet
 facet normal -0.000000 0.788338 -0.615243
  outer loop
   vertex 1.500000 0.401605 -0.297848
   vertex -1.500000 0.386506 -0.317195
   vertex -1.500000 0.401605 -0.297848
  endloop
 endfacet
 facet normal -0.000000 0.757225 -0.653154
  outer loop
   vertex -1.500000 0.370477 -0.335778
   vertex 1.500000 0.386506 -0.317195
   vertex 1.500000 0.370477 -0.335778
  endloop
 endfacet
 facet normal -0.000000 0.757225 -0.653154
  outer loop
   vertex 1.500000 0.386506 -0.317195
   vertex -1.500000 0.370477 -0.335778
   vertex -1.500000 0.386506 -0.317195
  endloop
 endfacet
 facet normal -0.000000 0.724253 -0.689535
  outer loop
   vertex -1.500000 0.353555 -0.353552
   vertex 1.500000 0.370477 -0.335778
   vertex 1.500000 0.353555 -0.353552
  endloop
 endfacet
 facet normal -0.000000 0.724253 -0.689535
  outer loop
   vertex 1.500000 0.370477 -0.335778
   vertex -1.500000 0.353555 -0.353552
   vertex -1.500000 0.370477 -0.335778
  endloop
 endfacet
 facet normal -0.000000 0.689535 -0.724252
  outer loop
   vertex -1.500000 0.353555 -0.353552
   vertex 1.500000 0.335781 -0.370474
   vertex -1.500000 0.335781 -0.370474
  endloop
 endfacet
 facet normal -0.000000 0.689535 -0.724252
  outer loop
   vertex 1.500000 0.335781 -0.370474
   vertex -1.500000 0.353555 -0.353552
   vertex 1.500000 0.353555 -0.353552
  endloop
 endfacet
 facet normal -0.000000 0.653177 -0.757205
  outer loop
   vertex -1.500000 0.335781 -0.370474
   vertex 1.500000 0.317198 -0.386504
   vertex -1.500000 0.317198 -0.386504
  endloop
 endfacet
 facet normal -0.000000 0.653177 -0.757205
  outer loop
   vertex 1.500000 0.317198 -0.386504
   vertex -1.500000 0.335781 -0.370474
   vertex 1.500000 0.335781 -0.370474
  endloop
 endfacet
 facet normal -0.000000 0.615243 -0.788337
  outer loop
   vertex -1.500000 0.317198 -0.386504
   vertex 1.500000 0.297851 -0.401603
   vertex -1.500000 0.297851 -0.401603
  endloop
 endfacet
 facet normal -0.000000 0.615243 -0.788337
  outer loop
   vertex 1.500000 0.297851 -0.401603
   vertex -1.500000 0.317198 -0.386504
   vertex 1.500000 0.317198 -0.386504
  endloop
 endfacet
 facet normal -0.000000 0.575817 -0.817579
  outer loop
   vertex -1.500000 0.297851 -0.401603
   vertex 1.500000 0.277787 -0.415734
   vertex -1.500000 0.277787 -0.415734
  endloop
 endfacet
 facet normal -0.000000 0.575817 -0.817579
  outer loop
   vertex 1.500000 0.277787 -0.415734
   vertex -1.500000 0.297851 -0.401603
   vertex 1.500000 0.297851 -0.401603
  endloop
 endfacet
 facet normal -0.000000 0.535008 -0.844847
  outer loop
   vertex -1.500000 0.277787 -0.415734
   vertex 1.500000 0.257053 -0.428864
   vertex -1.500000 0.257053 -0.428864
  endloop
 endfacet
 facet normal -0.000000 0.535008 -0.844847
  outer loop
   vertex 1.500000 0.257053 -0.428864
   vertex -1.500000 0.277787 -0.415734
   vertex 1.500000 0.277787 -0.415734
  endloop
 endfacet
 facet normal -0.000000 0.492888 -0.870093
  outer loop
   vertex -1.500000 0.257053 -0.428864
   vertex 1.500000 0.235700 -0.440960
   vertex -1.500000 0.235700 -0.440960
  endloop
 endfacet
 facet normal -0.000000 0.492888 -0.870093
  outer loop
   vertex 1.500000 0.235700 -0.440960
   vertex -1.500000 0.257053 -0.428864
   vertex 1.500000 0.257053 -0.428864
  endloop
 endfacet
 facet normal -0.000000 0.449608 -0.893226
  outer loop
   vertex -1.500000 0.235700 -0.440960
   vertex 1.500000 0.213779 -0.451994
   vertex -1.500000 0.213779 -0.451994
  endloop
 endfacet
 facet normal -0.000000 0.449608 -0.893226
  outer loop
   vertex 1.500000 0.213779 -0.451994
   vertex -1.500000 0.235700 -0.440960
   vertex 1.500000 0.235700 -0.440960
  endloop
 endfacet
 facet normal -0.000000 0.405235 -0.914213
  outer loop
   vertex -1.500000 0.213779 -0.451994
   vertex 1.500000 0.191343 -0.461939
   vertex -1.500000 0.191343 -0.461939
  endloop
 endfacet
 facet normal -0.000000 0.405235 -0.914213
  outer loop
   vertex 1.500000 0.191343 -0.461939
   vertex -1.500000 0.213779 -0.451994
   vertex 1.500000 0.213779 -0.451994
  endloop
 endfacet
 facet normal -0.000000 0.359918 -0.932984
  outer loop
   vertex -1.500000 0.191343 -0.461939
   vertex 1.500000 0.168446 -0.470772
   vertex -1.500000 0.168446 -0.470772
  endloop
 endfacet
 facet normal -0.000000 0.359918 -0.932984
  outer loop
   vertex 1.500000 0.168446 -0.470772
   vertex -1.500000 0.191343 -0.461939
   vertex 1.500000 0.191343 -0.461939
  endloop
 endfacet
 facet normal -0.000000 0.313684 -0.949527
  outer loop
   vertex -1.500000 0.168446 -0.470772
   vertex 1.500000 0.145144 -0.478470
   vertex -1.500000 0.145144 -0.478470
  endloop
 endfacet
 facet normal -0.000000 0.313684 -0.949527
  outer loop
   vertex 1.500000 0.145144 -0.478470
   vertex -1.500000 0.168446 -0.470772
   vertex 1.500000 0.168446 -0.470772
  endloop
 endfacet
 facet normal -0.000000 0.266688 -0.963783
  outer loop
   vertex -1.500000 0.145144 -0.478470
   vertex 1.500000 0.121491 -0.485015
   vertex -1.500000 0.121491 -0.485015
  endloop
 endfacet
 facet normal -0.000000 0.266688 -0.963783
  outer loop
   vertex 1.500000 0.121491 -0.485015
   vertex -1.500000 0.145144 -0.478470
   vertex 1.500000 0.145144 -0.478470
  endloop
 endfacet
 facet normal -0.000000 0.219100 -0.975702
  outer loop
   vertex -1.500000 0.121491 -0.485015
   vertex 1.500000 0.097546 -0.490392
   vertex -1.500000 0.097546 -0.490392
  endloop
 endfacet
 facet normal -0.000000 0.219100 -0.975702
  outer loop
   vertex 1.500000 0.097546 -0.490392
   vertex -1.500000 0.121491 -0.485015
   vertex 1.500000 0.121491 -0.485015
  endloop
 endfacet
 facet normal -0.000000 0.170976 -0.985275
  outer loop
   vertex -1.500000 0.097546 -0.490392
   vertex 1.500000 0.073366 -0.494588
   vertex -1.500000 0.073366 -0.494588
  endloop
 endfacet
 facet normal -0.000000 0.170976 -0.985275
  outer loop
   vertex 1.500000 0.073366 -0.494588
   vertex -1.500000 0.097546 -0.490392
   vertex 1.500000 0.097546 -0.490392
  endloop
 endfacet
 facet normal -0.000000 0.122410 -0.992480
  outer loop
   vertex -1.500000 0.073366 -0.494588
   vertex 1.500000 0.049010 -0.497592
   vertex -1.500000 0.049010 -0.497592
  endloop
 endfacet
 facet normal -0.000000 0.122410 -0.992480
  outer loop
   vertex 1.500000 0.049010 -0.497592
   vertex -1.500000 0.073366 -0.494588
   vertex 1.500000 0.073366 -0.494588
  endloop
 endfacet
 facet normal -0.000000 0.073589 -0.997289
  outer loop
   vertex -1.500000 0.049010 -0.497592
   vertex 1.500000 0.024535 -0.499398
   vertex -1.500000 0.024535 -0.499398
  endloop
 endfacet
 facet normal -0.000000 0.073589 -0.997289
  outer loop
   vertex 1.500000 0.024535 -0.499398
   vertex -1.500000 0.049010 -0.497592
   vertex 1.500000 0.049010 -0.497592
  endloop
 endfacet
 facet normal -0.000000 0.024530 -0.999699
  outer loop
   vertex -1.500000 0.024535 -0.499398
   vertex 1.500000 0.000001 -0.500000
   vertex -1.500000 0.000001 -0.500000
  endloop
 endfacet
 facet normal -0.000000 0.024530 -0.999699
  outer loop
   vertex 1.500000 0.000001 -0.500000
   vertex -1.500000 0.024535 -0.499398
   vertex 1.500000 0.024535 -0.499398
  endloop
 endfacet
 facet normal 0.000000 -0.024530 -0.999699
  outer loop
   vertex -1.500000 0.000001 -0.500000
   vertex 1.500000 -0.024533 -0.499398
   vertex -1.500000 -0.024533 -0.499398
  endloop
 endfacet
 facet normal 0.000000 -0.024530 -0.999699
  outer loop
   vertex 1.500000 -0.024533 -0.499398
   vertex -1.500000 0.000001 -0.500000
   vertex 1.500000 0.000001 -0.500000
  endloop
 endfacet
 facet normal 0.000000 -0.073589 -0.997289
  outer loop
   vertex -1.500000 -0.024533 -0.499398
   vertex 1.500000 -0.049008 -0.497592
   vertex -1.500000 -0.049008 -0.497592
  endloop
 endfacet
 facet normal 0.000000 -0.073589 -0.997289
  outer loop
   vertex 1.500000 -0.049008 -0.497592
   vertex -1.500000 -0.024533 -0.499398
   vertex 1.500000 -0.024533 -0.499398
  endloop
 endfacet
 facet normal 0.000000 -0.122405 -0.992480
  outer loop
   vertex -1.500000 -0.049008 -0.497592
   vertex 1.500000 -0.073365 -0.494588
   vertex -1.500000 -0.073365 -0.494588
  endloop
 endfacet
 facet normal 0.000000 -0.122405 -0.992480
  outer loop
   vertex 1.500000 -0.073365 -0.494588
   vertex -1.500000 -0.049008 -0.497592
   vertex 1.500000 -0.049008 -0.497592
  endloop
 endfacet
 facet normal 0.000000 -0.170936 -0.985282
  outer loop
   vertex -1.500000 -0.073365 -0.494588
   vertex 1.500000 -0.097545 -0.490393
   vertex -1.500000 -0.097545 -0.490393
  endloop
 endfacet
 facet normal 0.000000 -0.170936 -0.985282
  outer loop
   vertex 1.500000 -0.097545 -0.490393
   vertex -1.500000 -0.073365 -0.494588
   vertex 1.500000 -0.073365 -0.494588
  endloop
 endfacet
 facet normal 0.000000 -0.219101 -0.975702
  outer loop
   vertex -1.500000 -0.097545 -0.490393
   vertex 1.500000 -0.121490 -0.485016
   vertex -1.500000 -0.121490 -0.485016
  endloop
 endfacet
 facet normal 0.000000 -0.219101 -0.975702
  outer loop
   vertex 1.500000 -0.121490 -0.485016
   vertex -1.500000 -0.097545 -0.490393
   vertex 1.500000 -0.097545 -0.490393
  endloop
 endfacet
 facet normal 0.000000 -0.266735 -0.963770
  outer loop
   vertex -1.500000 -0.121490 -0.485016
   vertex 1.500000 -0.145142 -0.478470
   vertex -1.500000 -0.145142 -0.478470
  endloop
 endfacet
 facet normal 0.000000 -0.266735 -0.963770
  outer loop
   vertex 1.500000 -0.145142 -0.478470
   vertex -1.500000 -0.121490 -0.485016
   vertex 1.500000 -0.121490 -0.485016
  endloop
 endfacet
 facet normal 0.000000 -0.313672 -0.949531
  outer loop
   vertex -1.500000 -0.145142 -0.478470
   vertex 1.500000 -0.168445 -0.470772
   vertex -1.500000 -0.168445 -0.470772
  endloop
 endfacet
 facet normal 0.000000 -0.313672 -0.949531
  outer loop
   vertex 1.500000 -0.168445 -0.470772
   vertex -1.500000 -0.145142 -0.478470
   vertex 1.500000 -0.145142 -0.478470
  endloop
 endfacet
 facet normal 0.000000 -0.359897 -0.932992
  outer loop
   vertex -1.500000 -0.168445 -0.470772
   vertex 1.500000 -0.191341 -0.461940
   vertex -1.500000 -0.191341 -0.461940
  endloop
 endfacet
 facet normal 0.000000 -0.359897 -0.932992
  outer loop
   vertex 1.500000 -0.191341 -0.461940
   vertex -1.500000 -0.168445 -0.470772
   vertex 1.500000 -0.168445 -0.470772
  endloop
 endfacet
 facet normal 0.000000 -0.405235 -0.914213
  outer loop
   vertex -1.500000 -0.191341 -0.461940
   vertex 1.500000 -0.213777 -0.451995
   vertex -1.500000 -0.213777 -0.451995
  endloop
 endfacet
 facet normal 0.000000 -0.405235 -0.914213
  outer loop
   vertex 1.500000 -0.213777 -0.451995
   vertex -1.500000 -0.191341 -0.461940
   vertex 1.500000 -0.191341 -0.461940
  endloop
 endfacet
 facet normal 0.000000 -0.449607 -0.893226
  outer loop
   vertex -1.500000 -0.213777 -0.451995
   vertex 1.500000 -0.235698 -0.440961
   vertex -1.500000 -0.235698 -0.440961
  endloop
 endfacet
 facet normal 0.000000 -0.449607 -0.893226
  outer loop
   vertex 1.500000 -0.235698 -0.440961
   vertex -1.500000 -0.213777 -0.451995
   vertex 1.500000 -0.213777 -0.451995
  endloop
 endfacet
 facet normal 0.000000 -0.492919 -0.870075
  outer loop
   vertex -1.500000 -0.235698 -0.440961
   vertex 1.500000 -0.257051 -0.428864
   vertex -1.500000 -0.257051 -0.428864
  endloop
 endfacet
 facet normal 0.000000 -0.492919 -0.870075
  outer loop
   vertex 1.500000 -0.257051 -0.428864
   vertex -1.500000 -0.235698 -0.440961
   vertex 1.500000 -0.235698 -0.440961
  endloop
 endfacet
 facet normal 0.000000 -0.534978 -0.844866
  outer loop
   vertex -1.500000 -0.257051 -0.428864
   vertex 1.500000 -0.277785 -0.415735
   vertex -1.500000 -0.277785 -0.415735
  endloop
 endfacet
 facet normal 0.000000 -0.534978 -0.844866
  outer loop
   vertex 1.500000 -0.277785 -0.415735
   vertex -1.500000 -0.257051 -0.428864
   vertex 1.500000 -0.257051 -0.428864
  endloop
 endfacet
 facet normal 0.000000 -0.575798 -0.817592
  outer loop
   vertex -1.500000 -0.277785 -0.415735
   vertex 1.500000 -0.297850 -0.401604
   vertex -1.500000 -0.297850 -0.401604
  endloop
 endfacet
 facet normal 0.000000 -0.575798 -0.817592
  outer loop
   vertex 1.500000 -0.297850 -0.401604
   vertex -1.500000 -0.277785 -0.415735
   vertex 1.500000 -0.277785 -0.415735
  endloop
 endfacet
 facet normal 0.000000 -0.615243 -0.788337
  outer loop
   vertex -1.500000 -0.297850 -0.401604
   vertex 1.500000 -0.317197 -0.386505
   vertex -1.500000 -0.317197 -0.386505
  endloop
 endfacet
 facet normal 0.000000 -0.615243 -0.788337
  outer loop
   vertex 1.500000 -0.317197 -0.386505
   vertex -1.500000 -0.297850 -0.401604
   vertex 1.500000 -0.297850 -0.401604
  endloop
 endfacet
 facet normal 0.000000 -0.653178 -0.757205
  outer loop
   vertex -1.500000 -0.317197 -0.386505
   vertex 1.500000 -0.335780 -0.370475
   vertex -1.500000 -0.335780 -0.370475
  endloop
 endfacet
 facet normal 0.000000 -0.653178 -0.757205
  outer loop
   vertex 1.500000 -0.335780 -0.370475
   vertex -1.500000 -0.317197 -0.386505
   vertex 1.500000 -0.317197 -0.386505
  endloop
 endfacet
 facet normal 0.000000 -0.689535 -0.724253
  outer loop
   vertex -1.500000 -0.335780 -0.370475
   vertex 1.500000 -0.353554 -0.353553
   vertex -1.500000 -0.353554 -0.353553
  endloop
 endfacet
 facet normal 0.000000 -0.689535 -0.724253
  outer loop
   vertex 1.500000 -0.353554 -0.353553
   vertex -1.500000 -0.335780 -0.370475
   vertex 1.500000 -0.335780 -0.370475
  endloop
 endfacet
 facet normal 0.000000 -0.724252 -0.689535
  outer loop
   vertex -1.500000 -0.370476 -0.335779
   vertex 1.500000 -0.353554 -0.353553
   vertex 1.500000 -0.370476 -0.335779
  endloop
 endfacet
 facet normal 0.000000 -0.724252 -0.689535
  outer loop
   vertex 1.500000 -0.353554 -0.353553
   vertex -1.500000 -0.370476 -0.335779
   vertex -1.500000 -0.353554 -0.353553
  endloop
 endfacet
 facet normal 0.000000 -0.757205 -0.653177
  outer loop
   vertex -1.500000 -0.386506 -0.317196
   vertex 1.500000 -0.370476 -0.335779
   vertex 1.500000 -0.386506 -0.317196
  endloop
 endfacet
 facet normal 0.000000 -0.757205 -0.653177
  outer loop
   vertex 1.500000 -0.370476 -0.335779
   vertex -1.500000 -0.386506 -0.317196
   vertex -1.500000 -0.370476 -0.335779
  endloop
 endfacet
 facet normal 0.000000 -0.788358 -0.615217
  outer loop
   vertex -1.500000 -0.401604 -0.297849
   vertex 1.500000 -0.386506 -0.317196
   vertex 1.500000 -0.401604 -0.297849
  endloop
 endfacet
 facet normal 0.000000 -0.788357 -0.615218
  outer loop
   vertex 1.500000 -0.386506 -0.317196
   vertex -1.500000 -0.401604 -0.297849
   vertex -1.500000 -0.386506 -0.317196
  endloop
 endfacet
 facet normal 0.000000 -0.817578 -0.575818
  outer loop
   vertex -1.500000 -0.415735 -0.277785
   vertex 1.500000 -0.401604 -0.297849
   vertex 1.500000 -0.415735 -0.277785
  endloop
 endfacet
 facet normal 0.000000 -0.817578 -0.575818
  outer loop
   vertex 1.500000 -0.401604 -0.297849
   vertex -1.500000 -0.415735 -0.277785
   vertex -1.500000 -0.401604 -0.297849
  endloop
 endfacet
 facet normal 0.000000 -0.844848 -0.535007
  outer loop
   vertex -1.500000 -0.428865 -0.257051
   vertex 1.500000 -0.415735 -0.277785
   vertex 1.500000 -0.428865 -0.257051
  endloop
 endfacet
 facet normal 0.000000 -0.844848 -0.535007
  outer loop
   vertex 1.500000 -0.415735 -0.277785
   vertex -1.500000 -0.428865 -0.257051
   vertex -1.500000 -0.415735 -0.277785
  endloop
 endfacet
 facet normal 0.000000 -0.870092 -0.492889
  outer loop
   vertex -1.500000 -0.440961 -0.235698
   vertex 1.500000 -0.428865 -0.257051
   vertex 1.500000 -0.440961 -0.235698
  endloop
 endfacet
 facet normal 0.000000 -0.870092 -0.492889
  outer loop
   vertex 1.500000 -0.428865 -0.257051
   vertex -1.500000 -0.440961 -0.235698
   vertex -1.500000 -0.428865 -0.257051
  endloop
 endfacet
 facet normal 0.000000 -0.893226 -0.449607
  outer loop
   vertex -1.500000 -0.451995 -0.213777
   vertex 1.500000 -0.440961 -0.235698
   vertex 1.500000 -0.451995 -0.213777
  endloop
 endfacet
 facet normal 0.000000 -0.893226 -0.449607
  outer loop
   vertex 1.500000 -0.440961 -0.235698
   vertex -1.500000 -0.451995 -0.213777
   vertex -1.500000 -0.440961 -0.235698
  endloop
 endfacet
 facet normal 0.000000 -0.914213 -0.405235
  outer loop
   vertex -1.500000 -0.461940 -0.191341
   vertex 1.500000 -0.451995 -0.213777
   vertex 1.500000 -0.461940 -0.191341
  endloop
 endfacet
 facet normal 0.000000 -0.914213 -0.405235
  outer loop
   vertex 1.500000 -0.451995 -0.213777
   vertex -1.500000 -0.461940 -0.191341
   vertex -1.500000 -0.451995 -0.213777
  endloop
 endfacet
 facet normal 0.000000 -0.932998 -0.359883
  outer loop
   vertex -1.500000 -0.470772 -0.168444
   vertex 1.500000 -0.461940 -0.191341
   vertex 1.500000 -0.470772 -0.168444
  endloop
 endfacet
 facet normal 0.000000 -0.932998 -0.359883
  outer loop
   vertex 1.500000 -0.461940 -0.191341
   vertex -1.500000 -0.470772 -0.168444
   vertex -1.500000 -0.461940 -0.191341
  endloop
 endfacet
 facet normal 0.000000 -0.949531 -0.313672
  outer loop
   vertex -1.500000 -0.478470 -0.145141
   vertex 1.500000 -0.470772 -0.168444
   vertex 1.500000 -0.478470 -0.145141
  endloop
 endfacet
 facet normal 0.000000 -0.949531 -0.313672
  outer loop
   vertex 1.500000 -0.470772 -0.168444
   vertex -1.500000 -0.478470 -0.145141
   vertex -1.500000 -0.470772 -0.168444
  endloop
 endfacet
 facet normal 0.000000 -0.963770 -0.266735
  outer loop
   vertex -1.500000 -0.485016 -0.121489
   vertex 1.500000 -0.478470 -0.145141
   vertex 1.500000 -0.485016 -0.121489
  endloop
 endfacet
 facet normal 0.000000 -0.963770 -0.266735
  outer loop
   vertex 1.500000 -0.478470 -0.145141
   vertex -1.500000 -0.485016 -0.121489
   vertex -1.500000 -0.478470 -0.145141
  endloop
 endfacet
 facet normal 0.000000 -0.975702 -0.219101
  outer loop
   vertex -1.500000 -0.490393 -0.097544
   vertex 1.500000 -0.485016 -0.121489
   vertex 1.500000 -0.490393 -0.097544
  endloop
 endfacet
 facet normal 0.000000 -0.975702 -0.219101
  outer loop
   vertex 1.500000 -0.485016 -0.121489
   vertex -1.500000 -0.490393 -0.097544
   vertex -1.500000 -0.485016 -0.121489
  endloop
 endfacet
 facet normal 0.000000 -0.985282 -0.170936
  outer loop
   vertex -1.500000 -0.494588 -0.073364
   vertex 1.500000 -0.490393 -0.097544
   vertex 1.500000 -0.494588 -0.073364
  endloop
 endfacet
 facet normal 0.000000 -0.985282 -0.170936
  outer loop
   vertex 1.500000 -0.490393 -0.097544
   vertex -1.500000 -0.494588 -0.073364
   vertex -1.500000 -0.490393 -0.097544
  endloop
 endfacet
 facet normal 0.000000 -0.992480 -0.122405
  outer loop
   vertex -1.500000 -0.497592 -0.049007
   vertex 1.500000 -0.494588 -0.073364
   vertex 1.500000 -0.497592 -0.049007
  endloop
 endfacet
 facet normal 0.000000 -0.992480 -0.122405
  outer loop
   vertex 1.500000 -0.494588 -0.073364
   vertex -1.500000 -0.497592 -0.049007
   vertex -1.500000 -0.494588 -0.073364
  endloop
 endfacet
 facet normal 0.000000 -0.997289 -0.073589
  outer loop
   vertex -1.500000 -0.499398 -0.024532
   vertex 1.500000 -0.497592 -0.049007
   vertex 1.500000 -0.499398 -0.024532
  endloop
 endfacet
 facet normal 0.000000 -0.997289 -0.073589
  outer loop
   vertex 1.500000 -0.497592 -0.049007
   vertex -1.500000 -0.499398 -0.024532
   vertex -1.500000 -0.497592 -0.049007
  endloop
 endfacet
 facet normal 0.000000 -0.999699 -0.024531
  outer loop
   vertex -1.500000 -0.500000 0.000001
   vertex 1.500000 -0.499398 -0.024532
   vertex 1.500000 -0.500000 0.000001
  endloop
 endfacet
 facet normal 0.000000 -0.999699 -0.024530
  outer loop
   vertex 1.500000 -0.499398 -0.024532
   vertex -1.500000 -0.500000 0.000001
   vertex -1.500000 -0.499398 -0.024532
  endloop
 endfacet
 facet normal 0.000000 -0.999699 0.024531
  outer loop
   vertex -1.500000 -0.499398 0.024534
   vertex 1.500000 -0.500000 0.000001
   vertex 1.500000 -0.499398 0.024534
  endloop
 endfacet
 facet normal 0.000000 -0.999699 0.024530
  outer loop
   vertex 1.500000 -0.500000 0.000001
   vertex -1.500000 -0.499398 0.024534
   vertex -1.500000 -0.500000 0.000001
  endloop
 endfacet
 facet normal 1.000000 0.000000 0.000000
  outer loop
   vertex 1.500000 0.000000 0.000000
   vertex 1.500000 -0.497592 0.049009
   vertex 1.500000 -0.499398 0.024534
  endloop
 endfacet
 facet normal 1.000000 0.000000 0.000000
  outer loop
   vertex 1.500000 0.000000 0.000000
   vertex 1.500000 -0.494588 0.073365
   vertex 1.500000 -0.497592 0.049009
  endloop
 endfacet
 facet normal 1.000000 0.000000 0.000000
  outer loop
   vertex 1.500000 0.000000 0.000000
   vertex 1.500000 -0.490393 0.097545
   vertex 1.500000 -0.494588 0.073365
  endloop
 endfacet
 facet normal 1.000000 0.000000 0.000000
  outer loop
   vertex 1.500000 0.000000 0.000000
   vertex 1.500000 -0.485016 0.121490
   vertex 1.500000 -0.490393 0.097545
  endloop
 endfacet
 facet normal 1.000000 0.000000 0.000000
  outer loop
   vertex 1.500000 0.000000 0.000000
   vertex 1.500000 -0.478470 0.145142
   vertex 1.500000 -0.485016 0.121490
  endloop
 endfacet
 facet normal 1.000000 0.000000 0.000000
  outer loop
   vertex 1.500000 0.000000 0.000000
   vertex 1.500000 -0.470772 0.168445
   vertex 1.500000 -0.478470 0.145142
  endloop
 endfacet
 facet normal 1.000000 0.000000 0.000000
  outer loop
   vertex 1.500000 0.000000 0.000000
   vertex 1.500000 -0.461940 0.191342
   vertex 1.500000 -0.470772 0.168445
  endloop
 endfacet
 facet normal 1.000000 0.000000 0.000000
  outer loop
   vertex 1.500000 0.000000 0.000000
   vertex 1.500000 -0.451995 0.213778
   vertex 1.500000 -0.461940 0.191342
  endloop
 endfacet
 facet normal 1.000000 0.000000 0.000000
  outer loop
   vertex 1.500000 0.000000 0.000000
   vertex 1.500000 -0.440961 0.235698
   vertex 1.500000 -0.451995 0.213778
  endloop
 endfacet
 facet normal 1.000000 0.000000 0.000000
  outer loop
   vertex 1.500000 0.000000 0.000000
   vertex 1.500000 -0.428864 0.257051
   vertex 1.500000 -0.440961 0.235698
  endloop
 endfacet
 facet normal 1.000000 0.000000 0.000000
  outer loop
   vertex 1.500000 0.000000 0.000000
   vertex 1.500000 -0.415735 0.277785
   vertex 1.500000 -0.428864 0.257051
  endloop
 endfacet
 facet normal 1.000000 0.000000 0.000000
  outer loop
   vertex 1.500000 0.000000 0.000000
   vertex 1.500000 -0.401604 0.297850
   vertex 1.500000 -0.415735 0.277785
  endloop
 endfacet
 facet normal 1.000000 0.000000 0.000000
  outer loop
   vertex 1.500000 0.000000 0.000000
   vertex 1.500000 -0.386505 0.317197
   vertex 1.500000 -0.401604 0.297850
  endloop
 endfacet
 facet normal 1.000000 0.000000 0.000000
  outer loop
   vertex 1.500000 0.000000 0.000000
   vertex 1.500000 -0.370476 0.335779
   vertex 1.500000 -0.386505 0.317197
  endloop
 endfacet
 facet normal 1.000000 0.000000 0.000000
  outer loop
   vertex 1.500000 0.000000 0.000000
   vertex 1.500000 -0.353553 0.353553
   vertex 1.500000 -0.370476 0.335779
  endloop
 endfacet
 facet normal 1.000000 0.000000 0.000000
  outer loop
   vertex 1.500000 0.000000 0.000000
   vertex 1.500000 -0.335779 0.370476
   vertex 1.500000 -0.353553 0.353553
  endloop
 endfacet
 facet normal 1.000000 0.000000 0.000000
  outer loop
   vertex 1.500000 0.000000 0.000000
   vertex 1.500000 -0.317197 0.386505
   vertex 1.500000 -0.335779 0.370476
  endloop
 endfacet
 facet normal 1.000000 0.000000 0.000000
  outer loop
   vertex 1.500000 0.000000 0.000000
   vertex 1.500000 -0.297850 0.401604
   vertex 1.500000 -0.317197 0.386505
  endloop
 endfacet
 facet normal 1.000000 0.000000 0.000000
  outer loop
   vertex 1.500000 0.000000 0.000000
   vertex 1.500000 -0.277785 0.415735
   vertex 1.500000 -0.297850 0.401604
  endloop
 endfacet
 facet normal 1.000000 0.000000 0.000000
  outer loop
   vertex 1.500000 0.000000 0.000000
   vertex 1.500000 -0.257051 0.428864
   vertex 1.500000 -0.277785 0.415735
  endloop
 endfacet
 facet normal 1.000000 0.000000 0.000000
  outer loop
   vertex 1.500000 0.000000 0.000000
   vertex 1.500000 -0.235698 0.440961
   vertex 1.500000 -0.257051 0.428864
  endloop
 endfacet
 facet normal 1.000000 0.000000 0.000000
  outer loop
   vertex 1.500000 0.000000 0.000000
   vertex 1.500000 -0.213777 0.451995
   vertex 1.500000 -0.235698 0.440961
  endloop
 endfacet
 facet normal 1.000000 0.000000 0.000000
  outer loop
   vertex 1.500000 0.000000 0.000000
   vertex 1.500000 -0.191342 0.461940
   vertex 1.500000 -0.213777 0.451995
  endloop
 endfacet
 facet normal 1.000000 0.000000 0.000000
  outer loop
   vertex 1.500000 0.000000 0.000000
   vertex 1.500000 -0.168445 0.470772
   vertex 1.500000 -0.191342 0.461940
  endloop
 endfacet
 facet normal 1.000000 0.000000 0.000000
  outer loop
   vertex 1.500000 0.000000 0.000000
   vertex 1.500000 -0.145142 0.478470
   vertex 1.500000 -0.168445 0.470772
  endloop
 endfacet
 facet normal 1.000000 0.000000 0.000000
  outer loop
   vertex 1.500000 0.000000 0.000000
   vertex 1.500000 -0.121490 0.485016
   vertex 1.500000 -0.145142 0.478470
  endloop
 endfacet
 facet normal 1.000000 0.000000 0.000000
  outer loop
   vertex 1.500000 0.000000 0.000000
   vertex 1.500000 -0.097545 0.490393
   vertex 1.500000 -0.121490 0.485016
  endloop
 endfacet
 facet normal 1.000000 0.000000 0.000000
  outer loop
   vertex 1.500000 0.000000 0.000000
   vertex 1.500000 -0.073365 0.494588
   vertex 1.500000 -0.097545 0.490393
  endloop
 endfacet
 facet normal 1.000000 0.000000 0.000000
  outer loop
   vertex 1.500000 0.000000 0.000000
   vertex 1.500000 -0.049008 0.497592
   vertex 1.500000 -0.073365 0.494588
  endloop
 endfacet
 facet normal 1.000000 0.000000 0.000000
  outer loop
   vertex 1.500000 0.000000 0.000000
   vertex 1.500000 -0.024534 0.499398
   vertex 1.500000 -0.049008 0.497592
  endloop
 endfacet
 facet normal 1.000000 0.000000 0.000000
  outer loop
   vertex 1.500000 0.000000 0.000000
   vertex 1.500000 0.000000 0.500000
   vertex 1.500000 -0.024534 0.499398
  endloop
 endfacet
 facet normal 1.000000 0.000000 0.000000
  outer loop
   vertex 1.500000 0.000000 0.000000
   vertex 1.500000 0.024534 0.499398
   vertex 1.500000 0.000000 0.500000
  endloop
 endfacet
 facet normal 1.000000 0.000000 0.000000
  outer loop
   vertex 1.500000 0.000000 0.000000
   vertex 1.500000 0.049009 0.497592
   vertex 1.500000 0.024534 0.499398
  endloop
 endfacet
 facet normal 1.000000 0.000000 0.000000
  outer loop
   vertex 1.500000 0.000000 0.000000
   vertex 1.500000 0.073366 0.494588
   vertex 1.500000 0.049009 0.497592
  endloop
 endfacet
 facet normal 1.000000 0.000000 0.000000
  outer loop
   vertex 1.500000 0.000000 0.000000
   vertex 1.500000 0.097545 0.490393
   vertex 1.500000 0.073366 0.494588
  endloop
 endfacet
 facet normal 1.000000 0.000000 0.000000
  outer loop
   vertex 1.500000 0.000000 0.000000
   vertex 1.500000 0.121490 0.485016
   vertex 1.500000 0.097545 0.490393
  endloop
 endfacet
 facet normal 1.000000 0.000000 0.000000
  outer loop
   vertex 1.500000 0.000000 0.000000
   vertex 1.500000 0.145143 0.478470
   vertex 1.500000 0.121490 0.485016
  endloop
 endfacet
 facet normal 1.000000 0.000000 0.000000
  outer loop
   vertex 1.500000 0.000000 0.000000
   vertex 1.500000 0.168445 0.470772
   vertex 1.500000 0.145143 0.478470
  endloop
 endfacet
 facet normal 1.000000 0.000000 0.000000
  outer loop
   vertex 1.500000 0.000000 0.000000
   vertex 1.500000 0.191342 0.461940
   vertex 1.500000 0.168445 0.470772
  endloop
 endfacet
 facet normal 1.000000 0.000000 0.000000
  outer loop
   vertex 1.500000 0.000000 0.000000
   vertex 1.500000 0.213778 0.451995
   vertex 1.500000 0.191342 0.461940
  endloop
 endfacet
 facet normal 1.000000 0.000000 0.000000
  outer loop
   vertex 1.500000 0.000000 0.000000
   vertex 1.500000 0.235699 0.440961
   vertex 1.500000 0.213778 0.451995
  endloop
 endfacet
 facet normal 1.000000 0.000000 0.000000
  outer loop
   vertex 1.500000 0.000000 0.000000
   vertex 1.500000 0.257052 0.428864
   vertex 1.500000 0.235699 0.440961
  endloop
 endfacet
 facet normal 1.000000 0.000000 0.000000
  outer loop
   vertex 1.500000 0.000000 0.000000
   vertex 1.500000 0.277785 0.415735
   vertex 1.500000 0.257052 0.428864
  endloop
 endfacet
 facet normal 1.000000 0.000000 0.000000
  outer loop
   vertex 1.500000 0.000000 0.000000
   vertex 1.500000 0.297850 0.401604
   vertex 1.500000 0.277785 0.415735
  endloop
 endfacet
 facet normal 1.000000 0.000000 0.000000
  outer loop
   vertex 1.500000 0.000000 0.000000
   vertex 1.500000 0.317197 0.386505
   vertex 1.500000 0.297850 0.401604
  endloop
 endfacet
 facet normal 1.000000 0.000000 0.000000
  outer loop
   vertex 1.500000 0.000000 0.000000
   vertex 1.500000 0.335780 0.370476
   vertex 1.500000 0.317197 0.386505
  endloop
 endfacet
 facet normal 1.000000 0.000000 0.000000
  outer loop
   vertex 1.500000 0.000000 0.000000
   vertex 1.500000 0.353553 0.353553
   vertex 1.500000 0.335780 0.370476
  endloop
 endfacet
 facet normal 1.000000 0.000000 0.000000
  outer loop
   vertex 1.500000 0.000000 0.000000
   vertex 1.500000 0.370476 0.335780
   vertex 1.500000 0.353553 0.353553
  endloop
 endfacet
 facet normal 1.000000 0.000000 0.000000
  outer loop
   vertex 1.500000 0.000000 0.000000
   vertex 1.500000 0.386505 0.317197
   vertex 1.500000 0.370476 0.335780
  endloop
 endfacet
 facet normal 1.000000 0.000000 0.000000
  outer loop
   vertex 1.500000 0.000000 0.000000
   vertex 1.500000 0.401604 0.297850
   vertex 1.500000 0.386505 0.317197
  endloop
 endfacet
 facet normal 1.000000 0.000000 0.000000
  outer loop
   vertex 1.500000 0.000000 0.000000
   vertex 1.500000 0.415735 0.277785
   vertex 1.500000 0.401604 0.297850
  endloop
 endfacet
 facet normal 1.000000 0.000000 0.000000
  outer loop
   vertex 1.500000 0.000000 0.000000
   vertex 1.500000 0.428864 0.257052
   vertex 1.500000 0.415735 0.277785
  endloop
 endfacet
 facet normal 1.000000 0.000000 0.000000
  outer loop
   vertex 1.500000 0.000000 0.000000
   vertex 1.500000 0.440961 0.235699
   vertex 1.500000 0.428864 0.257052
  endloop
 endfacet
 facet normal 1.000000 0.000000 0.000000
  outer loop
   vertex 1.500000 0.000000 0.000000
   vertex 1.500000 0.451995 0.213778
   vertex 1.500000 0.440961 0.235699
  endloop
 endfacet
 facet normal 1.000000 0.000000 0.000000
  outer loop
   vertex 1.500000 0.000000 0.000000
   vertex 1.500000 0.461940 0.191342
   vertex 1.500000 0.451995 0.213778
  endloop
 endfacet
 facet normal 1.000000 0.000000 0.000000
  outer loop
   vertex 1.500000 0.000000 0.000000
   vertex 1.500000 0.470772 0.168445
   vertex 1.500000 0.461940 0.191342
  endloop
 endfacet
 facet normal 1.000000 0.000000 0.000000
  outer loop
   vertex 1.500000 0.000000 0.000000
   vertex 1.500000 0.478470 0.145143
   vertex 1.500000 0.470772 0.168445
  endloop
 endfacet
 facet normal 1.000000 0.000000 0.000000
  outer loop
   vertex 1.500000 0.000000 0.000000
   vertex 1.500000 0.485016 0.121491
   vertex 1.500000 0.478470 0.145143
  endloop
 endfacet
 facet normal 1.000000 0.000000 0.000000
  outer loop
   vertex 1.500000 0.000000 0.000000
   vertex 1.500000 0.490393 0.097546
   vertex 1.500000 0.485016 0.121491
  endloop
 endfacet
 facet normal 1.000000 0.000000 0.000000
  outer loop
   vertex 1.500000 0.000000 0.000000
   vertex 1.500000 0.494588 0.073366
   vertex 1.500000 0.490393 0.097546
  endloop
 endfacet
 facet normal 1.000000 0.000000 0.000000
  outer loop
   vertex 1.500000 0.000000 0.000000
   vertex 1.500000 0.497592 0.049009
   vertex 1.500000 0.494588 0.073366
  endloop
 endfacet
 facet normal 1.000000 0.000000 0.000000
  outer loop
   vertex 1.500000 0.000000 0.000000
   vertex 1.500000 0.499398 0.024535
   vertex 1.500000 0.497592 0.049009
  endloop
 endfacet
 facet normal 1.000000 0.000000 0.000000
  outer loop
   vertex 1.500000 0.000000 0.000000
   vertex 1.500000 0.500000 0.000001
   vertex 1.500000 0.499398 0.024535
  endloop
 endfacet
 facet normal 1.000000 0.000000 0.000000
  outer loop
   vertex 1.500000 0.000000 0.000000
   vertex 1.500000 0.499398 -0.024533
   vertex 1.500000 0.500000 0.000001
  endloop
 endfacet
 facet normal 1.000000 0.000000 0.000000
  outer loop
   vertex 1.500000 0.000000 0.000000
   vertex 1.500000 0.497593 -0.049008
   vertex 1.500000 0.499398 -0.024533
  endloop
 endfacet
 facet normal 1.000000 0.000000 0.000000
  outer loop
   vertex 1.500000 0.000000 0.000000
   vertex 1.500000 0.494589 -0.073364
   vertex 1.500000 0.497593 -0.049008
  endloop
 endfacet
 facet normal 1.000000 0.000000 0.000000
  outer loop
   vertex 1.500000 0.000000 0.000000
   vertex 1.500000 0.490393 -0.097544
   vertex 1.500000 0.494589 -0.073364
  endloop
 endfacet
 facet normal 1.000000 0.000000 0.000000
  outer loop
   vertex 1.500000 0.000000 0.000000
   vertex 1.500000 0.485016 -0.121489
   vertex 1.500000 0.490393 -0.097544
  endloop
 endfacet
 facet normal 1.000000 0.000000 0.000000
  outer loop
   vertex 1.500000 0.000000 0.000000
   vertex 1.500000 0.478471 -0.145141
   vertex 1.500000 0.485016 -0.121489
  endloop
 endfacet
 facet normal 1.000000 0.000000 0.000000
  outer loop
   vertex 1.500000 0.000000 0.000000
   vertex 1.500000 0.470773 -0.168444
   vertex 1.500000 0.478471 -0.145141
  endloop
 endfacet
 facet normal 1.000000 0.000000 0.000000
  outer loop
   vertex 1.500000 0.000000 0.000000
   vertex 1.500000 0.461940 -0.191341
   vertex 1.500000 0.470773 -0.168444
  endloop
 endfacet
 facet normal 1.000000 0.000000 0.000000
  outer loop
   vertex 1.500000 0.000000 0.000000
   vertex 1.500000 0.451995 -0.213776
   vertex 1.500000 0.461940 -0.191341
  endloop
 endfacet
 facet normal 1.000000 0.000000 0.000000
  outer loop
   vertex 1.500000 0.000000 0.000000
   vertex 1.500000 0.440961 -0.235697
   vertex 1.500000 0.451995 -0.213776
  endloop
 endfacet
 facet normal 1.000000 0.000000 0.000000
  outer loop
   vertex 1.500000 0.000000 0.000000
   vertex 1.500000 0.428865 -0.257050
   vertex 1.500000 0.440961 -0.235697
  endloop
 endfacet
 facet normal 1.000000 0.000000 0.000000
  outer loop
   vertex 1.500000 0.000000 0.000000
   vertex 1.500000 0.415736 -0.277784
   vertex 1.500000 0.428865 -0.257050
  endloop
 endfacet
 facet normal 1.000000 0.000000 0.000000
  outer loop
   vertex 1.500000 0.000000 0.000000
   vertex 1.500000 0.401605 -0.297848
   vertex 1.500000 0.415736 -0.277784
  endloop
 endfacet
 facet normal 1.000000 0.000000 0.000000
  outer loop
   vertex 1.500000 0.000000 0.000000
   vertex 1.500000 0.386506 -0.317195
   vertex 1.500000 0.401605 -0.297848
  endloop
 endfacet
 facet normal 1.000000 0.000000 0.000000
  outer loop
   vertex 1.500000 0.000000 0.000000
   vertex 1.500000 0.370477 -0.335778
   vertex 1.500000 0.386506 -0.317195
  endloop
 endfacet
 facet normal 1.000000 0.000000 0.000000
  outer loop
   vertex 1.500000 0.000000 0.000000
   vertex 1.500000 0.353555 -0.353552
   vertex 1.500000 0.370477 -0.335778
  endloop
 endfacet
 facet normal 1.000000 0.000000 0.000000
  outer loop
   vertex 1.500000 0.000000 0.000000
   vertex 1.500000 0.335781 -0.370474
   vertex 1.500000 0.353555 -0.353552
  endloop
 endfacet
 facet normal 1.000000 0.000000 0.000000
  outer loop
   vertex 1.500000 0.000000 0.000000
   vertex 1.500000 0.317198 -0.386504
   vertex 1.500000 0.335781 -0.370474
  endloop
 endfacet
 facet normal 1.000000 0.000000 0.000000
  outer loop
   vertex 1.500000 0.000000 0.000000
   vertex 1.500000 0.297851 -0.401603
   vertex 1.500000 0.317198 -0.386504
  endloop
 endfacet
 facet normal 1.000000 0.000000 0.000000
  outer loop
   vertex 1.500000 0.000000 0.000000
   vertex 1.500000 0.277787 -0.415734
   vertex 1.500000 0.297851 -0.401603
  endloop
 endfacet
 facet normal 1.000000 0.000000 0.000000
  outer loop
   vertex 1.500000 0.000000 0.000000
   vertex 1.500000 0.257053 -0.428864
   vertex 1.500000 0.277787 -0.415734
  endloop
 endfacet
 facet normal 1.000000 0.000000 0.000000
  outer loop
   vertex 1.500000 0.000000 0.000000
   vertex 1.500000 0.235700 -0.440960
   vertex 1.500000 0.257053 -0.428864
  endloop
 endfacet
 facet normal 1.000000 0.000000 0.000000
  outer loop
   vertex 1.500000 0.000000 0.000000
   vertex 1.500000 0.213779 -0.451994
   vertex 1.500000 0.235700 -0.440960
  endloop
 endfacet
 facet normal 1.000000 0.000000 0.000000
  outer loop
   vertex 1.500000 0.000000 0.000000
   vertex 1.500000 0.191343 -0.461939
   vertex 1.500000 0.213779 -0.451994
  endloop
 endfacet
 facet normal 1.000000 0.000000 0.000000
  outer loop
   vertex 1.500000 0.000000 0.000000
   vertex 1.500000 0.168446 -0.470772
   vertex 1.500000 0.191343 -0.461939
  endloop
 endfacet
 facet normal 1.000000 0.000000 0.000000
  outer loop
   vertex 1.500000 0.000000 0.000000
   vertex 1.500000 0.145144 -0.478470
   vertex 1.500000 0.168446 -0.470772
  endloop
 endfacet
 facet normal 1.000000 0.000000 0.000000
  outer loop
   vertex 1.500000 0.000000 0.000000
   vertex 1.500000 0.121491 -0.485015
   vertex 1.500000 0.145144 -0.478470
  endloop
 endfacet
 facet normal 1.000000 0.000000 0.000000
  outer loop
   vertex 1.500000 0.000000 0.000000
   vertex 1.500000 0.097546 -0.490392
   vertex 1.500000 0.121491 -0.485015
  endloop
 endfacet
 facet normal 1.000000 0.000000 0.000000
  outer loop
   vertex 1.500000 0.000000 0.000000
   vertex 1.500000 0.073366 -0.494588
   vertex 1.500000 0.097546 -0.490392
  endloop
 endfacet
 facet normal 1.000000 0.000000 0.000000
  outer loop
   vertex 1.500000 0.000000 0.000000
   vertex 1.500000 0.049010 -0.497592
   vertex 1.500000 0.073366 -0.494588
  endloop
 endfacet
 facet normal 1.000000 0.000000 0.000000
  outer loop
   vertex 1.500000 0.000000 0.000000
   vertex 1.500000 0.024535 -0.499398
   vertex 1.500000 0.049010 -0.497592
  endloop
 endfacet
 facet normal 1.000000 0.000000 0.000000
  outer loop
   vertex 1.500000 0.000000 0.000000
   vertex 1.500000 0.000001 -0.500000
   vertex 1.500000 0.024535 -0.499398
  endloop
 endfacet
 facet normal 1.000000 0.000000 0.000000
  outer loop
   vertex 1.500000 0.000000 0.000000
   vertex 1.500000 -0.024533 -0.499398
   vertex 1.500000 0.000001 -0.500000
  endloop
 endfacet
 facet normal 1.000000 0.000000 0.000000
  outer loop
   vertex 1.500000 0.000000 0.000000
   vertex 1.500000 -0.049008 -0.497592
   vertex 1.500000 -0.024533 -0.499398
  endloop
 endfacet
 facet normal 1.000000 0.000000 0.000000
  outer loop
   vertex 1.500000 0.000000 0.000000
   vertex 1.500000 -0.073365 -0.494588
   vertex 1.500000 -0.049008 -0.497592
  endloop
 endfacet
 facet normal 1.000000 0.000000 0.000000
  outer loop
   vertex 1.500000 0.000000 0.000000
   vertex 1.500000 -0.097545 -0.490393
   vertex 1.500000 -0.073365 -0.494588
  endloop
 endfacet
 facet normal 1.000000 0.000000 0.000000
  outer loop
   vertex 1.500000 0.000000 0.000000
   vertex 1.500000 -0.121490 -0.485016
   vertex 1.500000 -0.097545 -0.490393
  endloop
 endfacet
 facet normal 1.000000 0.000000 0.000000
  outer loop
   vertex 1.500000 0.000000 0.000000
   vertex 1.500000 -0.145142 -0.478470
   vertex 1.500000 -0.121490 -0.485016
  endloop
 endfacet
 facet normal 1.000000 0.000000 0.000000
  outer loop
   vertex 1.500000 0.000000 0.000000
   vertex 1.500000 -0.168445 -0.470772
   vertex 1.500000 -0.145142 -0.478470
  endloop
 endfacet
 facet normal 1.000000 0.000000 0.000000
  outer loop
   vertex 1.500000 0.000000 0.000000
   vertex 1.500000 -0.191341 -0.461940
   vertex 1.500000 -0.168445 -0.470772
  endloop
 endfacet
 facet normal 1.000000 0.000000 0.000000
  outer loop
   vertex 1.500000 0.000000 0.000000
   vertex 1.500000 -0.213777 -0.451995
   vertex 1.500000 -0.191341 -0.461940
  endloop
 endfacet
 facet normal 1.000000 0.000000 0.000000
  outer loop
   vertex 1.500000 0.000000 0.000000
   vertex 1.500000 -0.235698 -0.440961
   vertex 1.500000 -0.213777 -0.451995
  endloop
 endfacet
 facet normal 1.000000 0.000000 0.000000
  outer loop
   vertex 1.500000 0.000000 0.000000
   vertex 1.500000 -0.257051 -0.428864
   vertex 1.500000 -0.235698 -0.440961
  endloop
 endfacet
 facet normal 1.000000 0.000000 0.000000
  outer loop
   vertex 1.500000 0.000000 0.000000
   vertex 1.500000 -0.277785 -0.415735
   vertex 1.500000 -0.257051 -0.428864
  endloop
 endfacet
 facet normal 1.000000 0.000000 0.000000
  outer loop
   vertex 1.500000 0.000000 0.000000
   vertex 1.500000 -0.297850 -0.401604
   vertex 1.500000 -0.277785 -0.415735
  endloop
 endfacet
 facet normal 1.000000 0.000000 0.000000
  outer loop
   vertex 1.500000 0.000000 0.000000
   vertex 1.500000 -0.317197 -0.386505
   vertex 1.500000 -0.297850 -0.401604
  endloop
 endfacet
 facet normal 1.000000 0.000000 0.000000
  outer loop
   vertex 1.500000 0.000000 0.000000
   vertex 1.500000 -0.335780 -0.370475
   vertex 1.500000 -0.317197 -0.386505
  endloop
 endfacet
 facet normal 1.000000 0.000000 0.000000
  outer loop
   vertex 1.500000 0.000000 0.000000
   vertex 1.500000 -0.353554 -0.353553
   vertex 1.500000 -0.335780 -0.370475
  endloop
 endfacet
 facet normal 1.000000 0.000000 0.000000
  outer loop
   vertex 1.500000 0.000000 0.000000
   vertex 1.500000 -0.370476 -0.335779
   vertex 1.500000 -0.353554 -0.353553
  endloop
 endfacet
 facet normal 1.000000 0.000000 0.000000
  outer loop
   vertex 1.500000 0.000000 0.000000
   vertex 1.500000 -0.386506 -0.317196
   vertex 1.500000 -0.370476 -0.335779
  endloop
 endfacet
 facet normal 1.000000 0.000000 0.000000
  outer loop
   vertex 1.500000 0.000000 0.000000
   vertex 1.500000 -0.401604 -0.297849
   vertex 1.500000 -0.386506 -0.317196
  endloop
 endfacet
 facet normal 1.000000 0.000000 0.000000
  outer loop
   vertex 1.500000 0.000000 0.000000
   vertex 1.500000 -0.415735 -0.277785
   vertex 1.500000 -0.401604 -0.297849
  endloop
 endfacet
 facet normal 1.000000 0.000000 0.000000
  outer loop
   vertex 1.500000 0.000000 0.000000
   vertex 1.500000 -0.428865 -0.257051
   vertex 1.500000 -0.415735 -0.277785
  endloop
 endfacet
 facet normal 1.000000 0.000000 0.000000
  outer loop
   vertex 1.500000 0.000000 0.000000
   vertex 1.500000 -0.440961 -0.235698
   vertex 1.500000 -0.428865 -0.257051
  endloop
 endfacet
 facet normal 1.000000 0.000000 0.000000
  outer loop
   vertex 1.500000 0.000000 0.000000
   vertex 1.500000 -0.451995 -0.213777
   vertex 1.500000 -0.440961 -0.235698
  endloop
 endfacet
 facet normal 1.000000 0.000000 0.000000
  outer loop
   vertex 1.500000 0.000000 0.000000
   vertex 1.500000 -0.461940 -0.191341
   vertex 1.500000 -0.451995 -0.213777
  endloop
 endfacet
 facet normal 1.000000 0.000000 0.000000
  outer loop
   vertex 1.500000 0.000000 0.000000
   vertex 1.500000 -0.470772 -0.168444
   vertex 1.500000 -0.461940 -0.191341
  endloop
 endfacet
 facet normal 1.000000 0.000000 0.000000
  outer loop
   vertex 1.500000 0.000000 0.000000
   vertex 1.500000 -0.478470 -0.145141
   vertex 1.500000 -0.470772 -0.168444
  endloop
 endfacet
 facet normal 1.000000 0.000000 0.000000
  outer loop
   vertex 1.500000 0.000000 0.000000
   vertex 1.500000 -0.485016 -0.121489
   vertex 1.500000 -0.478470 -0.145141
  endloop
 endfacet
 facet normal 1.000000 0.000000 0.000000
  outer loop
   vertex 1.500000 0.000000 0.000000
   vertex 1.500000 -0.490393 -0.097544
   vertex 1.500000 -0.485016 -0.121489
  endloop
 endfacet
 facet normal 1.000000 0.000000 0.000000
  outer loop
   vertex 1.500000 0.000000 0.000000
   vertex 1.500000 -0.494588 -0.073364
   vertex 1.500000 -0.490393 -0.097544
  endloop
 endfacet
 facet normal 1.000000 0.000000 0.000000
  outer loop
   vertex 1.500000 0.000000 0.000000
   vertex 1.500000 -0.497592 -0.049007
   vertex 1.500000 -0.494588 -0.073364
  endloop
 endfacet
 facet normal 1.000000 0.000000 0.000000
  outer loop
   vertex 1.500000 0.000000 0.000000
   vertex 1.500000 -0.499398 -0.024532
   vertex 1.500000 -0.497592 -0.049007
  endloop
 endfacet
 facet normal 1.000000 0.000000 0.000000
  outer loop
   vertex 1.500000 0.000000 0.000000
   vertex 1.500000 -0.500000 0.000001
   vertex 1.500000 -0.499398 -0.024532
  endloop
 endfacet
 facet normal 1.000000 0.000000 0.000000
  outer loop
   vertex 1.500000 0.000000 0.000000
   vertex 1.500000 -0.499398 0.024534
   vertex 1.500000 -0.500000 0.000001
  endloop
 endfacet
 facet normal -1.000000 0.000000 0.000000
  outer loop
   vertex -1.500000 -0.000000 0.000000
   vertex -1.500000 -0.499398 0.024534
   vertex -1.500000 -0.497592 0.049009
  endloop
 endfacet
 facet normal -1.000000 0.000000 0.000000
  outer loop
   vertex -1.500000 -0.000000 0.000000
   vertex -1.500000 -0.497592 0.049009
   vertex -1.500000 -0.494588 0.073365
  endloop
 endfacet
 facet normal -1.000000 0.000000 0.000000
  outer loop
   vertex -1.500000 -0.000000 0.000000
   vertex -1.500000 -0.494588 0.073365
   vertex -1.500000 -0.490393 0.097545
  endloop
 endfacet
 facet normal -1.000000 0.000000 0.000000
  outer loop
   vertex -1.500000 -0.000000 0.000000
   vertex -1.500000 -0.490393 0.097545
   vertex -1.500000 -0.485016 0.121490
  endloop
 endfacet
 facet normal -1.000000 0.000000 0.000000
  outer loop
   vertex -1.500000 -0.000000 0.000000
   vertex -1.500000 -0.485016 0.121490
   vertex -1.500000 -0.478470 0.145142
  endloop
 endfacet
 facet normal -1.000000 0.000000 0.000000
  outer loop
   vertex -1.500000 -0.000000 0.000000
   vertex -1.500000 -0.478470 0.145142
   vertex -1.500000 -0.470772 0.168445
  endloop
 endfacet
 facet normal -1.000000 0.000000 0.000000
  outer loop
   vertex -1.500000 -0.000000 0.000000
   vertex -1.500000 -0.470772 0.168445
   vertex -1.500000 -0.461940 0.191342
  endloop
 endfacet
 facet normal -1.000000 0.000000 0.000000
  outer loop
   vertex -1.500000 -0.000000 0.000000
   vertex -1.500000 -0.461940 0.191342
   vertex -1.500000 -0.451995 0.213778
  endloop
 endfacet
 facet normal -1.000000 0.000000 0.000000
  outer loop
   vertex -1.500000 -0.000000 0.000000
   vertex -1.500000 -0.451995 0.213778
   vertex -1.500000 -0.440961 0.235698
  endloop
 endfacet
 facet normal -1.000000 0.000000 0.000000
  outer loop
   vertex -1.500000 -0.000000 0.000000
   vertex -1.500000 -0.440961 0.235698
   vertex -1.500000 -0.428864 0.257051
  endloop
 endfacet
 facet normal -1.000000 0.000000 0.000000
  outer loop
   vertex -1.500000 -0.000000 0.000000
   vertex -1.500000 -0.428864 0.257051
   vertex -1.500000 -0.415735 0.277785
  endloop
 endfacet
 facet normal -1.000000 0.000000 0.000000
  outer loop
   vertex -1.500000 -0.000000 0.000000
   vertex -1.500000 -0.415735 0.277785
   vertex -1.500000 -0.401604 0.297850
  endloop
 endfacet
 facet normal -1.000000 0.000000 0.000000
  outer loop
   vertex -1.500000 -0.000000 0.000000
   vertex -1.500000 -0.401604 0.297850
   vertex -1.500000 -0.386505 0.317197
  endloop
 endfacet
 facet normal -1.000000 0.000000 0.000000
  outer loop
   vertex -1.500000 -0.000000 0.000000
   vertex -1.500000 -0.386505 0.317197
   vertex -1.500000 -0.370476 0.335779
  endloop
 endfacet
 facet normal -1.000000 0.000000 0.000000
  outer loop
   vertex -1.500000 -0.000000 0.000000
   vertex -1.500000 -0.370476 0.335779
   vertex -1.500000 -0.353553 0.353553
  endloop
 endfacet
 facet normal -1.000000 0.000000 0.000000
  outer loop
   vertex -1.500000 -0.000000 0.000000
   vertex -1.500000 -0.353553 0.353553
   vertex -1.500000 -0.335779 0.370476
  endloop
 endfacet
 facet normal -1.000000 0.000000 0.000000
  outer loop
   vertex -1.500000 -0.000000 0.000000
   vertex -1.500000 -0.335779 0.370476
   vertex -1.500000 -0.317197 0.386505
  endloop
 endfacet
 facet normal -1.000000 0.000000 0.000000
  outer loop
   vertex -1.500000 -0.000000 0.000000
   vertex -1.500000 -0.317197 0.386505
   vertex -1.500000 -0.297850 0.401604
  endloop
 endfacet
 facet normal -1.000000 0.000000 0.000000
  outer loop
   vertex -1.500000 -0.000000 0.000000
   vertex -1.500000 -0.297850 0.401604
   vertex -1.500000 -0.277785 0.415735
  endloop
 endfacet
 facet normal -1.000000 0.000000 0.000000
  outer loop
   vertex -1.500000 -0.000000 0.000000
   vertex -1.500000 -0.277785 0.415735
   vertex -1.500000 -0.257051 0.428864
  endloop
 endfacet
 facet normal -1.000000 0.000000 0.000000
  outer loop
   vertex -1.500000 -0.000000 0.000000
   vertex -1.500000 -0.257051 0.428864
   vertex -1.500000 -0.235698 0.440961
  endloop
 endfacet
 facet normal -1.000000 0.000000 0.000000
  outer loop
   vertex -1.500000 -0.000000 0.000000
   vertex -1.500000 -0.235698 0.440961
   vertex -1.500000 -0.213777 0.451995
  endloop
 endfacet
 facet normal -1.000000 0.000000 0.000000
  outer loop
   vertex -1.500000 -0.000000 0.000000
   vertex -1.500000 -0.213777 0.451995
   vertex -1.500000 -0.191342 0.461940
  endloop
 endfacet
 facet normal -1.000000 0.000000 0.000000
  outer loop
   vertex -1.500000 -0.000000 0.000000
   vertex -1.500000 -0.191342 0.461940
   vertex -1.500000 -0.168445 0.470772
  endloop
 endfacet
 facet normal -1.000000 0.000000 0.000000
  outer loop
   vertex -1.500000 -0.000000 0.000000
   vertex -1.500000 -0.168445 0.470772
   vertex -1.500000 -0.145142 0.478470
  endloop
 endfacet
 facet normal -1.000000 0.000000 0.000000
  outer loop
   vertex -1.500000 -0.000000 0.000000
   vertex -1.500000 -0.145142 0.478470
   vertex -1.500000 -0.121490 0.485016
  endloop
 endfacet
 facet normal -1.000000 0.000000 0.000000
  outer loop
   vertex -1.500000 -0.000000 0.000000
   vertex -1.500000 -0.121490 0.485016
   vertex -1.500000 -0.097545 0.490393
  endloop
 endfacet
 facet normal -1.000000 0.000000 0.000000
  outer loop
   vertex -1.500000 -0.000000 0.000000
   vertex -1.500000 -0.097545 0.490393
   vertex -1.500000 -0.073365 0.494588
  endloop
 endfacet
 facet normal -1.000000 0.000000 0.000000
  outer loop
   vertex -1.500000 -0.000000 0.000000
   vertex -1.500000 -0.073365 0.494588
   vertex -1.500000 -0.049008 0.497592
  endloop
 endfacet
 facet normal -1.000000 0.000000 0.000000
  outer loop
   vertex -1.500000 -0.000000 0.000000
   vertex -1.500000 -0.049008 0.497592
   vertex -1.500000 -0.024534 0.499398
  endloop
 endfacet
 facet normal -1.000000 0.000000 0.000000
  outer loop
   vertex -1.500000 -0.000000 0.000000
   vertex -1.500000 -0.024534 0.499398
   vertex -1.500000 -0.000000 0.500000
  endloop
 endfacet
 facet normal -1.000000 0.000000 0.000000
  outer loop
   vertex -1.500000 -0.000000 0.000000
   vertex -1.500000 -0.000000 0.500000
   vertex -1.500000 0.024534 0.499398
  endloop
 endfacet
 facet normal -1.000000 0.000000 0.000000
  outer loop
   vertex -1.500000 -0.000000 0.000000
   vertex -1.500000 0.024534 0.499398
   vertex -1.500000 0.049009 0.497592
  endloop
 endfacet
 facet normal -1.000000 0.000000 0.000000
  outer loop
   vertex -1.500000 -0.000000 0.000000
   vertex -1.500000 0.049009 0.497592
   vertex -1.500000 0.073366 0.494588
  endloop
 endfacet
 facet normal -1.000000 0.000000 0.000000
  outer loop
   vertex -1.500000 -0.000000 0.000000
   vertex -1.500000 0.073366 0.494588
   vertex -1.500000 0.097545 0.490393
  endloop
 endfacet
 facet normal -1.000000 0.000000 0.000000
  outer loop
   vertex -1.500000 -0.000000 0.000000
   vertex -1.500000 0.097545 0.490393
   vertex -1.500000 0.121490 0.485016
  endloop
 endfacet
 facet normal -1.000000 0.000000 0.000000
  outer loop
   vertex -1.500000 -0.000000 0.000000
   vertex -1.500000 0.121490 0.485016
   vertex -1.500000 0.145143 0.478470
  endloop
 endfacet
 facet normal -1.000000 0.000000 0.000000
  outer loop
   vertex -1.500000 -0.000000 0.000000
   vertex -1.500000 0.145143 0.478470
   vertex -1.500000 0.168445 0.470772
  endloop
 endfacet
 facet normal -1.000000 0.000000 0.000000
  outer loop
   vertex -1.500000 -0.000000 0.000000
   vertex -1.500000 0.168445 0.470772
   vertex -1.500000 0.191342 0.461940
  endloop
 endfacet
 facet normal -1.000000 0.000000 0.000000
  outer loop
   vertex -1.500000 -0.000000 0.000000
   vertex -1.500000 0.191342 0.461940
   vertex -1.500000 0.213778 0.451995
  endloop
 endfacet
 facet normal -1.000000 0.000000 0.000000
  outer loop
   vertex -1.500000 -0.000000 0.000000
   vertex -1.500000 0.213778 0.451995
   vertex -1.500000 0.235699 0.440961
  endloop
 endfacet
 facet normal -1.000000 0.000000 0.000000
  outer loop
   vertex -1.500000 -0.000000 0.000000
   vertex -1.500000 0.235699 0.440961
   vertex -1.500000 0.257052 0.428864
  endloop
 endfacet
 facet normal -1.000000 0.000000 0.000000
  outer loop
   vertex -1.500000 -0.000000 0.000000
   vertex -1.500000 0.257052 0.428864
   vertex -1.500000 0.277785 0.415735
  endloop
 endfacet
 facet normal -1.000000 0.000000 0.000000
  outer loop
   vertex -1.500000 -0.000000 0.000000
   vertex -1.500000 0.277785 0.415735
   vertex -1.500000 0.297850 0.401604
  endloop
 endfacet
 facet normal -1.000000 0.000000 0.000000
  outer loop
   vertex -1.500000 -0.000000 0.000000
   vertex -1.500000 0.297850 0.401604
   vertex -1.500000 0.317197 0.386505
  endloop
 endfacet
 facet normal -1.000000 0.000000 0.000000
  outer loop
   vertex -1.500000 -0.000000 0.000000
   vertex -1.500000 0.317197 0.386505
   vertex -1.500000 0.335780 0.370476
  endloop
 endfacet
 facet normal -1.000000 0.000000 0.000000
  outer loop
   vertex -1.500000 -0.000000 0.000000
   vertex -1.500000 0.335780 0.370476
   vertex -1.500000 0.353553 0.353553
  endloop
 endfacet
 facet normal -1.000000 0.000000 0.000000
  outer loop
   vertex -1.500000 -0.000000 0.000000
   vertex -1.500000 0.353553 0.353553
   vertex -1.500000 0.370476 0.335780
  endloop
 endfacet
 facet normal -1.000000 0.000000 0.000000
  outer loop
   vertex -1.500000 -0.000000 0.000000
   vertex -1.500000 0.370476 0.335780
   vertex -1.500000 0.386505 0.317197
  endloop
 endfacet
 facet normal -1.000000 0.000000 0.000000
  outer loop
   vertex -1.500000 -0.000000 0.000000
   vertex -1.500000 0.386505 0.317197
   vertex -1.500000 0.401604 0.297850
  endloop
 endfacet
 facet normal -1.000000 0.000000 0.000000
  outer loop
   vertex -1.500000 -0.000000 0.000000
   vertex -1.500000 0.401604 0.297850
   vertex -1.500000 0.415735 0.277785
  endloop
 endfacet
 facet normal -1.000000 0.000000 0.000000
  outer loop
   vertex -1.500000 -0.000000 0.000000
   vertex -1.500000 0.415735 0.277785
   vertex -1.500000 0.428864 0.257052
  endloop
 endfacet
 facet normal -1.000000 0.000000 0.000000
  outer loop
   vertex -1.500000 -0.000000 0.000000
   vertex -1.500000 0.428864 0.257052
   vertex -1.500000 0.440961 0.235699
  endloop
 endfacet
 facet normal -1.000000 0.000000 0.000000
  outer loop
   vertex -1.500000 -0.000000 0.000000
   vertex -1.500000 0.440961 0.235699
   vertex -1.500000 0.451995 0.213778
  endloop
 endfacet
 facet normal -1.000000 0.000000 0.000000
  outer loop
   vertex -1.500000 -0.000000 0.000000
   vertex -1.500000 0.451995 0.213778
   vertex -1.500000 0.461940 0.191342
  endloop
 endfacet
 facet normal -1.000000 0.000000 0.000000
  outer loop
   vertex -1.500000 -0.000000 0.000000
   vertex -1.500000 0.461940 0.191342
   vertex -1.500000 0.470772 0.168445
  endloop
 endfacet
 facet normal -1.000000 0.000000 0.000000
  outer loop
   vertex -1.500000 -0.000000 0.000000
   vertex -1.500000 0.470772 0.168445
   vertex -1.500000 0.478470 0.145143
  endloop
 endfacet
 facet normal -1.000000 0.000000 0.000000
  outer loop
   vertex -1.500000 -0.000000 0.000000
   vertex -1.500000 0.478470 0.145143
   vertex -1.500000 0.485016 0.121491
  endloop
 endfacet
 facet normal -1.000000 0.000000 0.000000
  outer loop
   vertex -1.500000 -0.000000 0.000000
   vertex -1.500000 0.485016 0.121491
   vertex -1.500000 0.490393 0.097546
  endloop
 endfacet
 facet normal -1.000000 0.000000 0.000000
  outer loop
   vertex -1.500000 -0.000000 0.000000
   vertex -1.500000 0.490393 0.097546
   vertex -1.500000 0.494588 0.073366
  endloop
 endfacet
 facet normal -1.000000 0.000000 0.000000
  outer loop
   vertex -1.500000 -0.000000 0.000000
   vertex -1.500000 0.494588 0.073366
   vertex -1.500000 0.497592 0.049009
  endloop
 endfacet
 facet normal -1.000000 0.000000 0.000000
  outer loop
   vertex -1.500000 -0.000000 0.000000
   vertex -1.500000 0.497592 0.049009
   vertex -1.500000 0.499398 0.024535
  endloop
 endfacet
 facet normal -1.000000 0.000000 0.000000
  outer loop
   vertex -1.500000 -0.000000 0.000000
   vertex -1.500000 0.499398 0.024535
   vertex -1.500000 0.500000 0.000001
  endloop
 endfacet
 facet normal -1.000000 0.000000 0.000000
  outer loop
   vertex -1.500000 -0.000000 0.000000
   vertex -1.500000 0.500000 0.000001
   vertex -1.500000 0.499398 -0.024533
  endloop
 endfacet
 facet normal -1.000000 0.000000 0.000000
  outer loop
   vertex -1.500000 -0.000000 0.000000
   vertex -1.500000 0.499398 -0.024533
   vertex -1.500000 0.497593 -0.049008
  endloop
 endfacet
 facet normal -1.000000 0.000000 0.000000
  outer loop
   vertex -1.500000 -0.000000 0.000000
   vertex -1.500000 0.497593 -0.049008
   vertex -1.500000 0.494589 -0.073364
  endloop
 endfacet
 facet normal -1.000000 0.000000 0.000000
  outer loop
   vertex -1.500000 -0.000000 0.000000
   vertex -1.500000 0.494589 -0.073364
   vertex -1.500000 0.490393 -0.097544
  endloop
 endfacet
 facet normal -1.000000 0.000000 0.000000
  outer loop
   vertex -1.500000 -0.000000 0.000000
   vertex -1.500000 0.490393 -0.097544
   vertex -1.500000 0.485016 -0.121489
  endloop
 endfacet
 facet normal -1.000000 0.000000 0.000000
  outer loop
   vertex -1.500000 -0.000000 0.000000
   vertex -1.500000 0.485016 -0.121489
   vertex -1.500000 0.478471 -0.145141
  endloop
 endfacet
 facet normal -1.000000 0.000000 0.000000
  outer loop
   vertex -1.500000 -0.000000 0.000000
   vertex -1.500000 0.478471 -0.145141
   vertex -1.500000 0.470773 -0.168444
  endloop
 endfacet
 facet normal -1.000000 0.000000 0.000000
  outer loop
   vertex -1.500000 -0.000000 0.000000
   vertex -1.500000 0.470773 -0.168444
   vertex -1.500000 0.461940 -0.191341
  endloop
 endfacet
 facet normal -1.000000 0.000000 0.000000
  outer loop
   vertex -1.500000 -0.000000 0.000000
   vertex -1.500000 0.461940 -0.191341
   vertex -1.500000 0.451995 -0.213776
  endloop
 endfacet
 facet normal -1.000000 0.000000 0.000000
  outer loop
   vertex -1.500000 -0.000000 0.000000
   vertex -1.500000 0.451995 -0.213776
   vertex -1.500000 0.440961 -0.235697
  endloop
 endfacet
 facet normal -1.000000 0.000000 0.000000
  outer loop
   vertex -1.500000 -0.000000 0.000000
   vertex -1.500000 0.440961 -0.235697
   vertex -1.500000 0.428865 -0.257050
  endloop
 endfacet
 facet normal -1.000000 0.000000 0.000000
  outer loop
   vertex -1.500000 -0.000000 0.000000
   vertex -1.500000 0.428865 -0.257050
   vertex -1.500000 0.415736 -0.277784
  endloop
 endfacet
 facet normal -1.000000 0.000000 0.000000
  outer loop
   vertex -1.500000 -0.000000 0.000000
   vertex -1.500000 0.415736 -0.277784
   vertex -1.500000 0.401605 -0.297848
  endloop
 endfacet
 facet normal -1.000000 0.000000 0.000000
  outer loop
   vertex -1.500000 -0.000000 0.000000
   vertex -1.500000 0.401605 -0.297848
   vertex -1.500000 0.386506 -0.317195
  endloop
 endfacet
 facet normal -1.000000 0.000000 0.000000
  outer loop
   vertex -1.500000 -0.000000 0.000000
   vertex -1.500000 0.386506 -0.317195
   vertex -1.500000 0.370477 -0.335778
  endloop
 endfacet
 facet normal -1.000000 0.000000 0.000000
  outer loop
   vertex -1.500000 -0.000000 0.000000
   vertex -1.500000 0.370477 -0.335778
   vertex -1.500000 0.353555 -0.353552
  endloop
 endfacet
 facet normal -1.000000 0.000000 0.000000
  outer loop
   vertex -1.500000 -0.000000 0.000000
   vertex -1.500000 0.353555 -0.353552
   vertex -1.500000 0.335781 -0.370474
  endloop
 endfacet
 facet normal -1.000000 0.000000 0.000000
  outer loop
   vertex -1.500000 -0.000000 0.000000
   vertex -1.500000 0.335781 -0.370474
   vertex -1.500000 0.317198 -0.386504
  endloop
 endfacet
 facet normal -1.000000 0.000000 0.000000
  outer loop
   vertex -1.500000 -0.000000 0.000000
   vertex -1.500000 0.317198 -0.386504
   vertex -1.500000 0.297851 -0.401603
  endloop
 endfacet
 facet normal -1.000000 0.000000 0.000000
  outer loop
   vertex -1.500000 -0.000000 0.000000
   vertex -1.500000 0.297851 -0.401603
   vertex -1.500000 0.277787 -0.415734
  endloop
 endfacet
 facet normal -1.000000 0.000000 0.000000
  outer loop
   vertex -1.500000 -0.000000 0.000000
   vertex -1.500000 0.277787 -0.415734
   vertex -1.500000 0.257053 -0.428864
  endloop
 endfacet
 facet normal -1.000000 0.000000 0.000000
  outer loop
   vertex -1.500000 -0.000000 0.000000
   vertex -1.500000 0.257053 -0.428864
   vertex -1.500000 0.235700 -0.440960
  endloop
 endfacet
 facet normal -1.000000 0.000000 0.000000
  outer loop
   vertex -1.500000 -0.000000 0.000000
   vertex -1.500000 0.235700 -0.440960
   vertex -1.500000 0.213779 -0.451994
  endloop
 endfacet
 facet normal -1.000000 0.000000 0.000000
  outer loop
   vertex -1.500000 -0.000000 0.000000
   vertex -1.500000 0.213779 -0.451994
   vertex -1.500000 0.191343 -0.461939
  endloop
 endfacet
 facet normal -1.000000 0.000000 0.000000
  outer loop
   vertex -1.500000 -0.000000 0.000000
   vertex -1.500000 0.191343 -0.461939
   vertex -1.500000 0.168446 -0.470772
  endloop
 endfacet
 facet normal -1.000000 0.000000 0.000000
  outer loop
   vertex -1.500000 -0.000000 0.000000
   vertex -1.500000 0.168446 -0.470772
   vertex -1.500000 0.145144 -0.478470
  endloop
 endfacet
 facet normal -1.000000 0.000000 0.000000
  outer loop
   vertex -1.500000 -0.000000 0.000000
   vertex -1.500000 0.145144 -0.478470
   vertex -1.500000 0.121491 -0.485015
  endloop
 endfacet
 facet normal -1.000000 0.000000 0.000000
  outer loop
   vertex -1.500000 -0.000000 0.000000
   vertex -1.500000 0.121491 -0.485015
   vertex -1.500000 0.097546 -0.490392
  endloop
 endfacet
 facet normal -1.000000 0.000000 0.000000
  outer loop
   vertex -1.500000 -0.000000 0.000000
   vertex -1.500000 0.097546 -0.490392
   vertex -1.500000 0.073366 -0.494588
  endloop
 endfacet
 facet normal -1.000000 0.000000 0.000000
  outer loop
   vertex -1.500000 -0.000000 0.000000
   vertex -1.500000 0.073366 -0.494588
   vertex -1.500000 0.049010 -0.497592
  endloop
 endfacet
 facet normal -1.000000 0.000000 0.000000
  outer loop
   vertex -1.500000 -0.000000 0.000000
   vertex -1.500000 0.049010 -0.497592
   vertex -1.500000 0.024535 -0.499398
  endloop
 endfacet
 facet normal -1.000000 0.000000 0.000000
  outer loop
   vertex -1.500000 -0.000000 0.000000
   vertex -1.500000 0.024535 -0.499398
   vertex -1.500000 0.000001 -0.500000
  endloop
 endfacet
 facet normal -1.000000 0.000000 0.000000
  outer loop
   vertex -1.500000 -0.000000 0.000000
   vertex -1.500000 0.000001 -0.500000
   vertex -1.500000 -0.024533 -0.499398
  endloop
 endfacet
 facet normal -1.000000 0.000000 0.000000
  outer loop
   vertex -1.500000 -0.000000 0.000000
   vertex -1.500000 -0.024533 -0.499398
   vertex -1.500000 -0.049008 -0.497592
  endloop
 endfacet
 facet normal -1.000000 0.000000 0.000000
  outer loop
   vertex -1.500000 -0.000000 0.000000
   vertex -1.500000 -0.049008 -0.497592
   vertex -1.500000 -0.073365 -0.494588
  endloop
 endfacet
 facet normal -1.000000 0.000000 0.000000
  outer loop
   vertex -1.500000 -0.000000 0.000000
   vertex -1.500000 -0.073365 -0.494588
   vertex -1.500000 -0.097545 -0.490393
  endloop
 endfacet
 facet normal -1.000000 0.000000 0.000000
  outer loop
   vertex -1.500000 -0.000000 0.000000
   vertex -1.500000 -0.097545 -0.490393
   vertex -1.500000 -0.121490 -0.485016
  endloop
 endfacet
 facet normal -1.000000 0.000000 0.000000
  outer loop
   vertex -1.500000 -0.000000 0.000000
   vertex -1.500000 -0.121490 -0.485016
   vertex -1.500000 -0.145142 -0.478470
  endloop
 endfacet
 facet normal -1.000000 0.000000 0.000000
  outer loop
   vertex -1.500000 -0.000000 0.000000
   vertex -1.500000 -0.145142 -0.478470
   vertex -1.500000 -0.168445 -0.470772
  endloop
 endfacet
 facet normal -1.000000 0.000000 0.000000
  outer loop
   vertex -1.500000 -0.000000 0.000000
   vertex -1.500000 -0.168445 -0.470772
   vertex -1.500000 -0.191341 -0.461940
  endloop
 endfacet
 facet normal -1.000000 0.000000 0.000000
  outer loop
   vertex -1.500000 -0.000000 0.000000
   vertex -1.500000 -0.191341 -0.461940
   vertex -1.500000 -0.213777 -0.451995
  endloop
 endfacet
 facet normal -1.000000 0.000000 0.000000
  outer loop
   vertex -1.500000 -0.000000 0.000000
   vertex -1.500000 -0.213777 -0.451995
   vertex -1.500000 -0.235698 -0.440961
  endloop
 endfacet
 facet normal -1.000000 0.000000 0.000000
  outer loop
   vertex -1.500000 -0.000000 0.000000
   vertex -1.500000 -0.235698 -0.440961
   vertex -1.500000 -0.257051 -0.428864
  endloop
 endfacet
 facet normal -1.000000 0.000000 0.000000
  outer loop
   vertex -1.500000 -0.000000 0.000000
   vertex -1.500000 -0.257051 -0.428864
   vertex -1.500000 -0.277785 -0.415735
  endloop
 endfacet
 facet normal -1.000000 0.000000 0.000000
  outer loop
   vertex -1.500000 -0.000000 0.000000
   vertex -1.500000 -0.277785 -0.415735
   vertex -1.500000 -0.297850 -0.401604
  endloop
 endfacet
 facet normal -1.000000 0.000000 0.000000
  outer loop
   vertex -1.500000 -0.000000 0.000000
   vertex -1.500000 -0.297850 -0.401604
   vertex -1.500000 -0.317197 -0.386505
  endloop
 endfacet
 facet normal -1.000000 0.000000 0.000000
  outer loop
   vertex -1.500000 -0.000000 0.000000
   vertex -1.500000 -0.317197 -0.386505
   vertex -1.500000 -0.335780 -0.370475
  endloop
 endfacet
 facet normal -1.000000 0.000000 0.000000
  outer loop
   vertex -1.500000 -0.000000 0.000000
   vertex -1.500000 -0.335780 -0.370475
   vertex -1.500000 -0.353554 -0.353553
  endloop
 endfacet
 facet normal -1.000000 0.000000 0.000000
  outer loop
   vertex -1.500000 -0.000000 0.000000
   vertex -1.500000 -0.353554 -0.353553
   vertex -1.500000 -0.370476 -0.335779
  endloop
 endfacet
 facet normal -1.000000 0.000000 0.000000
  outer loop
   vertex -1.500000 -0.000000 0.000000
   vertex -1.500000 -0.370476 -0.335779
   vertex -1.500000 -0.386506 -0.317196
  endloop
 endfacet
 facet normal -1.000000 0.000000 0.000000
  outer loop
   vertex -1.500000 -0.000000 0.000000
   vertex -1.500000 -0.386506 -0.317196
   vertex -1.500000 -0.401604 -0.297849
  endloop
 endfacet
 facet normal -1.000000 0.000000 0.000000
  outer loop
   vertex -1.500000 -0.000000 0.000000
   vertex -1.500000 -0.401604 -0.297849
   vertex -1.500000 -0.415735 -0.277785
  endloop
 endfacet
 facet normal -1.000000 0.000000 0.000000
  outer loop
   vertex -1.500000 -0.000000 0.000000
   vertex -1.500000 -0.415735 -0.277785
   vertex -1.500000 -0.428865 -0.257051
  endloop
 endfacet
 facet normal -1.000000 0.000000 0.000000
  outer loop
   vertex -1.500000 -0.000000 0.000000
   vertex -1.500000 -0.428865 -0.257051
   vertex -1.500000 -0.440961 -0.235698
  endloop
 endfacet
 facet normal -1.000000 0.000000 0.000000
  outer loop
   vertex -1.500000 -0.000000 0.000000
   vertex -1.500000 -0.440961 -0.235698
   vertex -1.500000 -0.451995 -0.213777
  endloop
 endfacet
 facet normal -1.000000 0.000000 0.000000
  outer loop
   vertex -1.500000 -0.000000 0.000000
   vertex -1.500000 -0.451995 -0.213777
   vertex -1.500000 -0.461940 -0.191341
  endloop
 endfacet
 facet normal -1.000000 0.000000 0.000000
  outer loop
   vertex -1.500000 -0.000000 0.000000
   vertex -1.500000 -0.461940 -0.191341
   vertex -1.500000 -0.470772 -0.168444
  endloop
 endfacet
 facet normal -1.000000 0.000000 0.000000
  outer loop
   vertex -1.500000 -0.000000 0.000000
   vertex -1.500000 -0.470772 -0.168444
   vertex -1.500000 -0.478470 -0.145141
  endloop
 endfacet
 facet normal -1.000000 0.000000 0.000000
  outer loop
   vertex -1.500000 -0.000000 0.000000
   vertex -1.500000 -0.478470 -0.145141
   vertex -1.500000 -0.485016 -0.121489
  endloop
 endfacet
 facet normal -1.000000 0.000000 0.000000
  outer loop
   vertex -1.500000 -0.000000 0.000000
   vertex -1.500000 -0.485016 -0.121489
   vertex -1.500000 -0.490393 -0.097544
  endloop
 endfacet
 facet normal -1.000000 0.000000 0.000000
  outer loop
   vertex -1.500000 -0.000000 0.000000
   vertex -1.500000 -0.490393 -0.097544
   vertex -1.500000 -0.494588 -0.073364
  endloop
 endfacet
 facet normal -1.000000 0.000000 0.000000
  outer loop
   vertex -1.500000 -0.000000 0.000000
   vertex -1.500000 -0.494588 -0.073364
   vertex -1.500000 -0.497592 -0.049007
  endloop
 endfacet
 facet normal -1.000000 0.000000 0.000000
  outer loop
   vertex -1.500000 -0.000000 0.000000
   vertex -1.500000 -0.497592 -0.049007
   vertex -1.500000 -0.499398 -0.024532
  endloop
 endfacet
 facet normal -1.000000 0.000000 0.000000
  outer loop
   vertex -1.500000 -0.000000 0.000000
   vertex -1.500000 -0.499398 -0.024532
   vertex -1.500000 -0.500000 0.000001
  endloop
 endfacet
 facet normal -1.000000 0.000000 0.000000
  outer loop
   vertex -1.500000 -0.000000 0.000000
   vertex -1.500000 -0.500000 0.000001
   vertex -1.500000 -0.499398 0.024534
  endloop
 endfacet
endsolid
