solid stl file generated from AC3D
 facet normal 0.000000 -0.290285 -0.956940
  outer loop
   vertex -2.000000 0.097545 0.490393
   vertex 2.000000 0.191342 0.461940
   vertex 2.000000 0.097545 0.490393
  endloop
 endfacet
 facet normal 0.000000 -0.290285 -0.956940
  outer loop
   vertex 2.000000 0.191342 0.461940
   vertex -2.000000 0.097545 0.490393
   vertex -2.000000 0.191342 0.461940
  endloop
 endfacet
 facet normal 0.000000 -0.471396 -0.881921
  outer loop
   vertex -2.000000 0.191342 0.461940
   vertex 2.000000 0.277785 0.415735
   vertex 2.000000 0.191342 0.461940
  endloop
 endfacet
 facet normal 0.000000 -0.471396 -0.881921
  outer loop
   vertex 2.000000 0.277785 0.415735
   vertex -2.000000 0.191342 0.461940
   vertex -2.000000 0.277785 0.415735
  endloop
 endfacet
 facet normal 0.000000 -0.634393 -0.773010
  outer loop
   vertex -2.000000 0.277785 0.415735
   vertex 2.000000 0.353553 0.353553
   vertex 2.000000 0.277785 0.415735
  endloop
 endfacet
 facet normal 0.000000 -0.634393 -0.773010
  outer loop
   vertex 2.000000 0.353553 0.353553
   vertex -2.000000 0.277785 0.415735
   vertex -2.000000 0.353553 0.353553
  endloop
 endfacet
 facet normal 0.000000 -0.773010 -0.634393
  outer loop
   vertex -2.000000 0.415735 0.277785
   vertex 2.000000 0.353553 0.353553
   vertex -2.000000 0.353553 0.353553
  endloop
 endfacet
 facet normal 0.000000 -0.773010 -0.634393
  outer loop
   vertex 2.000000 0.353553 0.353553
   vertex -2.000000 0.415735 0.277785
   vertex 2.000000 0.415735 0.277785
  endloop
 endfacet
 facet normal 0.000000 -0.881921 -0.471397
  outer loop
   vertex -2.000000 0.461940 0.191342
   vertex 2.000000 0.415735 0.277785
   vertex -2.000000 0.415735 0.277785
  endloop
 endfacet
 facet normal 0.000000 -0.881921 -0.471397
  outer loop
   vertex 2.000000 0.415735 0.277785
   vertex -2.000000 0.461940 0.191342
   vertex 2.000000 0.461940 0.191342
  endloop
 endfacet
 facet normal 0.000000 -0.956940 -0.290285
  outer loop
   vertex -2.000000 0.490393 0.097545
   vertex 2.000000 0.461940 0.191342
   vertex -2.000000 0.461940 0.191342
  endloop
 endfacet
 facet normal 0.000000 -0.956940 -0.290285
  outer loop
   vertex 2.000000 0.461940 0.191342
   vertex -2.000000 0.490393 0.097545
   vertex 2.000000 0.490393 0.097545
  endloop
 endfacet
 facet normal 0.000000 -0.995185 -0.098017
  outer loop
   vertex -2.000000 0.500000 0.000000
   vertex 2.000000 0.490393 0.097545
   vertex -2.000000 0.490393 0.097545
  endloop
 endfacet
 facet normal 0.000000 -0.995185 -0.098017
  outer loop
   vertex 2.000000 0.490393 0.097545
   vertex -2.000000 0.500000 0.000000
   vertex 2.000000 0.500000 0.000000
  endloop
 endfacet
 facet normal 0.000000 -0.995185 0.098017
  outer loop
   vertex -2.000000 0.490393 -0.097545
   vertex 2.000000 0.500000 0.000000
   vertex -2.000000 0.500000 0.000000
  endloop
 endfacet
 facet normal 0.000000 -0.995185 0.098017
  outer loop
   vertex 2.000000 0.500000 0.000000
   vertex -2.000000 0.490393 -0.097545
   vertex 2.000000 0.490393 -0.097545
  endloop
 endfacet
 facet normal 0.000000 -0.956940 0.290285
  outer loop
   vertex -2.000000 0.461940 -0.191342
   vertex 2.000000 0.490393 -0.097545
   vertex -2.000000 0.490393 -0.097545
  endloop
 endfacet
 facet normal 0.000000 -0.956940 0.290285
  outer loop
   vertex 2.000000 0.490393 -0.097545
   vertex -2.000000 0.461940 -0.191342
   vertex 2.000000 0.461940 -0.191342
  endloop
 endfacet
 facet normal 0.000000 -0.881921 0.471397
  outer loop
   vertex -2.000000 0.415735 -0.277785
   vertex 2.000000 0.461940 -0.191342
   vertex -2.000000 0.461940 -0.191342
  endloop
 endfacet
 facet normal 0.000000 -0.881921 0.471397
  outer loop
   vertex 2.000000 0.461940 -0.191342
   vertex -2.000000 0.415735 -0.277785
   vertex 2.000000 0.415735 -0.277785
  endloop
 endfacet
 facet normal 0.000000 -0.773010 0.634393
  outer loop
   vertex -2.000000 0.353553 -0.353553
   vertex 2.000000 0.415735 -0.277785
   vertex -2.000000 0.415735 -0.277785
  endloop
 endfacet
 facet normal 0.000000 -0.773010 0.634393
  outer loop
   vertex 2.000000 0.415735 -0.277785
   vertex -2.000000 0.353553 -0.353553
   vertex 2.000000 0.353553 -0.353553
  endloop
 endfacet
 facet normal 0.000000 -0.634394 0.773010
  outer loop
   vertex -2.000000 0.353553 -0.353553
   vertex 2.000000 0.277785 -0.415735
   vertex 2.000000 0.353553 -0.353553
  endloop
 endfacet
 facet normal 0.000000 -0.634394 0.773010
  outer loop
   vertex 2.000000 0.277785 -0.415735
   vertex -2.000000 0.353553 -0.353553
   vertex -2.000000 0.277785 -0.415735
  endloop
 endfacet
 facet normal 0.000000 -0.471396 0.881921
  outer loop
   vertex -2.000000 0.277785 -0.415735
   vertex 2.000000 0.191342 -0.461940
   vertex 2.000000 0.277785 -0.415735
  endloop
 endfacet
 facet normal 0.000000 -0.471396 0.881921
  outer loop
   vertex 2.000000 0.191342 -0.461940
   vertex -2.000000 0.277785 -0.415735
   vertex -2.000000 0.191342 -0.461940
  endloop
 endfacet
 facet normal 0.000000 -0.290285 0.956940
  outer loop
   vertex -2.000000 0.191342 -0.461940
   vertex 2.000000 0.097545 -0.490393
   vertex 2.000000 0.191342 -0.461940
  endloop
 endfacet
 facet normal 0.000000 -0.290285 0.956940
  outer loop
   vertex 2.000000 0.097545 -0.490393
   vertex -2.000000 0.191342 -0.461940
   vertex -2.000000 0.097545 -0.490393
  endloop
 endfacet
 facet normal 0.000000 -0.098017 0.995185
  outer loop
   vertex -2.000000 0.097545 -0.490393
   vertex 2.000000 -0.000000 -0.500000
   vertex 2.000000 0.097545 -0.490393
  endloop
 endfacet
 facet normal 0.000000 -0.098017 0.995185
  outer loop
   vertex 2.000000 -0.000000 -0.500000
   vertex -2.000000 0.097545 -0.490393
   vertex -2.000000 -0.000000 -0.500000
  endloop
 endfacet
 facet normal 0.000000 0.098017 0.995185
  outer loop
   vertex -2.000000 -0.000000 -0.500000
   vertex 2.000000 -0.097545 -0.490393
   vertex 2.000000 -0.000000 -0.500000
  endloop
 endfacet
 facet normal 0.000000 0.098017 0.995185
  outer loop
   vertex 2.000000 -0.097545 -0.490393
   vertex -2.000000 -0.000000 -0.500000
   vertex -2.000000 -0.097545 -0.490393
  endloop
 endfacet
 facet normal 0.000000 0.290285 0.956940
  outer loop
   vertex -2.000000 -0.097545 -0.490393
   vertex 2.000000 -0.191342 -0.461940
   vertex 2.000000 -0.097545 -0.490393
  endloop
 endfacet
 facet normal 0.000000 0.290285 0.956940
  outer loop
   vertex 2.000000 -0.191342 -0.461940
   vertex -2.000000 -0.097545 -0.490393
   vertex -2.000000 -0.191342 -0.461940
  endloop
 endfacet
 facet normal 0.000000 0.471397 0.881921
  outer loop
   vertex -2.000000 -0.191342 -0.461940
   vertex 2.000000 -0.277785 -0.415735
   vertex 2.000000 -0.191342 -0.461940
  endloop
 endfacet
 facet normal 0.000000 0.471397 0.881921
  outer loop
   vertex 2.000000 -0.277785 -0.415735
   vertex -2.000000 -0.191342 -0.461940
   vertex -2.000000 -0.277785 -0.415735
  endloop
 endfacet
 facet normal 0.000000 0.634394 0.773010
  outer loop
   vertex -2.000000 -0.277785 -0.415735
   vertex 2.000000 -0.353554 -0.353553
   vertex 2.000000 -0.277785 -0.415735
  endloop
 endfacet
 facet normal 0.000000 0.634394 0.773010
  outer loop
   vertex 2.000000 -0.353554 -0.353553
   vertex -2.000000 -0.277785 -0.415735
   vertex -2.000000 -0.353554 -0.353553
  endloop
 endfacet
 facet normal 0.000000 0.773011 0.634393
  outer loop
   vertex 2.000000 -0.353554 -0.353553
   vertex -2.000000 -0.415735 -0.277785
   vertex 2.000000 -0.415735 -0.277785
  endloop
 endfacet
 facet normal 0.000000 0.773011 0.634393
  outer loop
   vertex -2.000000 -0.415735 -0.277785
   vertex 2.000000 -0.353554 -0.353553
   vertex -2.000000 -0.353554 -0.353553
  endloop
 endfacet
 facet normal 0.000000 0.881922 0.471396
  outer loop
   vertex 2.000000 -0.415735 -0.277785
   vertex -2.000000 -0.461940 -0.191341
   vertex 2.000000 -0.461940 -0.191341
  endloop
 endfacet
 facet normal 0.000000 0.881922 0.471396
  outer loop
   vertex -2.000000 -0.461940 -0.191341
   vertex 2.000000 -0.415735 -0.277785
   vertex -2.000000 -0.415735 -0.277785
  endloop
 endfacet
 facet normal 0.000000 0.956941 0.290284
  outer loop
   vertex 2.000000 -0.461940 -0.191341
   vertex -2.000000 -0.490393 -0.097545
   vertex 2.000000 -0.490393 -0.097545
  endloop
 endfacet
 facet normal 0.000000 0.956941 0.290284
  outer loop
   vertex -2.000000 -0.490393 -0.097545
   vertex 2.000000 -0.461940 -0.191341
   vertex -2.000000 -0.461940 -0.191341
  endloop
 endfacet
 facet normal 0.000000 0.995185 0.098016
  outer loop
   vertex 2.000000 -0.490393 -0.097545
   vertex -2.000000 -0.500000 0.000000
   vertex 2.000000 -0.500000 0.000000
  endloop
 endfacet
 facet normal 0.000000 0.995185 0.098016
  outer loop
   vertex -2.000000 -0.500000 0.000000
   vertex 2.000000 -0.490393 -0.097545
   vertex -2.000000 -0.490393 -0.097545
  endloop
 endfacet
 facet normal 0.000000 0.995185 -0.098018
  outer loop
   vertex 2.000000 -0.500000 0.000000
   vertex -2.000000 -0.490393 0.097546
   vertex 2.000000 -0.490393 0.097546
  endloop
 endfacet
 facet normal 0.000000 0.995185 -0.098018
  outer loop
   vertex -2.000000 -0.490393 0.097546
   vertex 2.000000 -0.500000 0.000000
   vertex -2.000000 -0.500000 0.000000
  endloop
 endfacet
 facet normal 0.000000 0.956940 -0.290286
  outer loop
   vertex 2.000000 -0.490393 0.097546
   vertex -2.000000 -0.461940 0.191342
   vertex 2.000000 -0.461940 0.191342
  endloop
 endfacet
 facet normal 0.000000 0.956940 -0.290286
  outer loop
   vertex -2.000000 -0.461940 0.191342
   vertex 2.000000 -0.490393 0.097546
   vertex -2.000000 -0.490393 0.097546
  endloop
 endfacet
 facet normal 0.000000 0.881921 -0.471397
  outer loop
   vertex 2.000000 -0.461940 0.191342
   vertex -2.000000 -0.415734 0.277786
   vertex 2.000000 -0.415734 0.277786
  endloop
 endfacet
 facet normal 0.000000 0.881921 -0.471397
  outer loop
   vertex -2.000000 -0.415734 0.277786
   vertex 2.000000 -0.461940 0.191342
   vertex -2.000000 -0.461940 0.191342
  endloop
 endfacet
 facet normal 0.000000 0.773010 -0.634394
  outer loop
   vertex 2.000000 -0.415734 0.277786
   vertex -2.000000 -0.353553 0.353554
   vertex 2.000000 -0.353553 0.353554
  endloop
 endfacet
 facet normal 0.000000 0.773010 -0.634394
  outer loop
   vertex -2.000000 -0.353553 0.353554
   vertex 2.000000 -0.415734 0.277786
   vertex -2.000000 -0.415734 0.277786
  endloop
 endfacet
 facet normal 0.000000 0.634393 -0.773011
  outer loop
   vertex -2.000000 -0.353553 0.353554
   vertex 2.000000 -0.277785 0.415735
   vertex 2.000000 -0.353553 0.353554
  endloop
 endfacet
 facet normal 0.000000 0.634393 -0.773011
  outer loop
   vertex 2.000000 -0.277785 0.415735
   vertex -2.000000 -0.353553 0.353554
   vertex -2.000000 -0.277785 0.415735
  endloop
 endfacet
 facet normal 0.000000 0.471395 -0.881922
  outer loop
   vertex -2.000000 -0.277785 0.415735
   vertex 2.000000 -0.191341 0.461940
   vertex 2.000000 -0.277785 0.415735
  endloop
 endfacet
 facet normal 0.000000 0.471395 -0.881922
  outer loop
   vertex 2.000000 -0.191341 0.461940
   vertex -2.000000 -0.277785 0.415735
   vertex -2.000000 -0.191341 0.461940
  endloop
 endfacet
 facet normal 0.000000 0.290282 -0.956941
  outer loop
   vertex -2.000000 -0.191341 0.461940
   vertex 2.000000 -0.097544 0.490393
   vertex 2.000000 -0.191341 0.461940
  endloop
 endfacet
 facet normal 0.000000 0.290282 -0.956941
  outer loop
   vertex 2.000000 -0.097544 0.490393
   vertex -2.000000 -0.191341 0.461940
   vertex -2.000000 -0.097544 0.490393
  endloop
 endfacet
 facet normal 0.000000 0.098016 -0.995185
  outer loop
   vertex -2.000000 -0.097544 0.490393
   vertex 2.000000 0.000001 0.500000
   vertex 2.000000 -0.097544 0.490393
  endloop
 endfacet
 facet normal 0.000000 0.098016 -0.995185
  outer loop
   vertex 2.000000 0.000001 0.500000
   vertex -2.000000 -0.097544 0.490393
   vertex -2.000000 0.000001 0.500000
  endloop
 endfacet
 facet normal 0.000000 -0.098018 -0.995185
  outer loop
   vertex -2.000000 0.000001 0.500000
   vertex 2.000000 0.097545 0.490393
   vertex 2.000000 0.000001 0.500000
  endloop
 endfacet
 facet normal 0.000000 -0.098018 -0.995185
  outer loop
   vertex 2.000000 0.097545 0.490393
   vertex -2.000000 0.000001 0.500000
   vertex -2.000000 0.097545 0.490393
  endloop
 endfacet
 facet normal -1.000000 0.000000 0.000000
  outer loop
   vertex 2.000000 0.097545 0.490393
   vertex 2.000000 0.191342 0.461940
   vertex 2.000000 0.000000 0.000000
  endloop
 endfacet
 facet normal -1.000000 0.000000 0.000000
  outer loop
   vertex 2.000000 0.191342 0.461940
   vertex 2.000000 0.277785 0.415735
   vertex 2.000000 0.000000 0.000000
  endloop
 endfacet
 facet normal -1.000000 0.000000 0.000000
  outer loop
   vertex 2.000000 0.277785 0.415735
   vertex 2.000000 0.353553 0.353553
   vertex 2.000000 0.000000 0.000000
  endloop
 endfacet
 facet normal -1.000000 0.000000 0.000000
  outer loop
   vertex 2.000000 0.353553 0.353553
   vertex 2.000000 0.415735 0.277785
   vertex 2.000000 0.000000 0.000000
  endloop
 endfacet
 facet normal -1.000000 0.000000 0.000000
  outer loop
   vertex 2.000000 0.415735 0.277785
   vertex 2.000000 0.461940 0.191342
   vertex 2.000000 0.000000 0.000000
  endloop
 endfacet
 facet normal -1.000000 0.000000 0.000000
  outer loop
   vertex 2.000000 0.461940 0.191342
   vertex 2.000000 0.490393 0.097545
   vertex 2.000000 0.000000 0.000000
  endloop
 endfacet
 facet normal -1.000000 0.000000 0.000000
  outer loop
   vertex 2.000000 0.490393 0.097545
   vertex 2.000000 0.500000 0.000000
   vertex 2.000000 0.000000 0.000000
  endloop
 endfacet
 facet normal -1.000000 0.000000 0.000000
  outer loop
   vertex 2.000000 0.500000 0.000000
   vertex 2.000000 0.490393 -0.097545
   vertex 2.000000 0.000000 0.000000
  endloop
 endfacet
 facet normal -1.000000 0.000000 0.000000
  outer loop
   vertex 2.000000 0.490393 -0.097545
   vertex 2.000000 0.461940 -0.191342
   vertex 2.000000 0.000000 0.000000
  endloop
 endfacet
 facet normal -1.000000 0.000000 0.000000
  outer loop
   vertex 2.000000 0.461940 -0.191342
   vertex 2.000000 0.415735 -0.277785
   vertex 2.000000 0.000000 0.000000
  endloop
 endfacet
 facet normal -1.000000 0.000000 0.000000
  outer loop
   vertex 2.000000 0.415735 -0.277785
   vertex 2.000000 0.353553 -0.353553
   vertex 2.000000 0.000000 0.000000
  endloop
 endfacet
 facet normal -1.000000 0.000000 0.000000
  outer loop
   vertex 2.000000 0.353553 -0.353553
   vertex 2.000000 0.277785 -0.415735
   vertex 2.000000 0.000000 0.000000
  endloop
 endfacet
 facet normal -1.000000 0.000000 0.000000
  outer loop
   vertex 2.000000 0.277785 -0.415735
   vertex 2.000000 0.191342 -0.461940
   vertex 2.000000 0.000000 0.000000
  endloop
 endfacet
 facet normal -1.000000 0.000000 0.000000
  outer loop
   vertex 2.000000 0.191342 -0.461940
   vertex 2.000000 0.097545 -0.490393
   vertex 2.000000 0.000000 0.000000
  endloop
 endfacet
 facet normal -1.000000 0.000000 0.000000
  outer loop
   vertex 2.000000 0.097545 -0.490393
   vertex 2.000000 -0.000000 -0.500000
   vertex 2.000000 0.000000 0.000000
  endloop
 endfacet
 facet normal -1.000000 0.000000 0.000000
  outer loop
   vertex 2.000000 -0.000000 -0.500000
   vertex 2.000000 -0.097545 -0.490393
   vertex 2.000000 0.000000 0.000000
  endloop
 endfacet
 facet normal -1.000000 0.000000 0.000000
  outer loop
   vertex 2.000000 -0.097545 -0.490393
   vertex 2.000000 -0.191342 -0.461940
   vertex 2.000000 0.000000 0.000000
  endloop
 endfacet
 facet normal -1.000000 0.000000 0.000000
  outer loop
   vertex 2.000000 -0.191342 -0.461940
   vertex 2.000000 -0.277785 -0.415735
   vertex 2.000000 0.000000 0.000000
  endloop
 endfacet
 facet normal -1.000000 0.000000 0.000000
  outer loop
   vertex 2.000000 -0.277785 -0.415735
   vertex 2.000000 -0.353554 -0.353553
   vertex 2.000000 0.000000 0.000000
  endloop
 endfacet
 facet normal -1.000000 0.000000 0.000000
  outer loop
   vertex 2.000000 -0.353554 -0.353553
   vertex 2.000000 -0.415735 -0.277785
   vertex 2.000000 0.000000 0.000000
  endloop
 endfacet
 facet normal -1.000000 0.000000 0.000000
  outer loop
   vertex 2.000000 -0.415735 -0.277785
   vertex 2.000000 -0.461940 -0.191341
   vertex 2.000000 0.000000 0.000000
  endloop
 endfacet
 facet normal -1.000000 0.000000 0.000000
  outer loop
   vertex 2.000000 -0.461940 -0.191341
   vertex 2.000000 -0.490393 -0.097545
   vertex 2.000000 0.000000 0.000000
  endloop
 endfacet
 facet normal -1.000000 0.000000 0.000000
  outer loop
   vertex 2.000000 -0.490393 -0.097545
   vertex 2.000000 -0.500000 0.000000
   vertex 2.000000 0.000000 0.000000
  endloop
 endfacet
 facet normal -1.000000 0.000000 0.000000
  outer loop
   vertex 2.000000 -0.500000 0.000000
   vertex 2.000000 -0.490393 0.097546
   vertex 2.000000 0.000000 0.000000
  endloop
 endfacet
 facet normal -1.000000 0.000000 0.000000
  outer loop
   vertex 2.000000 -0.490393 0.097546
   vertex 2.000000 -0.461940 0.191342
   vertex 2.000000 0.000000 0.000000
  endloop
 endfacet
 facet normal -1.000000 0.000000 0.000000
  outer loop
   vertex 2.000000 -0.461940 0.191342
   vertex 2.000000 -0.415734 0.277786
   vertex 2.000000 0.000000 0.000000
  endloop
 endfacet
 facet normal -1.000000 0.000000 0.000000
  outer loop
   vertex 2.000000 -0.415734 0.277786
   vertex 2.000000 -0.353553 0.353554
   vertex 2.000000 0.000000 0.000000
  endloop
 endfacet
 facet normal -1.000000 0.000000 0.000000
  outer loop
   vertex 2.000000 -0.353553 0.353554
   vertex 2.000000 -0.277785 0.415735
   vertex 2.000000 0.000000 0.000000
  endloop
 endfacet
 facet normal -1.000000 0.000000 0.000000
  outer loop
   vertex 2.000000 -0.277785 0.415735
   vertex 2.000000 -0.191341 0.461940
   vertex 2.000000 0.000000 0.000000
  endloop
 endfacet
 facet normal -1.000000 0.000000 0.000000
  outer loop
   vertex 2.000000 -0.191341 0.461940
   vertex 2.000000 -0.097544 0.490393
   vertex 2.000000 0.000000 0.000000
  endloop
 endfacet
 facet normal -1.000000 0.000000 0.000000
  outer loop
   vertex 2.000000 -0.097544 0.490393
   vertex 2.000000 0.000001 0.500000
   vertex 2.000000 0.000000 0.000000
  endloop
 endfacet
 facet normal -1.000000 0.000000 0.000000
  outer loop
   vertex 2.000000 0.000001 0.500000
   vertex 2.000000 0.097545 0.490393
   vertex 2.000000 0.000000 0.000000
  endloop
 endfacet
 facet normal 1.000000 0.000000 0.000000
  outer loop
   vertex -2.000000 0.191342 0.461940
   vertex -2.000000 0.097545 0.490393
   vertex -2.000000 0.000000 0.000000
  endloop
 endfacet
 facet normal 1.000000 0.000000 0.000000
  outer loop
   vertex -2.000000 0.277785 0.415735
   vertex -2.000000 0.191342 0.461940
   vertex -2.000000 0.000000 0.000000
  endloop
 endfacet
 facet normal 1.000000 0.000000 0.000000
  outer loop
   vertex -2.000000 0.353553 0.353553
   vertex -2.000000 0.277785 0.415735
   vertex -2.000000 0.000000 0.000000
  endloop
 endfacet
 facet normal 1.000000 0.000000 0.000000
  outer loop
   vertex -2.000000 0.415735 0.277785
   vertex -2.000000 0.353553 0.353553
   vertex -2.000000 0.000000 0.000000
  endloop
 endfacet
 facet normal 1.000000 0.000000 0.000000
  outer loop
   vertex -2.000000 0.461940 0.191342
   vertex -2.000000 0.415735 0.277785
   vertex -2.000000 0.000000 0.000000
  endloop
 endfacet
 facet normal 1.000000 0.000000 0.000000
  outer loop
   vertex -2.000000 0.490393 0.097545
   vertex -2.000000 0.461940 0.191342
   vertex -2.000000 0.000000 0.000000
  endloop
 endfacet
 facet normal 1.000000 0.000000 0.000000
  outer loop
   vertex -2.000000 0.500000 0.000000
   vertex -2.000000 0.490393 0.097545
   vertex -2.000000 0.000000 0.000000
  endloop
 endfacet
 facet normal 1.000000 0.000000 0.000000
  outer loop
   vertex -2.000000 0.490393 -0.097545
   vertex -2.000000 0.500000 0.000000
   vertex -2.000000 0.000000 0.000000
  endloop
 endfacet
 facet normal 1.000000 0.000000 0.000000
  outer loop
   vertex -2.000000 0.461940 -0.191342
   vertex -2.000000 0.490393 -0.097545
   vertex -2.000000 0.000000 0.000000
  endloop
 endfacet
 facet normal 1.000000 0.000000 0.000000
  outer loop
   vertex -2.000000 0.415735 -0.277785
   vertex -2.000000 0.461940 -0.191342
   vertex -2.000000 0.000000 0.000000
  endloop
 endfacet
 facet normal 1.000000 0.000000 0.000000
  outer loop
   vertex -2.000000 0.353553 -0.353553
   vertex -2.000000 0.415735 -0.277785
   vertex -2.000000 0.000000 0.000000
  endloop
 endfacet
 facet normal 1.000000 0.000000 0.000000
  outer loop
   vertex -2.000000 0.277785 -0.415735
   vertex -2.000000 0.353553 -0.353553
   vertex -2.000000 0.000000 0.000000
  endloop
 endfacet
 facet normal 1.000000 0.000000 0.000000
  outer loop
   vertex -2.000000 0.191342 -0.461940
   vertex -2.000000 0.277785 -0.415735
   vertex -2.000000 0.000000 0.000000
  endloop
 endfacet
 facet normal 1.000000 0.000000 0.000000
  outer loop
   vertex -2.000000 0.097545 -0.490393
   vertex -2.000000 0.191342 -0.461940
   vertex -2.000000 0.000000 0.000000
  endloop
 endfacet
 facet normal 1.000000 0.000000 0.000000
  outer loop
   vertex -2.000000 -0.000000 -0.500000
   vertex -2.000000 0.097545 -0.490393
   vertex -2.000000 0.000000 0.000000
  endloop
 endfacet
 facet normal 1.000000 0.000000 0.000000
  outer loop
   vertex -2.000000 -0.097545 -0.490393
   vertex -2.000000 -0.000000 -0.500000
   vertex -2.000000 0.000000 0.000000
  endloop
 endfacet
 facet normal 1.000000 0.000000 0.000000
  outer loop
   vertex -2.000000 -0.191342 -0.461940
   vertex -2.000000 -0.097545 -0.490393
   vertex -2.000000 0.000000 0.000000
  endloop
 endfacet
 facet normal 1.000000 0.000000 0.000000
  outer loop
   vertex -2.000000 -0.277785 -0.415735
   vertex -2.000000 -0.191342 -0.461940
   vertex -2.000000 0.000000 0.000000
  endloop
 endfacet
 facet normal 1.000000 0.000000 0.000000
  outer loop
   vertex -2.000000 -0.353554 -0.353553
   vertex -2.000000 -0.277785 -0.415735
   vertex -2.000000 0.000000 0.000000
  endloop
 endfacet
 facet normal 1.000000 0.000000 0.000000
  outer loop
   vertex -2.000000 -0.415735 -0.277785
   vertex -2.000000 -0.353554 -0.353553
   vertex -2.000000 0.000000 0.000000
  endloop
 endfacet
 facet normal 1.000000 0.000000 0.000000
  outer loop
   vertex -2.000000 -0.461940 -0.191341
   vertex -2.000000 -0.415735 -0.277785
   vertex -2.000000 0.000000 0.000000
  endloop
 endfacet
 facet normal 1.000000 0.000000 0.000000
  outer loop
   vertex -2.000000 -0.490393 -0.097545
   vertex -2.000000 -0.461940 -0.191341
   vertex -2.000000 0.000000 0.000000
  endloop
 endfacet
 facet normal 1.000000 0.000000 0.000000
  outer loop
   vertex -2.000000 -0.500000 0.000000
   vertex -2.000000 -0.490393 -0.097545
   vertex -2.000000 0.000000 0.000000
  endloop
 endfacet
 facet normal 1.000000 0.000000 0.000000
  outer loop
   vertex -2.000000 -0.490393 0.097546
   vertex -2.000000 -0.500000 0.000000
   vertex -2.000000 0.000000 0.000000
  endloop
 endfacet
 facet normal 1.000000 0.000000 0.000000
  outer loop
   vertex -2.000000 -0.461940 0.191342
   vertex -2.000000 -0.490393 0.097546
   vertex -2.000000 0.000000 0.000000
  endloop
 endfacet
 facet normal 1.000000 0.000000 0.000000
  outer loop
   vertex -2.000000 -0.415734 0.277786
   vertex -2.000000 -0.461940 0.191342
   vertex -2.000000 0.000000 0.000000
  endloop
 endfacet
 facet normal 1.000000 0.000000 0.000000
  outer loop
   vertex -2.000000 -0.353553 0.353554
   vertex -2.000000 -0.415734 0.277786
   vertex -2.000000 0.000000 0.000000
  endloop
 endfacet
 facet normal 1.000000 0.000000 0.000000
  outer loop
   vertex -2.000000 -0.277785 0.415735
   vertex -2.000000 -0.353553 0.353554
   vertex -2.000000 0.000000 0.000000
  endloop
 endfacet
 facet normal 1.000000 0.000000 0.000000
  outer loop
   vertex -2.000000 -0.191341 0.461940
   vertex -2.000000 -0.277785 0.415735
   vertex -2.000000 0.000000 0.000000
  endloop
 endfacet
 facet normal 1.000000 0.000000 0.000000
  outer loop
   vertex -2.000000 -0.097544 0.490393
   vertex -2.000000 -0.191341 0.461940
   vertex -2.000000 0.000000 0.000000
  endloop
 endfacet
 facet normal 1.000000 0.000000 0.000000
  outer loop
   vertex -2.000000 0.000001 0.500000
   vertex -2.000000 -0.097544 0.490393
   vertex -2.000000 0.000000 0.000000
  endloop
 endfacet
 facet normal 1.000000 0.000000 0.000000
  outer loop
   vertex -2.000000 0.097545 0.490393
   vertex -2.000000 0.000001 0.500000
   vertex -2.000000 0.000000 0.000000
  endloop
 endfacet
endsolid
