solid stl file generated from AC3D
 facet normal 0.000000 -1.000000 0.000000
  outer loop
   vertex -0.007550 -0.007550 -0.015100
   vertex 0.007550 -0.007550 0.015100
   vertex -0.007550 -0.007550 0.015100
  endloop
 endfacet
 facet normal 0.000000 -1.000000 0.000000
  outer loop
   vertex 0.007550 -0.007550 0.015100
   vertex -0.007550 -0.007550 -0.015100
   vertex 0.007550 -0.007550 -0.015100
  endloop
 endfacet
 facet normal 0.000000 1.000000 0.000000
  outer loop
   vertex 0.007550 0.007550 -0.015100
   vertex -0.007550 0.007550 0.015100
   vertex 0.007550 0.007550 0.015100
  endloop
 endfacet
 facet normal 0.000000 1.000000 0.000000
  outer loop
   vertex -0.007550 0.007550 0.015100
   vertex 0.007550 0.007550 -0.015100
   vertex -0.007550 0.007550 -0.015100
  endloop
 endfacet
 facet normal 0.000000 0.000000 1.000000
  outer loop
   vertex -0.007550 0.007550 0.015100
   vertex 0.007550 -0.007550 0.015100
   vertex 0.007550 0.007550 0.015100
  endloop
 endfacet
 facet normal 0.000000 0.000000 1.000000
  outer loop
   vertex 0.007550 -0.007550 0.015100
   vertex -0.007550 0.007550 0.015100
   vertex -0.007550 -0.007550 0.015100
  endloop
 endfacet
 facet normal 0.000000 0.000000 -1.000000
  outer loop
   vertex -0.007550 -0.007550 -0.015100
   vertex 0.007550 0.007550 -0.015100
   vertex 0.007550 -0.007550 -0.015100
  endloop
 endfacet
 facet normal 0.000000 0.000000 -1.000000
  outer loop
   vertex 0.007550 0.007550 -0.015100
   vertex -0.007550 -0.007550 -0.015100
   vertex -0.007550 0.007550 -0.015100
  endloop
 endfacet
 facet normal -1.000000 0.000000 0.000000
  outer loop
   vertex -0.007550 -0.007550 -0.015100
   vertex -0.007550 0.007550 0.015100
   vertex -0.007550 0.007550 -0.015100
  endloop
 endfacet
 facet normal -1.000000 0.000000 0.000000
  outer loop
   vertex -0.007550 0.007550 0.015100
   vertex -0.007550 -0.007550 -0.015100
   vertex -0.007550 -0.007550 0.015100
  endloop
 endfacet
 facet normal 1.000000 0.000000 0.000000
  outer loop
   vertex 0.007550 -0.007550 0.015100
   vertex 0.007550 0.007550 -0.015100
   vertex 0.007550 0.007550 0.015100
  endloop
 endfacet
 facet normal 1.000000 0.000000 0.000000
  outer loop
   vertex 0.007550 0.007550 -0.015100
   vertex 0.007550 -0.007550 0.015100
   vertex 0.007550 -0.007550 -0.015100
  endloop
 endfacet
endsolid
