solid stl file generated by Min manually--180327
 facet normal  0.0e0 -1.0e0  0.0e0
  outer loop
   vertex -0.200e0 +0.010e0 -0.010e0
   vertex -0.005e0 +0.010e0 +0.010e0
   vertex -0.200e0 +0.010e0 +0.010e0
  endloop
 endfacet
 facet normal  0.0e0 -1.0e0  0.0e0
  outer loop
   vertex -0.005e0 +0.010e0 +0.010e0
   vertex -0.200e0 +0.010e0 -0.010e0
   vertex -0.005e0 +0.010e0 -0.010e0
  endloop
 endfacet
 facet normal +1.0e0  0.0e0  0.0e0
  outer loop
   vertex -0.005e0 +0.010e0 -0.010e0
   vertex -0.005e0 +0.100e0 +0.010e0
   vertex -0.005e0 +0.010e0 +0.010e0
  endloop
 endfacet
 facet normal +1.0e0  0.0e0  0.0e0
  outer loop
   vertex -0.005e0 +0.100e0 +0.010e0
   vertex -0.005e0 +0.010e0 -0.010e0
   vertex -0.005e0 +0.100e0 -0.010e0
  endloop
 endfacet
 facet normal -1.0e0  0.0e0  0.0e0
  outer loop
   vertex +0.005e0 +0.100e0 +0.010e0
   vertex +0.005e0 +0.010e0 -0.010e0
   vertex +0.005e0 +0.010e0 +0.010e0
  endloop
 endfacet
 facet normal -1.0e0  0.0e0  0.0e0
  outer loop
   vertex +0.005e0 +0.010e0 -0.010e0
   vertex +0.005e0 +0.100e0 +0.010e0
   vertex +0.005e0 +0.100e0 -0.010e0
  endloop
 endfacet
 facet normal  0.0e0 -1.0e0  0.0e0
  outer loop
   vertex +0.005e0 +0.010e0 -0.010e0
   vertex +0.200e0 +0.010e0 +0.010e0
   vertex +0.005e0 +0.010e0 +0.010e0
  endloop
 endfacet
 facet normal  0.0e0 -1.0e0  0.0e0
  outer loop
   vertex +0.200e0 +0.010e0 +0.010e0
   vertex +0.005e0 +0.010e0 -0.010e0
   vertex +0.200e0 +0.010e0 -0.010e0
  endloop
 endfacet
endsolid
