solid stl file generated from AC3D
 facet normal 0.380687 -0.919061 0.102005
  outer loop
   vertex -0.620591 -0.482963 0.000000
   vertex -0.533494 -0.433013 0.125000
   vertex -0.637928 -0.482963 0.064705
  endloop
 endfacet
 facet normal 0.380687 -0.919061 0.102005
  outer loop
   vertex -0.533494 -0.433013 0.125000
   vertex -0.620591 -0.482963 0.000000
   vertex -0.500000 -0.433013 0.000000
  endloop
 endfacet
 facet normal 0.278682 -0.919060 0.278683
  outer loop
   vertex -0.685295 -0.482963 0.112072
   vertex -0.533494 -0.433013 0.125000
   vertex -0.625000 -0.433013 0.216506
  endloop
 endfacet
 facet normal 0.278682 -0.919060 0.278683
  outer loop
   vertex -0.533494 -0.433013 0.125000
   vertex -0.685295 -0.482963 0.112072
   vertex -0.637928 -0.482963 0.064705
  endloop
 endfacet
 facet normal 0.102005 -0.919060 0.380687
  outer loop
   vertex -0.750000 -0.482963 0.129410
   vertex -0.625000 -0.433013 0.216506
   vertex -0.750000 -0.433013 0.250000
  endloop
 endfacet
 facet normal 0.102005 -0.919060 0.380687
  outer loop
   vertex -0.625000 -0.433013 0.216506
   vertex -0.750000 -0.482963 0.129410
   vertex -0.685295 -0.482963 0.112072
  endloop
 endfacet
 facet normal -0.102005 -0.919060 0.380687
  outer loop
   vertex -0.875000 -0.433013 0.216506
   vertex -0.750000 -0.482963 0.129410
   vertex -0.750000 -0.433013 0.250000
  endloop
 endfacet
 facet normal -0.102005 -0.919060 0.380687
  outer loop
   vertex -0.750000 -0.482963 0.129410
   vertex -0.875000 -0.433013 0.216506
   vertex -0.814705 -0.482963 0.112072
  endloop
 endfacet
 facet normal -0.278683 -0.919060 0.278682
  outer loop
   vertex -0.966506 -0.433013 0.125000
   vertex -0.814705 -0.482963 0.112072
   vertex -0.875000 -0.433013 0.216506
  endloop
 endfacet
 facet normal -0.278683 -0.919060 0.278682
  outer loop
   vertex -0.814705 -0.482963 0.112072
   vertex -0.966506 -0.433013 0.125000
   vertex -0.862072 -0.482963 0.064705
  endloop
 endfacet
 facet normal -0.380687 -0.919060 0.102005
  outer loop
   vertex -0.966506 -0.433013 0.125000
   vertex -0.879409 -0.482963 0.000000
   vertex -0.862072 -0.482963 0.064705
  endloop
 endfacet
 facet normal -0.380687 -0.919060 0.102005
  outer loop
   vertex -0.879409 -0.482963 0.000000
   vertex -0.966506 -0.433013 0.125000
   vertex -1.000000 -0.433013 -0.000000
  endloop
 endfacet
 facet normal -0.380687 -0.919060 -0.102005
  outer loop
   vertex -1.000000 -0.433013 -0.000000
   vertex -0.862072 -0.482963 -0.064705
   vertex -0.879409 -0.482963 0.000000
  endloop
 endfacet
 facet normal -0.380687 -0.919060 -0.102005
  outer loop
   vertex -0.862072 -0.482963 -0.064705
   vertex -1.000000 -0.433013 -0.000000
   vertex -0.966506 -0.433013 -0.125000
  endloop
 endfacet
 facet normal -0.278682 -0.919060 -0.278683
  outer loop
   vertex -0.966506 -0.433013 -0.125000
   vertex -0.814705 -0.482963 -0.112072
   vertex -0.862072 -0.482963 -0.064705
  endloop
 endfacet
 facet normal -0.278682 -0.919060 -0.278683
  outer loop
   vertex -0.814705 -0.482963 -0.112072
   vertex -0.966506 -0.433013 -0.125000
   vertex -0.875000 -0.433013 -0.216506
  endloop
 endfacet
 facet normal -0.102005 -0.919060 -0.380687
  outer loop
   vertex -0.875000 -0.433013 -0.216506
   vertex -0.750000 -0.482963 -0.129409
   vertex -0.814705 -0.482963 -0.112072
  endloop
 endfacet
 facet normal -0.102005 -0.919060 -0.380687
  outer loop
   vertex -0.750000 -0.482963 -0.129409
   vertex -0.875000 -0.433013 -0.216506
   vertex -0.750000 -0.433013 -0.250000
  endloop
 endfacet
 facet normal 0.102005 -0.919061 -0.380687
  outer loop
   vertex -0.750000 -0.482963 -0.129409
   vertex -0.625000 -0.433013 -0.216506
   vertex -0.685295 -0.482963 -0.112072
  endloop
 endfacet
 facet normal 0.102005 -0.919061 -0.380687
  outer loop
   vertex -0.625000 -0.433013 -0.216506
   vertex -0.750000 -0.482963 -0.129409
   vertex -0.750000 -0.433013 -0.250000
  endloop
 endfacet
 facet normal 0.278682 -0.919060 -0.278682
  outer loop
   vertex -0.685295 -0.482963 -0.112072
   vertex -0.533494 -0.433013 -0.125000
   vertex -0.637928 -0.482963 -0.064705
  endloop
 endfacet
 facet normal 0.278682 -0.919060 -0.278682
  outer loop
   vertex -0.533494 -0.433013 -0.125000
   vertex -0.685295 -0.482963 -0.112072
   vertex -0.625000 -0.433013 -0.216506
  endloop
 endfacet
 facet normal 0.380687 -0.919061 -0.102005
  outer loop
   vertex -0.637928 -0.482963 -0.064705
   vertex -0.500000 -0.433013 0.000000
   vertex -0.620591 -0.482963 0.000000
  endloop
 endfacet
 facet normal 0.380687 -0.919061 -0.102005
  outer loop
   vertex -0.500000 -0.433013 0.000000
   vertex -0.637928 -0.482963 -0.064705
   vertex -0.533494 -0.433013 -0.125000
  endloop
 endfacet
 facet normal 0.600821 -0.783005 0.160990
  outer loop
   vertex -0.500000 -0.433013 0.000000
   vertex -0.443814 -0.353553 0.176777
   vertex -0.533494 -0.433013 0.125000
  endloop
 endfacet
 facet normal 0.600821 -0.783005 0.160990
  outer loop
   vertex -0.443814 -0.353553 0.176777
   vertex -0.500000 -0.433013 0.000000
   vertex -0.396447 -0.353553 0.000000
  endloop
 endfacet
 facet normal 0.439832 -0.783005 0.439832
  outer loop
   vertex -0.625000 -0.433013 0.216506
   vertex -0.443814 -0.353553 0.176777
   vertex -0.573223 -0.353553 0.306186
  endloop
 endfacet
 facet normal 0.439832 -0.783005 0.439832
  outer loop
   vertex -0.443814 -0.353553 0.176777
   vertex -0.625000 -0.433013 0.216506
   vertex -0.533494 -0.433013 0.125000
  endloop
 endfacet
 facet normal 0.160989 -0.783005 0.600821
  outer loop
   vertex -0.750000 -0.433013 0.250000
   vertex -0.573223 -0.353553 0.306186
   vertex -0.750000 -0.353553 0.353553
  endloop
 endfacet
 facet normal 0.160989 -0.783005 0.600821
  outer loop
   vertex -0.573223 -0.353553 0.306186
   vertex -0.750000 -0.433013 0.250000
   vertex -0.625000 -0.433013 0.216506
  endloop
 endfacet
 facet normal -0.160990 -0.783005 0.600821
  outer loop
   vertex -0.926777 -0.353553 0.306186
   vertex -0.750000 -0.433013 0.250000
   vertex -0.750000 -0.353553 0.353553
  endloop
 endfacet
 facet normal -0.160990 -0.783005 0.600821
  outer loop
   vertex -0.750000 -0.433013 0.250000
   vertex -0.926777 -0.353553 0.306186
   vertex -0.875000 -0.433013 0.216506
  endloop
 endfacet
 facet normal -0.439831 -0.783005 0.439831
  outer loop
   vertex -1.056186 -0.353553 0.176777
   vertex -0.875000 -0.433013 0.216506
   vertex -0.926777 -0.353553 0.306186
  endloop
 endfacet
 facet normal -0.439831 -0.783005 0.439831
  outer loop
   vertex -0.875000 -0.433013 0.216506
   vertex -1.056186 -0.353553 0.176777
   vertex -0.966506 -0.433013 0.125000
  endloop
 endfacet
 facet normal -0.600821 -0.783005 0.160989
  outer loop
   vertex -1.103553 -0.353553 -0.000000
   vertex -0.966506 -0.433013 0.125000
   vertex -1.056186 -0.353553 0.176777
  endloop
 endfacet
 facet normal -0.600821 -0.783005 0.160989
  outer loop
   vertex -0.966506 -0.433013 0.125000
   vertex -1.103553 -0.353553 -0.000000
   vertex -1.000000 -0.433013 -0.000000
  endloop
 endfacet
 facet normal -0.600821 -0.783005 -0.160990
  outer loop
   vertex -1.103553 -0.353553 -0.000000
   vertex -0.966506 -0.433013 -0.125000
   vertex -1.000000 -0.433013 -0.000000
  endloop
 endfacet
 facet normal -0.600821 -0.783005 -0.160990
  outer loop
   vertex -0.966506 -0.433013 -0.125000
   vertex -1.103553 -0.353553 -0.000000
   vertex -1.056186 -0.353553 -0.176777
  endloop
 endfacet
 facet normal -0.439831 -0.783005 -0.439832
  outer loop
   vertex -1.056186 -0.353553 -0.176777
   vertex -0.875000 -0.433013 -0.216506
   vertex -0.966506 -0.433013 -0.125000
  endloop
 endfacet
 facet normal -0.439831 -0.783005 -0.439832
  outer loop
   vertex -0.875000 -0.433013 -0.216506
   vertex -1.056186 -0.353553 -0.176777
   vertex -0.926777 -0.353553 -0.306186
  endloop
 endfacet
 facet normal -0.160989 -0.783005 -0.600821
  outer loop
   vertex -0.926777 -0.353553 -0.306186
   vertex -0.750000 -0.433013 -0.250000
   vertex -0.875000 -0.433013 -0.216506
  endloop
 endfacet
 facet normal -0.160989 -0.783005 -0.600821
  outer loop
   vertex -0.750000 -0.433013 -0.250000
   vertex -0.926777 -0.353553 -0.306186
   vertex -0.750000 -0.353553 -0.353553
  endloop
 endfacet
 facet normal 0.160990 -0.783005 -0.600821
  outer loop
   vertex -0.750000 -0.433013 -0.250000
   vertex -0.573223 -0.353553 -0.306186
   vertex -0.625000 -0.433013 -0.216506
  endloop
 endfacet
 facet normal 0.160990 -0.783005 -0.600821
  outer loop
   vertex -0.573223 -0.353553 -0.306186
   vertex -0.750000 -0.433013 -0.250000
   vertex -0.750000 -0.353553 -0.353553
  endloop
 endfacet
 facet normal 0.439831 -0.783005 -0.439831
  outer loop
   vertex -0.625000 -0.433013 -0.216506
   vertex -0.443814 -0.353553 -0.176777
   vertex -0.533494 -0.433013 -0.125000
  endloop
 endfacet
 facet normal 0.439831 -0.783005 -0.439831
  outer loop
   vertex -0.443814 -0.353553 -0.176777
   vertex -0.625000 -0.433013 -0.216506
   vertex -0.573223 -0.353553 -0.306186
  endloop
 endfacet
 facet normal 0.600821 -0.783005 -0.160989
  outer loop
   vertex -0.533494 -0.433013 -0.125000
   vertex -0.396447 -0.353553 0.000000
   vertex -0.500000 -0.433013 0.000000
  endloop
 endfacet
 facet normal 0.600821 -0.783005 -0.160989
  outer loop
   vertex -0.396447 -0.353553 0.000000
   vertex -0.533494 -0.433013 -0.125000
   vertex -0.443814 -0.353553 -0.176777
  endloop
 endfacet
 facet normal 0.776013 -0.595456 0.207932
  outer loop
   vertex -0.443814 -0.353553 0.176777
   vertex -0.316987 -0.250000 0.000000
   vertex -0.375000 -0.250000 0.216506
  endloop
 endfacet
 facet normal 0.776013 -0.595456 0.207932
  outer loop
   vertex -0.316987 -0.250000 0.000000
   vertex -0.443814 -0.353553 0.176777
   vertex -0.396447 -0.353553 0.000000
  endloop
 endfacet
 facet normal 0.568081 -0.595456 0.568081
  outer loop
   vertex -0.573223 -0.353553 0.306186
   vertex -0.375000 -0.250000 0.216506
   vertex -0.533494 -0.250000 0.375000
  endloop
 endfacet
 facet normal 0.568081 -0.595456 0.568081
  outer loop
   vertex -0.375000 -0.250000 0.216506
   vertex -0.573223 -0.353553 0.306186
   vertex -0.443814 -0.353553 0.176777
  endloop
 endfacet
 facet normal 0.207932 -0.595456 0.776013
  outer loop
   vertex -0.750000 -0.250000 0.433013
   vertex -0.573223 -0.353553 0.306186
   vertex -0.533494 -0.250000 0.375000
  endloop
 endfacet
 facet normal 0.207932 -0.595456 0.776013
  outer loop
   vertex -0.573223 -0.353553 0.306186
   vertex -0.750000 -0.250000 0.433013
   vertex -0.750000 -0.353553 0.353553
  endloop
 endfacet
 facet normal -0.207932 -0.595456 0.776013
  outer loop
   vertex -0.750000 -0.250000 0.433013
   vertex -0.926777 -0.353553 0.306186
   vertex -0.750000 -0.353553 0.353553
  endloop
 endfacet
 facet normal -0.207932 -0.595456 0.776013
  outer loop
   vertex -0.926777 -0.353553 0.306186
   vertex -0.750000 -0.250000 0.433013
   vertex -0.966506 -0.250000 0.375000
  endloop
 endfacet
 facet normal -0.568081 -0.595456 0.568081
  outer loop
   vertex -1.125000 -0.250000 0.216506
   vertex -0.926777 -0.353553 0.306186
   vertex -0.966506 -0.250000 0.375000
  endloop
 endfacet
 facet normal -0.568081 -0.595456 0.568081
  outer loop
   vertex -0.926777 -0.353553 0.306186
   vertex -1.125000 -0.250000 0.216506
   vertex -1.056186 -0.353553 0.176777
  endloop
 endfacet
 facet normal -0.776013 -0.595456 0.207932
  outer loop
   vertex -1.103553 -0.353553 -0.000000
   vertex -1.125000 -0.250000 0.216506
   vertex -1.183013 -0.250000 -0.000000
  endloop
 endfacet
 facet normal -0.776013 -0.595456 0.207932
  outer loop
   vertex -1.125000 -0.250000 0.216506
   vertex -1.103553 -0.353553 -0.000000
   vertex -1.056186 -0.353553 0.176777
  endloop
 endfacet
 facet normal -0.776013 -0.595456 -0.207932
  outer loop
   vertex -1.056186 -0.353553 -0.176777
   vertex -1.183013 -0.250000 -0.000000
   vertex -1.125000 -0.250000 -0.216506
  endloop
 endfacet
 facet normal -0.776013 -0.595456 -0.207932
  outer loop
   vertex -1.183013 -0.250000 -0.000000
   vertex -1.056186 -0.353553 -0.176777
   vertex -1.103553 -0.353553 -0.000000
  endloop
 endfacet
 facet normal -0.568081 -0.595456 -0.568081
  outer loop
   vertex -1.125000 -0.250000 -0.216506
   vertex -0.926777 -0.353553 -0.306186
   vertex -1.056186 -0.353553 -0.176777
  endloop
 endfacet
 facet normal -0.568081 -0.595456 -0.568081
  outer loop
   vertex -0.926777 -0.353553 -0.306186
   vertex -1.125000 -0.250000 -0.216506
   vertex -0.966506 -0.250000 -0.375000
  endloop
 endfacet
 facet normal -0.207932 -0.595456 -0.776013
  outer loop
   vertex -0.926777 -0.353553 -0.306186
   vertex -0.750000 -0.250000 -0.433013
   vertex -0.750000 -0.353553 -0.353553
  endloop
 endfacet
 facet normal -0.207932 -0.595456 -0.776013
  outer loop
   vertex -0.750000 -0.250000 -0.433013
   vertex -0.926777 -0.353553 -0.306186
   vertex -0.966506 -0.250000 -0.375000
  endloop
 endfacet
 facet normal 0.207932 -0.595456 -0.776013
  outer loop
   vertex -0.750000 -0.353553 -0.353553
   vertex -0.533494 -0.250000 -0.375000
   vertex -0.573223 -0.353553 -0.306186
  endloop
 endfacet
 facet normal 0.207932 -0.595456 -0.776013
  outer loop
   vertex -0.533494 -0.250000 -0.375000
   vertex -0.750000 -0.353553 -0.353553
   vertex -0.750000 -0.250000 -0.433013
  endloop
 endfacet
 facet normal 0.568081 -0.595456 -0.568081
  outer loop
   vertex -0.573223 -0.353553 -0.306186
   vertex -0.375000 -0.250000 -0.216506
   vertex -0.443814 -0.353553 -0.176777
  endloop
 endfacet
 facet normal 0.568081 -0.595456 -0.568081
  outer loop
   vertex -0.375000 -0.250000 -0.216506
   vertex -0.573223 -0.353553 -0.306186
   vertex -0.533494 -0.250000 -0.375000
  endloop
 endfacet
 facet normal 0.776013 -0.595456 -0.207932
  outer loop
   vertex -0.396447 -0.353553 0.000000
   vertex -0.375000 -0.250000 -0.216506
   vertex -0.316987 -0.250000 0.000000
  endloop
 endfacet
 facet normal 0.776013 -0.595456 -0.207932
  outer loop
   vertex -0.375000 -0.250000 -0.216506
   vertex -0.396447 -0.353553 0.000000
   vertex -0.443814 -0.353553 -0.176777
  endloop
 endfacet
 facet normal 0.896809 -0.371470 0.240299
  outer loop
   vertex -0.375000 -0.250000 0.216506
   vertex -0.267037 -0.129410 0.000000
   vertex -0.331742 -0.129410 0.241481
  endloop
 endfacet
 facet normal 0.896809 -0.371470 0.240299
  outer loop
   vertex -0.267037 -0.129410 0.000000
   vertex -0.375000 -0.250000 0.216506
   vertex -0.316987 -0.250000 0.000000
  endloop
 endfacet
 facet normal 0.656510 -0.371470 0.656510
  outer loop
   vertex -0.533494 -0.250000 0.375000
   vertex -0.331742 -0.129410 0.241481
   vertex -0.508519 -0.129410 0.418258
  endloop
 endfacet
 facet normal 0.656510 -0.371470 0.656510
  outer loop
   vertex -0.331742 -0.129410 0.241481
   vertex -0.533494 -0.250000 0.375000
   vertex -0.375000 -0.250000 0.216506
  endloop
 endfacet
 facet normal 0.240299 -0.371471 0.896809
  outer loop
   vertex -0.750000 -0.129410 0.482963
   vertex -0.533494 -0.250000 0.375000
   vertex -0.508519 -0.129410 0.418258
  endloop
 endfacet
 facet normal 0.240299 -0.371471 0.896809
  outer loop
   vertex -0.533494 -0.250000 0.375000
   vertex -0.750000 -0.129410 0.482963
   vertex -0.750000 -0.250000 0.433013
  endloop
 endfacet
 facet normal -0.240299 -0.371470 0.896809
  outer loop
   vertex -0.750000 -0.129410 0.482963
   vertex -0.966506 -0.250000 0.375000
   vertex -0.750000 -0.250000 0.433013
  endloop
 endfacet
 facet normal -0.240299 -0.371470 0.896809
  outer loop
   vertex -0.966506 -0.250000 0.375000
   vertex -0.750000 -0.129410 0.482963
   vertex -0.991481 -0.129410 0.418258
  endloop
 endfacet
 facet normal -0.656510 -0.371470 0.656510
  outer loop
   vertex -1.125000 -0.250000 0.216506
   vertex -0.991481 -0.129410 0.418258
   vertex -1.168258 -0.129410 0.241481
  endloop
 endfacet
 facet normal -0.656510 -0.371470 0.656510
  outer loop
   vertex -0.991481 -0.129410 0.418258
   vertex -1.125000 -0.250000 0.216506
   vertex -0.966506 -0.250000 0.375000
  endloop
 endfacet
 facet normal -0.896809 -0.371470 0.240299
  outer loop
   vertex -1.183013 -0.250000 -0.000000
   vertex -1.168258 -0.129410 0.241481
   vertex -1.232963 -0.129410 -0.000000
  endloop
 endfacet
 facet normal -0.896809 -0.371470 0.240299
  outer loop
   vertex -1.168258 -0.129410 0.241481
   vertex -1.183013 -0.250000 -0.000000
   vertex -1.125000 -0.250000 0.216506
  endloop
 endfacet
 facet normal -0.896809 -0.371470 -0.240299
  outer loop
   vertex -1.125000 -0.250000 -0.216506
   vertex -1.232963 -0.129410 -0.000000
   vertex -1.168258 -0.129410 -0.241481
  endloop
 endfacet
 facet normal -0.896809 -0.371470 -0.240299
  outer loop
   vertex -1.232963 -0.129410 -0.000000
   vertex -1.125000 -0.250000 -0.216506
   vertex -1.183013 -0.250000 -0.000000
  endloop
 endfacet
 facet normal -0.656510 -0.371470 -0.656510
  outer loop
   vertex -1.125000 -0.250000 -0.216506
   vertex -0.991481 -0.129410 -0.418258
   vertex -0.966506 -0.250000 -0.375000
  endloop
 endfacet
 facet normal -0.656510 -0.371470 -0.656510
  outer loop
   vertex -0.991481 -0.129410 -0.418258
   vertex -1.125000 -0.250000 -0.216506
   vertex -1.168258 -0.129410 -0.241481
  endloop
 endfacet
 facet normal -0.240299 -0.371470 -0.896809
  outer loop
   vertex -0.966506 -0.250000 -0.375000
   vertex -0.750000 -0.129410 -0.482963
   vertex -0.750000 -0.250000 -0.433013
  endloop
 endfacet
 facet normal -0.240299 -0.371470 -0.896809
  outer loop
   vertex -0.750000 -0.129410 -0.482963
   vertex -0.966506 -0.250000 -0.375000
   vertex -0.991481 -0.129410 -0.418258
  endloop
 endfacet
 facet normal 0.240300 -0.371470 -0.896809
  outer loop
   vertex -0.750000 -0.250000 -0.433013
   vertex -0.508519 -0.129410 -0.418258
   vertex -0.533494 -0.250000 -0.375000
  endloop
 endfacet
 facet normal 0.240300 -0.371470 -0.896809
  outer loop
   vertex -0.508519 -0.129410 -0.418258
   vertex -0.750000 -0.250000 -0.433013
   vertex -0.750000 -0.129410 -0.482963
  endloop
 endfacet
 facet normal 0.656510 -0.371470 -0.656510
  outer loop
   vertex -0.375000 -0.250000 -0.216506
   vertex -0.508519 -0.129410 -0.418258
   vertex -0.331742 -0.129410 -0.241481
  endloop
 endfacet
 facet normal 0.656510 -0.371470 -0.656510
  outer loop
   vertex -0.508519 -0.129410 -0.418258
   vertex -0.375000 -0.250000 -0.216506
   vertex -0.533494 -0.250000 -0.375000
  endloop
 endfacet
 facet normal 0.896809 -0.371470 -0.240299
  outer loop
   vertex -0.316987 -0.250000 0.000000
   vertex -0.331742 -0.129410 -0.241481
   vertex -0.267037 -0.129410 0.000000
  endloop
 endfacet
 facet normal 0.896809 -0.371470 -0.240299
  outer loop
   vertex -0.331742 -0.129410 -0.241481
   vertex -0.316987 -0.250000 0.000000
   vertex -0.375000 -0.250000 -0.216506
  endloop
 endfacet
 facet normal 0.958209 -0.126151 0.256752
  outer loop
   vertex -0.331742 -0.129410 0.241481
   vertex -0.250000 -0.000000 0.000000
   vertex -0.316987 -0.000000 0.250000
  endloop
 endfacet
 facet normal 0.958209 -0.126151 0.256752
  outer loop
   vertex -0.250000 -0.000000 0.000000
   vertex -0.331742 -0.129410 0.241481
   vertex -0.267037 -0.129410 0.000000
  endloop
 endfacet
 facet normal 0.701458 -0.126151 0.701458
  outer loop
   vertex -0.508519 -0.129410 0.418258
   vertex -0.316987 -0.000000 0.250000
   vertex -0.500000 -0.000000 0.433013
  endloop
 endfacet
 facet normal 0.701458 -0.126151 0.701458
  outer loop
   vertex -0.316987 -0.000000 0.250000
   vertex -0.508519 -0.129410 0.418258
   vertex -0.331742 -0.129410 0.241481
  endloop
 endfacet
 facet normal 0.256751 -0.126150 0.958209
  outer loop
   vertex -0.750000 -0.000000 0.500000
   vertex -0.508519 -0.129410 0.418258
   vertex -0.500000 -0.000000 0.433013
  endloop
 endfacet
 facet normal 0.256751 -0.126150 0.958209
  outer loop
   vertex -0.508519 -0.129410 0.418258
   vertex -0.750000 -0.000000 0.500000
   vertex -0.750000 -0.129410 0.482963
  endloop
 endfacet
 facet normal -0.256751 -0.126151 0.958209
  outer loop
   vertex -0.750000 -0.000000 0.500000
   vertex -0.991481 -0.129410 0.418258
   vertex -0.750000 -0.129410 0.482963
  endloop
 endfacet
 facet normal -0.256751 -0.126151 0.958209
  outer loop
   vertex -0.991481 -0.129410 0.418258
   vertex -0.750000 -0.000000 0.500000
   vertex -1.000000 -0.000000 0.433013
  endloop
 endfacet
 facet normal -0.701458 -0.126151 0.701458
  outer loop
   vertex -1.168258 -0.129410 0.241481
   vertex -1.000000 -0.000000 0.433013
   vertex -1.183013 -0.000000 0.250000
  endloop
 endfacet
 facet normal -0.701458 -0.126151 0.701458
  outer loop
   vertex -1.000000 -0.000000 0.433013
   vertex -1.168258 -0.129410 0.241481
   vertex -0.991481 -0.129410 0.418258
  endloop
 endfacet
 facet normal -0.958209 -0.126151 0.256751
  outer loop
   vertex -1.232963 -0.129410 -0.000000
   vertex -1.183013 -0.000000 0.250000
   vertex -1.250000 -0.000000 -0.000000
  endloop
 endfacet
 facet normal -0.958209 -0.126151 0.256751
  outer loop
   vertex -1.183013 -0.000000 0.250000
   vertex -1.232963 -0.129410 -0.000000
   vertex -1.168258 -0.129410 0.241481
  endloop
 endfacet
 facet normal -0.958209 -0.126151 -0.256752
  outer loop
   vertex -1.168258 -0.129410 -0.241481
   vertex -1.250000 -0.000000 -0.000000
   vertex -1.183013 -0.000000 -0.250000
  endloop
 endfacet
 facet normal -0.958209 -0.126151 -0.256752
  outer loop
   vertex -1.250000 -0.000000 -0.000000
   vertex -1.168258 -0.129410 -0.241481
   vertex -1.232963 -0.129410 -0.000000
  endloop
 endfacet
 facet normal -0.701458 -0.126151 -0.701458
  outer loop
   vertex -1.168258 -0.129410 -0.241481
   vertex -1.000000 -0.000000 -0.433013
   vertex -0.991481 -0.129410 -0.418258
  endloop
 endfacet
 facet normal -0.701458 -0.126151 -0.701458
  outer loop
   vertex -1.000000 -0.000000 -0.433013
   vertex -1.168258 -0.129410 -0.241481
   vertex -1.183013 -0.000000 -0.250000
  endloop
 endfacet
 facet normal -0.256751 -0.126151 -0.958209
  outer loop
   vertex -0.991481 -0.129410 -0.418258
   vertex -0.750000 -0.000000 -0.500000
   vertex -0.750000 -0.129410 -0.482963
  endloop
 endfacet
 facet normal -0.256751 -0.126151 -0.958209
  outer loop
   vertex -0.750000 -0.000000 -0.500000
   vertex -0.991481 -0.129410 -0.418258
   vertex -1.000000 -0.000000 -0.433013
  endloop
 endfacet
 facet normal 0.256751 -0.126151 -0.958209
  outer loop
   vertex -0.750000 -0.129410 -0.482963
   vertex -0.500000 -0.000000 -0.433013
   vertex -0.508519 -0.129410 -0.418258
  endloop
 endfacet
 facet normal 0.256751 -0.126151 -0.958209
  outer loop
   vertex -0.500000 -0.000000 -0.433013
   vertex -0.750000 -0.129410 -0.482963
   vertex -0.750000 -0.000000 -0.500000
  endloop
 endfacet
 facet normal 0.701458 -0.126151 -0.701458
  outer loop
   vertex -0.331742 -0.129410 -0.241481
   vertex -0.500000 -0.000000 -0.433013
   vertex -0.316987 -0.000000 -0.250000
  endloop
 endfacet
 facet normal 0.701458 -0.126151 -0.701458
  outer loop
   vertex -0.500000 -0.000000 -0.433013
   vertex -0.331742 -0.129410 -0.241481
   vertex -0.508519 -0.129410 -0.418258
  endloop
 endfacet
 facet normal 0.958209 -0.126151 -0.256751
  outer loop
   vertex -0.267037 -0.129410 0.000000
   vertex -0.316987 -0.000000 -0.250000
   vertex -0.250000 -0.000000 0.000000
  endloop
 endfacet
 facet normal 0.958209 -0.126151 -0.256751
  outer loop
   vertex -0.316987 -0.000000 -0.250000
   vertex -0.267037 -0.129410 0.000000
   vertex -0.331742 -0.129410 -0.241481
  endloop
 endfacet
 facet normal 0.958209 0.126151 0.256751
  outer loop
   vertex -0.316987 -0.000000 0.250000
   vertex -0.267037 0.129409 0.000000
   vertex -0.331742 0.129409 0.241481
  endloop
 endfacet
 facet normal 0.958209 0.126151 0.256751
  outer loop
   vertex -0.267037 0.129409 0.000000
   vertex -0.316987 -0.000000 0.250000
   vertex -0.250000 -0.000000 0.000000
  endloop
 endfacet
 facet normal 0.701458 0.126151 0.701458
  outer loop
   vertex -0.500000 -0.000000 0.433013
   vertex -0.331742 0.129409 0.241481
   vertex -0.508519 0.129409 0.418258
  endloop
 endfacet
 facet normal 0.701458 0.126151 0.701458
  outer loop
   vertex -0.331742 0.129409 0.241481
   vertex -0.500000 -0.000000 0.433013
   vertex -0.316987 -0.000000 0.250000
  endloop
 endfacet
 facet normal 0.256751 0.126150 0.958209
  outer loop
   vertex -0.750000 0.129409 0.482963
   vertex -0.500000 -0.000000 0.433013
   vertex -0.508519 0.129409 0.418258
  endloop
 endfacet
 facet normal 0.256751 0.126150 0.958209
  outer loop
   vertex -0.500000 -0.000000 0.433013
   vertex -0.750000 0.129409 0.482963
   vertex -0.750000 -0.000000 0.500000
  endloop
 endfacet
 facet normal -0.256752 0.126151 0.958209
  outer loop
   vertex -0.991481 0.129409 0.418258
   vertex -0.750000 -0.000000 0.500000
   vertex -0.750000 0.129409 0.482963
  endloop
 endfacet
 facet normal -0.256752 0.126151 0.958209
  outer loop
   vertex -0.750000 -0.000000 0.500000
   vertex -0.991481 0.129409 0.418258
   vertex -1.000000 -0.000000 0.433013
  endloop
 endfacet
 facet normal -0.701458 0.126151 0.701458
  outer loop
   vertex -1.183013 -0.000000 0.250000
   vertex -0.991481 0.129409 0.418258
   vertex -1.168258 0.129409 0.241481
  endloop
 endfacet
 facet normal -0.701458 0.126151 0.701458
  outer loop
   vertex -0.991481 0.129409 0.418258
   vertex -1.183013 -0.000000 0.250000
   vertex -1.000000 -0.000000 0.433013
  endloop
 endfacet
 facet normal -0.958209 0.126151 0.256751
  outer loop
   vertex -1.250000 -0.000000 -0.000000
   vertex -1.168258 0.129409 0.241481
   vertex -1.232963 0.129409 -0.000000
  endloop
 endfacet
 facet normal -0.958209 0.126151 0.256751
  outer loop
   vertex -1.168258 0.129409 0.241481
   vertex -1.250000 -0.000000 -0.000000
   vertex -1.183013 -0.000000 0.250000
  endloop
 endfacet
 facet normal -0.958209 0.126151 -0.256751
  outer loop
   vertex -1.183013 -0.000000 -0.250000
   vertex -1.232963 0.129409 -0.000000
   vertex -1.168258 0.129409 -0.241481
  endloop
 endfacet
 facet normal -0.958209 0.126151 -0.256751
  outer loop
   vertex -1.232963 0.129409 -0.000000
   vertex -1.183013 -0.000000 -0.250000
   vertex -1.250000 -0.000000 -0.000000
  endloop
 endfacet
 facet normal -0.701458 0.126151 -0.701458
  outer loop
   vertex -1.000000 -0.000000 -0.433013
   vertex -1.168258 0.129409 -0.241481
   vertex -0.991481 0.129409 -0.418258
  endloop
 endfacet
 facet normal -0.701458 0.126151 -0.701458
  outer loop
   vertex -1.168258 0.129409 -0.241481
   vertex -1.000000 -0.000000 -0.433013
   vertex -1.183013 -0.000000 -0.250000
  endloop
 endfacet
 facet normal -0.256751 0.126151 -0.958209
  outer loop
   vertex -0.750000 -0.000000 -0.500000
   vertex -0.991481 0.129409 -0.418258
   vertex -0.750000 0.129409 -0.482963
  endloop
 endfacet
 facet normal -0.256751 0.126151 -0.958209
  outer loop
   vertex -0.991481 0.129409 -0.418258
   vertex -0.750000 -0.000000 -0.500000
   vertex -1.000000 -0.000000 -0.433013
  endloop
 endfacet
 facet normal 0.256752 0.126151 -0.958209
  outer loop
   vertex -0.750000 -0.000000 -0.500000
   vertex -0.508519 0.129409 -0.418258
   vertex -0.500000 -0.000000 -0.433013
  endloop
 endfacet
 facet normal 0.256752 0.126151 -0.958209
  outer loop
   vertex -0.508519 0.129409 -0.418258
   vertex -0.750000 -0.000000 -0.500000
   vertex -0.750000 0.129409 -0.482963
  endloop
 endfacet
 facet normal 0.701458 0.126151 -0.701458
  outer loop
   vertex -0.316987 -0.000000 -0.250000
   vertex -0.508519 0.129409 -0.418258
   vertex -0.331742 0.129409 -0.241481
  endloop
 endfacet
 facet normal 0.701458 0.126151 -0.701458
  outer loop
   vertex -0.508519 0.129409 -0.418258
   vertex -0.316987 -0.000000 -0.250000
   vertex -0.500000 -0.000000 -0.433013
  endloop
 endfacet
 facet normal 0.958209 0.126151 -0.256751
  outer loop
   vertex -0.250000 -0.000000 0.000000
   vertex -0.331742 0.129409 -0.241481
   vertex -0.267037 0.129409 0.000000
  endloop
 endfacet
 facet normal 0.958209 0.126151 -0.256751
  outer loop
   vertex -0.331742 0.129409 -0.241481
   vertex -0.250000 -0.000000 0.000000
   vertex -0.316987 -0.000000 -0.250000
  endloop
 endfacet
 facet normal 0.896809 0.371470 0.240299
  outer loop
   vertex -0.331742 0.129409 0.241481
   vertex -0.316987 0.250000 0.000000
   vertex -0.375000 0.250000 0.216506
  endloop
 endfacet
 facet normal 0.896809 0.371470 0.240299
  outer loop
   vertex -0.316987 0.250000 0.000000
   vertex -0.331742 0.129409 0.241481
   vertex -0.267037 0.129409 0.000000
  endloop
 endfacet
 facet normal 0.656510 0.371470 0.656510
  outer loop
   vertex -0.508519 0.129409 0.418258
   vertex -0.375000 0.250000 0.216506
   vertex -0.533494 0.250000 0.375000
  endloop
 endfacet
 facet normal 0.656510 0.371470 0.656510
  outer loop
   vertex -0.375000 0.250000 0.216506
   vertex -0.508519 0.129409 0.418258
   vertex -0.331742 0.129409 0.241481
  endloop
 endfacet
 facet normal 0.240299 0.371470 0.896809
  outer loop
   vertex -0.750000 0.250000 0.433013
   vertex -0.508519 0.129409 0.418258
   vertex -0.533494 0.250000 0.375000
  endloop
 endfacet
 facet normal 0.240299 0.371470 0.896809
  outer loop
   vertex -0.508519 0.129409 0.418258
   vertex -0.750000 0.250000 0.433013
   vertex -0.750000 0.129409 0.482963
  endloop
 endfacet
 facet normal -0.240299 0.371470 0.896809
  outer loop
   vertex -0.966506 0.250000 0.375000
   vertex -0.750000 0.129409 0.482963
   vertex -0.750000 0.250000 0.433013
  endloop
 endfacet
 facet normal -0.240299 0.371470 0.896809
  outer loop
   vertex -0.750000 0.129409 0.482963
   vertex -0.966506 0.250000 0.375000
   vertex -0.991481 0.129409 0.418258
  endloop
 endfacet
 facet normal -0.656510 0.371470 0.656510
  outer loop
   vertex -1.168258 0.129409 0.241481
   vertex -0.966506 0.250000 0.375000
   vertex -1.125000 0.250000 0.216506
  endloop
 endfacet
 facet normal -0.656510 0.371470 0.656510
  outer loop
   vertex -0.966506 0.250000 0.375000
   vertex -1.168258 0.129409 0.241481
   vertex -0.991481 0.129409 0.418258
  endloop
 endfacet
 facet normal -0.896809 0.371470 0.240299
  outer loop
   vertex -1.232963 0.129409 -0.000000
   vertex -1.125000 0.250000 0.216506
   vertex -1.183013 0.250000 -0.000000
  endloop
 endfacet
 facet normal -0.896809 0.371470 0.240299
  outer loop
   vertex -1.125000 0.250000 0.216506
   vertex -1.232963 0.129409 -0.000000
   vertex -1.168258 0.129409 0.241481
  endloop
 endfacet
 facet normal -0.896809 0.371470 -0.240299
  outer loop
   vertex -1.168258 0.129409 -0.241481
   vertex -1.183013 0.250000 -0.000000
   vertex -1.125000 0.250000 -0.216506
  endloop
 endfacet
 facet normal -0.896809 0.371470 -0.240299
  outer loop
   vertex -1.183013 0.250000 -0.000000
   vertex -1.168258 0.129409 -0.241481
   vertex -1.232963 0.129409 -0.000000
  endloop
 endfacet
 facet normal -0.656510 0.371470 -0.656510
  outer loop
   vertex -0.991481 0.129409 -0.418258
   vertex -1.125000 0.250000 -0.216506
   vertex -0.966506 0.250000 -0.375000
  endloop
 endfacet
 facet normal -0.656510 0.371470 -0.656510
  outer loop
   vertex -1.125000 0.250000 -0.216506
   vertex -0.991481 0.129409 -0.418258
   vertex -1.168258 0.129409 -0.241481
  endloop
 endfacet
 facet normal -0.240299 0.371470 -0.896809
  outer loop
   vertex -0.750000 0.129409 -0.482963
   vertex -0.966506 0.250000 -0.375000
   vertex -0.750000 0.250000 -0.433013
  endloop
 endfacet
 facet normal -0.240299 0.371470 -0.896809
  outer loop
   vertex -0.966506 0.250000 -0.375000
   vertex -0.750000 0.129409 -0.482963
   vertex -0.991481 0.129409 -0.418258
  endloop
 endfacet
 facet normal 0.240299 0.371470 -0.896809
  outer loop
   vertex -0.750000 0.129409 -0.482963
   vertex -0.533494 0.250000 -0.375000
   vertex -0.508519 0.129409 -0.418258
  endloop
 endfacet
 facet normal 0.240299 0.371470 -0.896809
  outer loop
   vertex -0.533494 0.250000 -0.375000
   vertex -0.750000 0.129409 -0.482963
   vertex -0.750000 0.250000 -0.433013
  endloop
 endfacet
 facet normal 0.656510 0.371470 -0.656510
  outer loop
   vertex -0.508519 0.129409 -0.418258
   vertex -0.375000 0.250000 -0.216506
   vertex -0.331742 0.129409 -0.241481
  endloop
 endfacet
 facet normal 0.656510 0.371470 -0.656510
  outer loop
   vertex -0.375000 0.250000 -0.216506
   vertex -0.508519 0.129409 -0.418258
   vertex -0.533494 0.250000 -0.375000
  endloop
 endfacet
 facet normal 0.896809 0.371470 -0.240299
  outer loop
   vertex -0.267037 0.129409 0.000000
   vertex -0.375000 0.250000 -0.216506
   vertex -0.316987 0.250000 0.000000
  endloop
 endfacet
 facet normal 0.896809 0.371470 -0.240299
  outer loop
   vertex -0.375000 0.250000 -0.216506
   vertex -0.267037 0.129409 0.000000
   vertex -0.331742 0.129409 -0.241481
  endloop
 endfacet
 facet normal 0.776013 0.595456 0.207932
  outer loop
   vertex -0.375000 0.250000 0.216506
   vertex -0.396447 0.353553 0.000000
   vertex -0.443814 0.353553 0.176777
  endloop
 endfacet
 facet normal 0.776013 0.595456 0.207932
  outer loop
   vertex -0.396447 0.353553 0.000000
   vertex -0.375000 0.250000 0.216506
   vertex -0.316987 0.250000 0.000000
  endloop
 endfacet
 facet normal 0.568081 0.595456 0.568081
  outer loop
   vertex -0.375000 0.250000 0.216506
   vertex -0.573223 0.353553 0.306186
   vertex -0.533494 0.250000 0.375000
  endloop
 endfacet
 facet normal 0.568081 0.595456 0.568081
  outer loop
   vertex -0.573223 0.353553 0.306186
   vertex -0.375000 0.250000 0.216506
   vertex -0.443814 0.353553 0.176777
  endloop
 endfacet
 facet normal 0.207932 0.595456 0.776013
  outer loop
   vertex -0.750000 0.353553 0.353553
   vertex -0.533494 0.250000 0.375000
   vertex -0.573223 0.353553 0.306186
  endloop
 endfacet
 facet normal 0.207932 0.595456 0.776013
  outer loop
   vertex -0.533494 0.250000 0.375000
   vertex -0.750000 0.353553 0.353553
   vertex -0.750000 0.250000 0.433013
  endloop
 endfacet
 facet normal -0.207932 0.595456 0.776013
  outer loop
   vertex -0.926777 0.353553 0.306186
   vertex -0.750000 0.250000 0.433013
   vertex -0.750000 0.353553 0.353553
  endloop
 endfacet
 facet normal -0.207932 0.595456 0.776013
  outer loop
   vertex -0.750000 0.250000 0.433013
   vertex -0.926777 0.353553 0.306186
   vertex -0.966506 0.250000 0.375000
  endloop
 endfacet
 facet normal -0.568081 0.595456 0.568081
  outer loop
   vertex -0.926777 0.353553 0.306186
   vertex -1.125000 0.250000 0.216506
   vertex -0.966506 0.250000 0.375000
  endloop
 endfacet
 facet normal -0.568081 0.595456 0.568081
  outer loop
   vertex -1.125000 0.250000 0.216506
   vertex -0.926777 0.353553 0.306186
   vertex -1.056186 0.353553 0.176777
  endloop
 endfacet
 facet normal -0.776013 0.595456 0.207932
  outer loop
   vertex -1.183013 0.250000 -0.000000
   vertex -1.056186 0.353553 0.176777
   vertex -1.103553 0.353553 -0.000000
  endloop
 endfacet
 facet normal -0.776013 0.595456 0.207932
  outer loop
   vertex -1.056186 0.353553 0.176777
   vertex -1.183013 0.250000 -0.000000
   vertex -1.125000 0.250000 0.216506
  endloop
 endfacet
 facet normal -0.776013 0.595456 -0.207932
  outer loop
   vertex -1.125000 0.250000 -0.216506
   vertex -1.103553 0.353553 -0.000000
   vertex -1.056186 0.353553 -0.176777
  endloop
 endfacet
 facet normal -0.776013 0.595456 -0.207932
  outer loop
   vertex -1.103553 0.353553 -0.000000
   vertex -1.125000 0.250000 -0.216506
   vertex -1.183013 0.250000 -0.000000
  endloop
 endfacet
 facet normal -0.568081 0.595456 -0.568081
  outer loop
   vertex -0.926777 0.353553 -0.306186
   vertex -1.125000 0.250000 -0.216506
   vertex -1.056186 0.353553 -0.176777
  endloop
 endfacet
 facet normal -0.568081 0.595456 -0.568081
  outer loop
   vertex -1.125000 0.250000 -0.216506
   vertex -0.926777 0.353553 -0.306186
   vertex -0.966506 0.250000 -0.375000
  endloop
 endfacet
 facet normal -0.207932 0.595456 -0.776013
  outer loop
   vertex -0.750000 0.250000 -0.433013
   vertex -0.926777 0.353553 -0.306186
   vertex -0.750000 0.353553 -0.353553
  endloop
 endfacet
 facet normal -0.207932 0.595456 -0.776013
  outer loop
   vertex -0.926777 0.353553 -0.306186
   vertex -0.750000 0.250000 -0.433013
   vertex -0.966506 0.250000 -0.375000
  endloop
 endfacet
 facet normal 0.207932 0.595456 -0.776013
  outer loop
   vertex -0.750000 0.250000 -0.433013
   vertex -0.573223 0.353553 -0.306186
   vertex -0.533494 0.250000 -0.375000
  endloop
 endfacet
 facet normal 0.207932 0.595456 -0.776013
  outer loop
   vertex -0.573223 0.353553 -0.306186
   vertex -0.750000 0.250000 -0.433013
   vertex -0.750000 0.353553 -0.353553
  endloop
 endfacet
 facet normal 0.568081 0.595456 -0.568081
  outer loop
   vertex -0.375000 0.250000 -0.216506
   vertex -0.573223 0.353553 -0.306186
   vertex -0.443814 0.353553 -0.176777
  endloop
 endfacet
 facet normal 0.568081 0.595456 -0.568081
  outer loop
   vertex -0.573223 0.353553 -0.306186
   vertex -0.375000 0.250000 -0.216506
   vertex -0.533494 0.250000 -0.375000
  endloop
 endfacet
 facet normal 0.776013 0.595456 -0.207932
  outer loop
   vertex -0.316987 0.250000 0.000000
   vertex -0.443814 0.353553 -0.176777
   vertex -0.396447 0.353553 0.000000
  endloop
 endfacet
 facet normal 0.776013 0.595456 -0.207932
  outer loop
   vertex -0.443814 0.353553 -0.176777
   vertex -0.316987 0.250000 0.000000
   vertex -0.375000 0.250000 -0.216506
  endloop
 endfacet
 facet normal 0.600821 0.783005 0.160989
  outer loop
   vertex -0.396447 0.353553 0.000000
   vertex -0.533494 0.433013 0.125000
   vertex -0.443814 0.353553 0.176777
  endloop
 endfacet
 facet normal 0.600821 0.783005 0.160989
  outer loop
   vertex -0.533494 0.433013 0.125000
   vertex -0.396447 0.353553 0.000000
   vertex -0.500000 0.433013 0.000000
  endloop
 endfacet
 facet normal 0.439832 0.783005 0.439832
  outer loop
   vertex -0.443814 0.353553 0.176777
   vertex -0.625000 0.433013 0.216506
   vertex -0.573223 0.353553 0.306186
  endloop
 endfacet
 facet normal 0.439832 0.783005 0.439832
  outer loop
   vertex -0.625000 0.433013 0.216506
   vertex -0.443814 0.353553 0.176777
   vertex -0.533494 0.433013 0.125000
  endloop
 endfacet
 facet normal 0.160989 0.783005 0.600821
  outer loop
   vertex -0.573223 0.353553 0.306186
   vertex -0.750000 0.433013 0.250000
   vertex -0.750000 0.353553 0.353553
  endloop
 endfacet
 facet normal 0.160989 0.783005 0.600821
  outer loop
   vertex -0.750000 0.433013 0.250000
   vertex -0.573223 0.353553 0.306186
   vertex -0.625000 0.433013 0.216506
  endloop
 endfacet
 facet normal -0.160989 0.783005 0.600821
  outer loop
   vertex -0.750000 0.433013 0.250000
   vertex -0.926777 0.353553 0.306186
   vertex -0.750000 0.353553 0.353553
  endloop
 endfacet
 facet normal -0.160989 0.783005 0.600821
  outer loop
   vertex -0.926777 0.353553 0.306186
   vertex -0.750000 0.433013 0.250000
   vertex -0.875000 0.433013 0.216506
  endloop
 endfacet
 facet normal -0.439832 0.783005 0.439831
  outer loop
   vertex -0.875000 0.433013 0.216506
   vertex -1.056186 0.353553 0.176777
   vertex -0.926777 0.353553 0.306186
  endloop
 endfacet
 facet normal -0.439832 0.783005 0.439831
  outer loop
   vertex -1.056186 0.353553 0.176777
   vertex -0.875000 0.433013 0.216506
   vertex -0.966506 0.433013 0.125000
  endloop
 endfacet
 facet normal -0.600821 0.783005 0.160990
  outer loop
   vertex -1.000000 0.433013 -0.000000
   vertex -1.056186 0.353553 0.176777
   vertex -0.966506 0.433013 0.125000
  endloop
 endfacet
 facet normal -0.600821 0.783005 0.160990
  outer loop
   vertex -1.056186 0.353553 0.176777
   vertex -1.000000 0.433013 -0.000000
   vertex -1.103553 0.353553 -0.000000
  endloop
 endfacet
 facet normal -0.600821 0.783005 -0.160990
  outer loop
   vertex -0.966506 0.433013 -0.125000
   vertex -1.103553 0.353553 -0.000000
   vertex -1.000000 0.433013 -0.000000
  endloop
 endfacet
 facet normal -0.600821 0.783005 -0.160990
  outer loop
   vertex -1.103553 0.353553 -0.000000
   vertex -0.966506 0.433013 -0.125000
   vertex -1.056186 0.353553 -0.176777
  endloop
 endfacet
 facet normal -0.439831 0.783005 -0.439832
  outer loop
   vertex -0.875000 0.433013 -0.216506
   vertex -1.056186 0.353553 -0.176777
   vertex -0.966506 0.433013 -0.125000
  endloop
 endfacet
 facet normal -0.439831 0.783005 -0.439832
  outer loop
   vertex -1.056186 0.353553 -0.176777
   vertex -0.875000 0.433013 -0.216506
   vertex -0.926777 0.353553 -0.306186
  endloop
 endfacet
 facet normal -0.160989 0.783005 -0.600821
  outer loop
   vertex -0.750000 0.433013 -0.250000
   vertex -0.926777 0.353553 -0.306186
   vertex -0.875000 0.433013 -0.216506
  endloop
 endfacet
 facet normal -0.160989 0.783005 -0.600821
  outer loop
   vertex -0.926777 0.353553 -0.306186
   vertex -0.750000 0.433013 -0.250000
   vertex -0.750000 0.353553 -0.353553
  endloop
 endfacet
 facet normal 0.160990 0.783005 -0.600821
  outer loop
   vertex -0.573223 0.353553 -0.306186
   vertex -0.750000 0.433013 -0.250000
   vertex -0.625000 0.433013 -0.216506
  endloop
 endfacet
 facet normal 0.160990 0.783005 -0.600821
  outer loop
   vertex -0.750000 0.433013 -0.250000
   vertex -0.573223 0.353553 -0.306186
   vertex -0.750000 0.353553 -0.353553
  endloop
 endfacet
 facet normal 0.439832 0.783005 -0.439832
  outer loop
   vertex -0.443814 0.353553 -0.176777
   vertex -0.625000 0.433013 -0.216506
   vertex -0.533494 0.433013 -0.125000
  endloop
 endfacet
 facet normal 0.439832 0.783005 -0.439832
  outer loop
   vertex -0.625000 0.433013 -0.216506
   vertex -0.443814 0.353553 -0.176777
   vertex -0.573223 0.353553 -0.306186
  endloop
 endfacet
 facet normal 0.600821 0.783005 -0.160989
  outer loop
   vertex -0.396447 0.353553 0.000000
   vertex -0.533494 0.433013 -0.125000
   vertex -0.500000 0.433013 0.000000
  endloop
 endfacet
 facet normal 0.600821 0.783005 -0.160989
  outer loop
   vertex -0.533494 0.433013 -0.125000
   vertex -0.396447 0.353553 0.000000
   vertex -0.443814 0.353553 -0.176777
  endloop
 endfacet
 facet normal 0.380687 0.919061 0.102005
  outer loop
   vertex -0.500000 0.433013 0.000000
   vertex -0.637928 0.482963 0.064705
   vertex -0.533494 0.433013 0.125000
  endloop
 endfacet
 facet normal 0.380687 0.919061 0.102005
  outer loop
   vertex -0.637928 0.482963 0.064705
   vertex -0.500000 0.433013 0.000000
   vertex -0.620591 0.482963 0.000000
  endloop
 endfacet
 facet normal 0.278682 0.919061 0.278682
  outer loop
   vertex -0.533494 0.433013 0.125000
   vertex -0.685295 0.482963 0.112072
   vertex -0.625000 0.433013 0.216506
  endloop
 endfacet
 facet normal 0.278682 0.919061 0.278682
  outer loop
   vertex -0.685295 0.482963 0.112072
   vertex -0.533494 0.433013 0.125000
   vertex -0.637928 0.482963 0.064705
  endloop
 endfacet
 facet normal 0.102005 0.919061 0.380687
  outer loop
   vertex -0.625000 0.433013 0.216506
   vertex -0.750000 0.482963 0.129410
   vertex -0.750000 0.433013 0.250000
  endloop
 endfacet
 facet normal 0.102005 0.919061 0.380687
  outer loop
   vertex -0.750000 0.482963 0.129410
   vertex -0.625000 0.433013 0.216506
   vertex -0.685295 0.482963 0.112072
  endloop
 endfacet
 facet normal -0.102005 0.919061 0.380687
  outer loop
   vertex -0.750000 0.482963 0.129410
   vertex -0.875000 0.433013 0.216506
   vertex -0.750000 0.433013 0.250000
  endloop
 endfacet
 facet normal -0.102005 0.919061 0.380687
  outer loop
   vertex -0.875000 0.433013 0.216506
   vertex -0.750000 0.482963 0.129410
   vertex -0.814705 0.482963 0.112072
  endloop
 endfacet
 facet normal -0.278682 0.919061 0.278682
  outer loop
   vertex -0.814705 0.482963 0.112072
   vertex -0.966506 0.433013 0.125000
   vertex -0.875000 0.433013 0.216506
  endloop
 endfacet
 facet normal -0.278682 0.919061 0.278682
  outer loop
   vertex -0.966506 0.433013 0.125000
   vertex -0.814705 0.482963 0.112072
   vertex -0.862072 0.482963 0.064705
  endloop
 endfacet
 facet normal -0.380687 0.919061 0.102005
  outer loop
   vertex -0.879409 0.482963 0.000000
   vertex -0.966506 0.433013 0.125000
   vertex -0.862072 0.482963 0.064705
  endloop
 endfacet
 facet normal -0.380687 0.919061 0.102005
  outer loop
   vertex -0.966506 0.433013 0.125000
   vertex -0.879409 0.482963 0.000000
   vertex -1.000000 0.433013 -0.000000
  endloop
 endfacet
 facet normal -0.380687 0.919061 -0.102005
  outer loop
   vertex -0.862072 0.482963 -0.064705
   vertex -1.000000 0.433013 -0.000000
   vertex -0.879409 0.482963 0.000000
  endloop
 endfacet
 facet normal -0.380687 0.919061 -0.102005
  outer loop
   vertex -1.000000 0.433013 -0.000000
   vertex -0.862072 0.482963 -0.064705
   vertex -0.966506 0.433013 -0.125000
  endloop
 endfacet
 facet normal -0.278682 0.919061 -0.278682
  outer loop
   vertex -0.814705 0.482963 -0.112072
   vertex -0.966506 0.433013 -0.125000
   vertex -0.862072 0.482963 -0.064705
  endloop
 endfacet
 facet normal -0.278682 0.919061 -0.278682
  outer loop
   vertex -0.966506 0.433013 -0.125000
   vertex -0.814705 0.482963 -0.112072
   vertex -0.875000 0.433013 -0.216506
  endloop
 endfacet
 facet normal -0.102005 0.919061 -0.380687
  outer loop
   vertex -0.750000 0.482963 -0.129409
   vertex -0.875000 0.433013 -0.216506
   vertex -0.814705 0.482963 -0.112072
  endloop
 endfacet
 facet normal -0.102005 0.919061 -0.380687
  outer loop
   vertex -0.875000 0.433013 -0.216506
   vertex -0.750000 0.482963 -0.129409
   vertex -0.750000 0.433013 -0.250000
  endloop
 endfacet
 facet normal 0.102005 0.919061 -0.380687
  outer loop
   vertex -0.625000 0.433013 -0.216506
   vertex -0.750000 0.482963 -0.129409
   vertex -0.685295 0.482963 -0.112072
  endloop
 endfacet
 facet normal 0.102005 0.919061 -0.380687
  outer loop
   vertex -0.750000 0.482963 -0.129409
   vertex -0.625000 0.433013 -0.216506
   vertex -0.750000 0.433013 -0.250000
  endloop
 endfacet
 facet normal 0.278682 0.919061 -0.278682
  outer loop
   vertex -0.533494 0.433013 -0.125000
   vertex -0.685295 0.482963 -0.112072
   vertex -0.637928 0.482963 -0.064705
  endloop
 endfacet
 facet normal 0.278682 0.919061 -0.278682
  outer loop
   vertex -0.685295 0.482963 -0.112072
   vertex -0.533494 0.433013 -0.125000
   vertex -0.625000 0.433013 -0.216506
  endloop
 endfacet
 facet normal 0.380687 0.919061 -0.102005
  outer loop
   vertex -0.500000 0.433013 0.000000
   vertex -0.637928 0.482963 -0.064705
   vertex -0.620591 0.482963 0.000000
  endloop
 endfacet
 facet normal 0.380687 0.919061 -0.102005
  outer loop
   vertex -0.637928 0.482963 -0.064705
   vertex -0.500000 0.433013 0.000000
   vertex -0.533494 0.433013 -0.125000
  endloop
 endfacet
 facet normal 0.130446 -0.990839 0.034953
  outer loop
   vertex -0.750000 -0.500000 0.000000
   vertex -0.620591 -0.482963 0.000000
   vertex -0.637928 -0.482963 0.064705
  endloop
 endfacet
 facet normal 0.095493 -0.990839 0.095493
  outer loop
   vertex -0.750000 -0.500000 0.000000
   vertex -0.637928 -0.482963 0.064705
   vertex -0.685295 -0.482963 0.112072
  endloop
 endfacet
 facet normal 0.034953 -0.990839 0.130446
  outer loop
   vertex -0.750000 -0.500000 0.000000
   vertex -0.685295 -0.482963 0.112072
   vertex -0.750000 -0.482963 0.129410
  endloop
 endfacet
 facet normal -0.034953 -0.990839 0.130446
  outer loop
   vertex -0.750000 -0.500000 0.000000
   vertex -0.750000 -0.482963 0.129410
   vertex -0.814705 -0.482963 0.112072
  endloop
 endfacet
 facet normal -0.095493 -0.990839 0.095493
  outer loop
   vertex -0.750000 -0.500000 0.000000
   vertex -0.814705 -0.482963 0.112072
   vertex -0.862072 -0.482963 0.064705
  endloop
 endfacet
 facet normal -0.130446 -0.990839 0.034953
  outer loop
   vertex -0.750000 -0.500000 0.000000
   vertex -0.862072 -0.482963 0.064705
   vertex -0.879409 -0.482963 0.000000
  endloop
 endfacet
 facet normal -0.130446 -0.990839 -0.034953
  outer loop
   vertex -0.750000 -0.500000 0.000000
   vertex -0.879409 -0.482963 0.000000
   vertex -0.862072 -0.482963 -0.064705
  endloop
 endfacet
 facet normal -0.095493 -0.990839 -0.095493
  outer loop
   vertex -0.750000 -0.500000 0.000000
   vertex -0.862072 -0.482963 -0.064705
   vertex -0.814705 -0.482963 -0.112072
  endloop
 endfacet
 facet normal -0.034953 -0.990839 -0.130446
  outer loop
   vertex -0.750000 -0.500000 0.000000
   vertex -0.814705 -0.482963 -0.112072
   vertex -0.750000 -0.482963 -0.129409
  endloop
 endfacet
 facet normal 0.034953 -0.990839 -0.130446
  outer loop
   vertex -0.750000 -0.500000 0.000000
   vertex -0.750000 -0.482963 -0.129409
   vertex -0.685295 -0.482963 -0.112072
  endloop
 endfacet
 facet normal 0.095493 -0.990839 -0.095493
  outer loop
   vertex -0.750000 -0.500000 0.000000
   vertex -0.685295 -0.482963 -0.112072
   vertex -0.637928 -0.482963 -0.064705
  endloop
 endfacet
 facet normal 0.130446 -0.990839 -0.034953
  outer loop
   vertex -0.750000 -0.500000 0.000000
   vertex -0.637928 -0.482963 -0.064705
   vertex -0.620591 -0.482963 0.000000
  endloop
 endfacet
 facet normal 0.130447 0.990839 0.034953
  outer loop
   vertex -0.750000 0.500000 0.000000
   vertex -0.637928 0.482963 0.064705
   vertex -0.620591 0.482963 0.000000
  endloop
 endfacet
 facet normal 0.095494 0.990839 0.095494
  outer loop
   vertex -0.750000 0.500000 0.000000
   vertex -0.685295 0.482963 0.112072
   vertex -0.637928 0.482963 0.064705
  endloop
 endfacet
 facet normal 0.034953 0.990839 0.130447
  outer loop
   vertex -0.750000 0.500000 0.000000
   vertex -0.750000 0.482963 0.129410
   vertex -0.685295 0.482963 0.112072
  endloop
 endfacet
 facet normal -0.034953 0.990839 0.130447
  outer loop
   vertex -0.750000 0.500000 0.000000
   vertex -0.814705 0.482963 0.112072
   vertex -0.750000 0.482963 0.129410
  endloop
 endfacet
 facet normal -0.095494 0.990839 0.095494
  outer loop
   vertex -0.750000 0.500000 0.000000
   vertex -0.862072 0.482963 0.064705
   vertex -0.814705 0.482963 0.112072
  endloop
 endfacet
 facet normal -0.130447 0.990839 0.034953
  outer loop
   vertex -0.750000 0.500000 0.000000
   vertex -0.879409 0.482963 0.000000
   vertex -0.862072 0.482963 0.064705
  endloop
 endfacet
 facet normal -0.130447 0.990839 -0.034953
  outer loop
   vertex -0.750000 0.500000 0.000000
   vertex -0.862072 0.482963 -0.064705
   vertex -0.879409 0.482963 0.000000
  endloop
 endfacet
 facet normal -0.095494 0.990839 -0.095494
  outer loop
   vertex -0.750000 0.500000 0.000000
   vertex -0.814705 0.482963 -0.112072
   vertex -0.862072 0.482963 -0.064705
  endloop
 endfacet
 facet normal -0.034953 0.990839 -0.130447
  outer loop
   vertex -0.750000 0.500000 0.000000
   vertex -0.750000 0.482963 -0.129409
   vertex -0.814705 0.482963 -0.112072
  endloop
 endfacet
 facet normal 0.034953 0.990839 -0.130447
  outer loop
   vertex -0.750000 0.500000 0.000000
   vertex -0.685295 0.482963 -0.112072
   vertex -0.750000 0.482963 -0.129409
  endloop
 endfacet
 facet normal 0.095494 0.990839 -0.095494
  outer loop
   vertex -0.750000 0.500000 0.000000
   vertex -0.637928 0.482963 -0.064705
   vertex -0.685295 0.482963 -0.112072
  endloop
 endfacet
 facet normal 0.130447 0.990839 -0.034953
  outer loop
   vertex -0.750000 0.500000 0.000000
   vertex -0.620591 0.482963 0.000000
   vertex -0.637928 0.482963 -0.064705
  endloop
 endfacet
 facet normal 0.000000 -1.000000 0.000000
  outer loop
   vertex 0.250000 -0.500000 -0.500000
   vertex 1.250000 -0.500000 0.500000
   vertex 0.250000 -0.500000 0.500000
  endloop
 endfacet
 facet normal 0.000000 -1.000000 0.000000
  outer loop
   vertex 1.250000 -0.500000 0.500000
   vertex 0.250000 -0.500000 -0.500000
   vertex 1.250000 -0.500000 -0.500000
  endloop
 endfacet
 facet normal 0.000000 1.000000 0.000000
  outer loop
   vertex 1.250000 0.500000 -0.500000
   vertex 0.250000 0.500000 0.500000
   vertex 1.250000 0.500000 0.500000
  endloop
 endfacet
 facet normal 0.000000 1.000000 0.000000
  outer loop
   vertex 0.250000 0.500000 0.500000
   vertex 1.250000 0.500000 -0.500000
   vertex 0.250000 0.500000 -0.500000
  endloop
 endfacet
 facet normal 0.000000 0.000000 1.000000
  outer loop
   vertex 0.250000 0.500000 0.500000
   vertex 1.250000 -0.500000 0.500000
   vertex 1.250000 0.500000 0.500000
  endloop
 endfacet
 facet normal 0.000000 0.000000 1.000000
  outer loop
   vertex 1.250000 -0.500000 0.500000
   vertex 0.250000 0.500000 0.500000
   vertex 0.250000 -0.500000 0.500000
  endloop
 endfacet
 facet normal 0.000000 0.000000 -1.000000
  outer loop
   vertex 0.250000 -0.500000 -0.500000
   vertex 1.250000 0.500000 -0.500000
   vertex 1.250000 -0.500000 -0.500000
  endloop
 endfacet
 facet normal 0.000000 0.000000 -1.000000
  outer loop
   vertex 1.250000 0.500000 -0.500000
   vertex 0.250000 -0.500000 -0.500000
   vertex 0.250000 0.500000 -0.500000
  endloop
 endfacet
 facet normal -1.000000 0.000000 0.000000
  outer loop
   vertex 0.250000 -0.500000 -0.500000
   vertex 0.250000 0.500000 0.500000
   vertex 0.250000 0.500000 -0.500000
  endloop
 endfacet
 facet normal -1.000000 0.000000 0.000000
  outer loop
   vertex 0.250000 0.500000 0.500000
   vertex 0.250000 -0.500000 -0.500000
   vertex 0.250000 -0.500000 0.500000
  endloop
 endfacet
 facet normal 1.000000 0.000000 0.000000
  outer loop
   vertex 1.250000 -0.500000 0.500000
   vertex 1.250000 0.500000 -0.500000
   vertex 1.250000 0.500000 0.500000
  endloop
 endfacet
 facet normal 1.000000 0.000000 0.000000
  outer loop
   vertex 1.250000 0.500000 -0.500000
   vertex 1.250000 -0.500000 0.500000
   vertex 1.250000 -0.500000 -0.500000
  endloop
 endfacet
endsolid
