solid stl file generated from AC3D
 facet normal  0.000000 0.000000 1.000000
  outer loop
   vertex 0.0  0.0  0.0
   vertex 3.0  0.2  0.0
   vertex 0.0  0.2  0.0
  endloop
 endfacet
 facet normal  0.000000 0.000000 1.000000
  outer loop
   vertex 0.0  0.0  0.0
   vertex 3.0  0.0  0.0
   vertex 3.0  0.2  0.0
  endloop
 endfacet
 facet normal  1.000000 0.000000 0.000000
  outer loop
   vertex 0.0  0.0  0.0
   vertex 0.0  2.0  3.0
   vertex 0.0  0.0  3.0
  endloop
 endfacet
 facet normal  1.000000 0.000000 0.000000
  outer loop
   vertex 0.0  0.0  0.0
   vertex 0.0  2.0  0.0
   vertex 0.0  2.0  3.0
  endloop
 endfacet
endsolid
