solid stl file generated from AC3D
 facet normal -1.000000 0.000000 0.000000
  outer loop
   vertex 0.19  0.19 -1.0
   vertex 0.19  0.19  1.0
   vertex 0.19  0.29 -1.0
  endloop
 endfacet
 facet normal -1.000000 0.000000 0.000000
  outer loop
   vertex 0.19  0.29 -1.0
   vertex 0.19  0.19  1.0
   vertex 0.19  0.29  1.0
  endloop
 endfacet
 facet normal  1.000000 0.000000 0.000000
  outer loop
   vertex 0.29  0.29 -1.0
   vertex 0.29  0.29  1.0
   vertex 0.29  0.19 -1.0
  endloop
 endfacet
 facet normal  1.000000 0.000000 0.000000
  outer loop
   vertex 0.29  0.19 -1.0
   vertex 0.29  0.29  1.0
   vertex 0.29  0.19  1.0
  endloop
 endfacet
 facet normal  0.000000 -1.000000 0.000000
  outer loop
   vertex 0.29  0.19 -1.0
   vertex 0.29  0.19  1.0
   vertex 0.19  0.19 -1.0
  endloop
 endfacet
 facet normal  0.000000 -1.000000 0.000000
  outer loop
   vertex 0.19  0.19 -1.0
   vertex 0.29  0.19  1.0
   vertex 0.19  0.19  1.0
  endloop
 endfacet
 facet normal  0.000000  1.000000 0.000000
  outer loop
   vertex 0.19  0.29 -1.0
   vertex 0.19  0.29  1.0
   vertex 0.29  0.29 -1.0
  endloop
 endfacet
 facet normal  0.000000  1.000000 0.000000
  outer loop
   vertex 0.29  0.29 -1.0
   vertex 0.19  0.29  1.0
   vertex 0.29  0.29  1.0
  endloop
 endfacet
 facet normal -1.000000 0.000000 0.000000
  outer loop
   vertex 0.19  0.30 -1.0
   vertex 0.19  0.30  1.0
   vertex 0.19  0.39 -1.0
  endloop
 endfacet
 facet normal -1.000000 0.000000 0.000000
  outer loop
   vertex 0.19  0.39 -1.0
   vertex 0.19  0.30  1.0
   vertex 0.19  0.39  1.0
  endloop
 endfacet
 facet normal  1.000000 0.000000 0.000000
  outer loop
   vertex 0.29  0.39 -1.0
   vertex 0.29  0.39  1.0
   vertex 0.29  0.30 -1.0
  endloop
 endfacet
 facet normal  1.000000 0.000000 0.000000
  outer loop
   vertex 0.29  0.30 -1.0
   vertex 0.29  0.39  1.0
   vertex 0.29  0.30  1.0
  endloop
 endfacet
 facet normal  0.000000 -1.000000 0.000000
  outer loop
   vertex 0.29  0.30 -1.0
   vertex 0.29  0.30  1.0
   vertex 0.19  0.30 -1.0
  endloop
 endfacet
 facet normal  0.000000 -1.000000 0.000000
  outer loop
   vertex 0.19  0.30 -1.0
   vertex 0.29  0.30  1.0
   vertex 0.19  0.30  1.0
  endloop
 endfacet
 facet normal  0.000000  1.000000 0.000000
  outer loop
   vertex 0.19  0.39 -1.0
   vertex 0.19  0.39  1.0
   vertex 0.29  0.39 -1.0
  endloop
 endfacet
 facet normal  0.000000  1.000000 0.000000
  outer loop
   vertex 0.29  0.39 -1.0
   vertex 0.19  0.39  1.0
   vertex 0.29  0.39  1.0
  endloop
 endfacet
endsolid
